<svg width="800" height="800" viewBox="0 0 800 800" fill="none" xmlns="http://www.w3.org/2000/svg">
<g clip-path="url(#clip0_228_2)">
<path d="M356.137 245.419C422.215 243.721 488.362 251.716 554.793 240.467C600.637 232.685 647.188 229.643 693.315 223.134C707.394 220.433 721.964 222.167 735.016 228.098C748.067 234.028 758.957 243.862 766.183 256.244C793.35 300.177 807.57 348.214 796.038 400.92C794.041 411.978 789.239 422.338 782.092 431.009C774.944 439.68 765.691 446.371 755.218 450.442C744.165 455.531 732.554 459.307 720.623 461.691C646.622 472.515 573.753 491.404 498.338 493.456C472.444 494.164 446.763 499.894 417.899 503.714C416.556 518.177 415.966 532.7 416.13 547.223C418.394 583.587 422.639 619.809 424.195 656.173C425.225 674.363 423.677 692.608 419.597 710.365C411.461 743.12 382.809 753.591 353.803 735.055C333.231 722.1 313.587 707.727 295.013 692.041C208.914 618.324 121.542 546.304 27.1668 483.127C-4.10314 461.903 -7.56971 448.108 12.593 417.687C37.142 380.616 64.4501 345.384 90.414 309.374C114.185 276.619 140.502 245.702 161.16 210.824C188.539 165.122 225.398 127.697 258.932 87.3012C266.019 80.038 273.582 73.2549 281.571 66.997C290.909 58.2245 300.884 52.211 314.114 58.2952C319.731 60.681 324.561 64.6011 328.052 69.6062C331.543 74.6112 333.554 80.4987 333.852 86.5937C339.229 132.72 345.172 178.564 351.114 224.903C351.893 230.633 353.732 236.364 356.137 245.419ZM91.9704 425.186C104.239 448.986 123.495 468.464 147.153 481.005C173.965 494.8 199.01 512.133 224.549 528.263C261.762 551.68 298.621 575.38 341.917 602.901C340.149 581.677 338.805 566.254 337.743 551.114C336.258 529.042 333.357 506.969 334.065 484.967C334.631 465.228 347.011 447.259 364.839 443.721C408.207 435.02 446.622 409.551 492.819 410.541C523.163 410.202 553.409 407.028 583.163 401.061C628.44 393.209 674.425 387.761 718.713 372.197C719.279 347.86 717.227 326.707 702.37 307.393C646.339 313.831 592.43 320.481 538.451 325.999C510.152 328.9 481.854 330.174 453.555 331.588C413.3 333.569 372.975 334.348 332.791 336.965C304.493 338.875 286.735 328.334 280.439 300.036C275.133 276.406 273.364 252.07 268.695 228.299C266.451 219.466 263.494 210.83 259.852 202.476C253.697 204.103 251.008 203.962 250.159 205.165C202.806 269.921 155.477 334.748 108.171 399.646C102.37 407.641 97.6301 416.626 91.9704 425.186Z" fill="white"/>
<path d="M73 426.974C79.3166 416.174 84.8129 405.548 91.5397 395.785C146.229 316.474 201.219 237.306 256.511 158.283C257.495 156.814 260.612 156.987 267.749 155C272 165.199 275.457 175.745 278.086 186.534C283.172 215.563 285.551 245.284 291.703 274.14C299.004 308.698 319.677 321.571 352.409 319.238C399.004 316.042 445.763 315.091 492.441 312.672C525.255 310.944 558.068 309.389 590.882 305.847C653.474 299.108 715.984 290.987 780.955 283.125C798.182 306.711 800.561 332.543 799.905 362.263C748.552 381.271 695.229 388.182 642.728 397.513C608.227 404.8 573.155 408.676 537.97 409.09C484.402 408.053 439.529 438.983 389.57 449.61C368.897 453.929 354.541 475.528 353.885 499.978C353.065 526.847 356.428 553.803 358.151 580.758C359.381 599.247 360.94 617.736 362.991 644C312.622 610.392 269.882 581.449 226.732 552.852C197.118 533.154 168.078 511.987 136.987 495.14C109.554 479.825 87.2264 456.039 73 426.974Z" fill="white"/>
</g>
<defs>
<clipPath id="clip0_228_2">
<rect width="800" height="800" fill="white"/>
</clipPath>
</defs>
</svg>
