<?xml version="1.0" encoding="utf-8"?>
<!-- Generator: Adobe Illustrator 27.2.0, SVG Export Plug-In . SVG Version: 6.00 Build 0)  -->
<svg version="1.1" id="Layer_1" xmlns="http://www.w3.org/2000/svg" xmlns:xlink="http://www.w3.org/1999/xlink" x="0px" y="0px"
	 viewBox="0 0 864 864" style="enable-background:new 0 0 864 864;" xml:space="preserve">
<style type="text/css">
	.st0{fill:#FFCCCC;}
	.st1{fill:#FFE4DB;}
	.st2{fill:#FFCC99;}
	.st3{fill:#996699;}
	.st4{fill:#CC99CC;}
</style>
<g>
	<path class="st0" d="M707.7,281.4l-0.5-0.9c-0.3-0.5-0.6-1.1-0.8-1.4c-11.9-21.4-35.8-36-64.1-39.1c1.8-5.5,3.1-11.5,3.9-17.7
		l0.2-2.4c1.1-11.1,2.6-26.2-10.1-32.3c-3.4-1.2-7-1.8-11.1-1.8c-6.8,0-13.4,1.6-19.8,3.1l-2.8,0.7c-17.1,4.5-32.6,12.3-49.6,22.6
		c0.2-0.3,0.4-0.7,0.7-1c4.4-6.8,11.8-11,18.2-14.6c2.3-1.2,4.7-2.5,7.1-3.7c10.1-5.2,20.6-10.5,27.7-20.2
		c7.2-9.8,12.1-25.4,2.2-36.7c-5.9-7.2-14.3-13-26.5-18.1c-10-3.8-20.7-4.6-29.7-4.8c-2.8-0.1-5.5-0.2-8.3-0.2
		c-5.5,0-12.5,0.3-19.6,2.6c5.4-16.9,11-37.7,0.7-46c-2.2-1.7-5-2.6-8.1-2.6c-2,0-4.2,0.4-6.2,1.1c-7.4,2.6-13.1,7.8-18.6,12.7
		c-1.4,1.3-2.9,2.6-4.3,3.9c-7.7,6.7-12.9,10-21.1,10.8c-2.9,0.2-5.7,0.3-8.5,0.3c-14.6,0.4-28.4,0.7-40.6,16.2
		c-4.4,5.3-7.4,11.9-9,20.2c-6.3-8.5-13.5-15.9-21.5-21.9c-0.2-0.1-0.4-0.3-0.6-0.4c0.4-5.9,1.1-11.7,1.9-18
		c1.3-7.8,2-18.9-6.3-25.6c-8.4-6.8-19.3-7-29-7.2c-5.1-0.1-10-0.2-14.1-1.2c-4.5-0.9-9-2.6-13.3-4.1c-3.5-1.3-7-2.6-10.6-3.5
		c-1.2-0.4-2.4-0.7-3.6-0.9c-0.4-0.3-0.9-0.7-1.6-0.8c-3.3-0.8-6.5-1.8-9.7-2.9c-7.4-2.4-12.9-4.8-19.9-7.8l-3.8-1.6
		c-22-9-41.9-13.4-60.7-13.5c-14.2,0.4-29,5-42.8,13.3c-6.8,4-12.5,8.8-17.1,14.2c-1.1,1.3-2.1,2.8-3.2,4.4
		c-1.2-0.1-2.3-0.1-3.5-0.1c-1.4,0-2.9,0.1-4.3,0.2c-9.1,0.9-17.5,6.5-22.5,14.8c-2.9,4.6-4.3,9.7-5.7,14.6
		c-0.9,3.2-1.8,6.2-3.1,9.2c-1.1,3.5-5.4,9.3-11.3,15.3c-4,4-8.2,7.4-12.7,11c-5.7,4.6-11.7,9.3-17,15.4
		c-11.4,12.1-16.8,28.9-14.5,44.8c1.2,10.8,7.2,21.2,17.1,29.4c-4.4,0.8-8.4,2.2-11.9,4.3c-8,5.1-13.4,12.8-15.2,21.6
		c-1.8,9.2,0.4,18.9,6.3,27.3c6.1,8.5,15.2,12.9,24,17.2c2.7,1.3,5.5,2.7,8.2,4.2c9.2,4.5,15.2,9.6,17.1,15
		c1.9,5.1,3.3,10.5,4.6,15.8c2.2,8.2,4.3,16.7,8.4,24.5c4,8.5,9.4,16.4,16.1,23.4c4.4,4.7,9.4,9.4,15.7,11.8
		c4.9,2.1,10,3.1,15.7,3.1c10.7,0,21-3.5,31.1-6.9l1.8-0.6c8.4-2.6,15.4-4.2,23.8-4.2c1.6,0,3.3,0.1,4.9,0.2c2.9,0.3,6.8,1.2,11,2.1
		c6.1,1.4,12.9,3,18.7,3.2l0,0.2c1,4.4,1,6.3,1,14.4l0,3.6c-1.7,43.7-13.7,88.9-25.3,132.8c-3.7,13.9-7.5,28.4-10.9,42.3
		c-6.9,28.7-14.1,58.2-21.5,87.6c-2.3,9.3-5.5,19.2-9,29.6c-6.9,21.1-14,43-14.8,63.3c-2,51.1,59.7,78.8,101.2,87.9
		c28.7,6.3,59.4,6.1,88.6,6.9c34.8,1,70-0.2,104.1-8.1c26-6,51-15.9,73.9-29.7c26.3-15.9,39.6-30.2,40.9-43.7
		c0.4-4.6-0.4-11.6-6.8-18.3l-0.4-0.4l-6.6-23.4c-2.5-9.5-6.7-20.3-11.1-31.6c-9.8-25.2-20.9-53.7-15.3-73.3
		c3.2-11.1,9.9-20.9,17.6-31.7c13.4-18.6,27.8-37.1,41.7-54.9c34.5-44.5,70.3-90.5,95.1-142.3C717.7,341.3,720.9,307.4,707.7,281.4z
		 M496.6,788c-16.1,12.7-46.9,19-94.2,19.3c-13.2,0-26.6-0.5-39.9-1.5c-38.9-2.5-77.7-9.8-112.6-21c-1.3-0.4-2.1-1.9-1.6-3.2
		c0.3-1,1.3-1.7,2.3-1.7c0.3,0,0.5,0,0.8,0.1c34,11,73.5,18.3,111.4,20.8c13.1,0.9,26.4,1.4,39.5,1.4c46.1-0.3,75.9-6.2,91-18.1
		c4-3.4,6.1-7.4,6.1-11.4c0-4.1-2.2-8.1-6.4-11.6c-22.1-16.7-65.9-22.5-91.7-24.5c-1.4-0.1-2.4-1.3-2.3-2.7c0.1-1.3,1.2-2.4,2.5-2.4
		h0.2c26.3,2,71.2,8,94.4,25.6c5.4,4.6,8.3,10,8.3,15.6C504.6,778.3,501.9,783.6,496.6,788z M628.6,334.4
		c-2.8,31.1-22.8,57.1-40.7,81.3c-14.7,19.9-29.3,39.9-43.4,60.3c-12.8,18.4-24.3,42.6-42.4,56.5c-6.1-5-5.4-11.6-6.3-19.2
		c-3-25.2-9.5-50.1-13.9-75.1c-1.4-8-2.7-16-4-24l0-0.2c1.8-1.1,3.6-2.7,5.3-4.5c1-1.1,1.9-2.2,2.7-3.4c9.2,3.7,18.8,5.2,26.2,6.1
		c3.9,0.5,7.7,0.8,11.3,0.8c10.4,0,19.7-2.1,27.5-6.3c11.3-6.2,18.3-13.7,20.9-22.4c1.3-4.9,0.8-9.8,0.4-14.6
		c-0.1-0.9-0.2-1.8-0.3-2.8c-1-6.7,2.1-9,9.3-13.6c1.4-0.9,3-1.9,4.6-3.1c3.2-2.4,3.1-6.6,3.1-8.2c0-5.9-2.6-11.8-8.1-17.9
		c-1.6-1.8-3.3-3.6-5.1-5.1c11-4.9,23.4-9.8,34.4-9.8c1.1,0,2.2,0,3.2,0.1C625.2,310.4,629.4,325,628.6,334.4z"/>
	<path class="st1" d="M636.2,187.6c-3.4-1.2-7-1.8-11.1-1.8c-6.8,0-13.4,1.6-19.8,3.1l-2.8,0.7c-17.1,4.5-32.6,12.3-49.6,22.6
		c0.2-0.3,0.4-0.7,0.7-1c4.4-6.8,11.8-11,18.2-14.6c2.3-1.2,4.7-2.5,7.1-3.7c10.1-5.2,20.6-10.5,27.7-20.2
		c7.2-9.8,12.1-25.4,2.2-36.7c-5.9-7.2-14.3-13-26.5-18.1c-10-3.8-20.7-4.6-29.7-4.8c-2.8-0.1-5.5-0.2-8.3-0.2
		c-5.5,0-12.5,0.3-19.6,2.6c5.4-16.9,11-37.7,0.7-46c-2.2-1.7-5-2.6-8.1-2.6c-2,0-4.2,0.4-6.2,1.1c-7.4,2.6-13.1,7.8-18.6,12.7
		c-1.4,1.3-2.9,2.6-4.3,3.9c-7.7,6.7-12.9,10-21.1,10.8c-2.9,0.2-5.7,0.3-8.5,0.3c-14.6,0.4-28.4,0.7-40.6,16.2
		c-4.4,5.3-7.4,11.9-9,20.2c-6.3-8.5-13.5-15.9-21.5-21.9c-0.2-0.1-0.4-0.3-0.6-0.4c0.4-5.9,1.1-11.7,1.9-18
		c1.3-7.8,2-18.9-6.3-25.6c-8.4-6.8-19.3-7-29-7.2c-5.1-0.1-10-0.2-14.1-1.2c-4.5-0.9-9-2.6-13.3-4.1c-3.5-1.3-7-2.6-10.6-3.5
		c-1.2-0.4-2.4-0.7-3.6-0.9c-0.4-0.3-0.9-0.7-1.6-0.8c-3.3-0.8-6.5-1.8-9.7-2.9c-7.4-2.4-12.9-4.8-19.9-7.8l-3.8-1.6
		c-22-9-41.9-13.4-60.7-13.5c-14.2,0.4-29,5-42.8,13.3c-6.8,4-12.5,8.8-17.1,14.2c-1.1,1.3-2.1,2.8-3.2,4.4
		c-1.2-0.1-2.3-0.1-3.5-0.1c-1.4,0-2.9,0.1-4.3,0.2c-9.1,0.9-17.5,6.5-22.5,14.8c-2.9,4.6-4.3,9.7-5.7,14.6
		c-0.9,3.2-1.8,6.2-3.1,9.2c-1.1,3.5-5.4,9.3-11.3,15.3c-4,4-8.2,7.4-12.7,11c-5.7,4.6-11.7,9.3-17,15.4
		c-11.4,12.1-16.8,28.9-14.5,44.8c1.2,10.8,7.2,21.2,17.1,29.4c-4.4,0.8-8.4,2.2-11.9,4.3c-8,5.1-13.4,12.8-15.2,21.6
		c-1.8,9.2,0.4,18.9,6.3,27.3c6.1,8.5,15.2,12.9,24,17.2c2.7,1.3,5.5,2.7,8.2,4.2c9.2,4.5,15.2,9.6,17.1,15
		c1.9,5.1,3.3,10.5,4.6,15.8c2.2,8.2,4.3,16.7,8.4,24.5c4,8.5,9.4,16.4,16.1,23.4c4.4,4.7,9.4,9.4,15.7,11.8
		c4.9,2.1,10,3.1,15.7,3.1c10.7,0,21-3.5,31.1-6.9l1.8-0.6c8.4-2.6,15.4-4.2,23.8-4.2c1.6,0,3.3,0.1,4.9,0.2c2.9,0.3,6.8,1.2,11,2.1
		c6.1,1.4,12.9,3,18.7,3.2h1.5c1.2,0,2.4,0,3.6-0.1c11.6-0.8,23.7-5.9,34-14.3c3.8-3.2,7.2-7.2,10.2-12.2c1.3-0.6,2.6-1.2,3.7-1.8
		c4.4-2.1,7.8-3.7,12.7-5.4c7.2-2.1,13.2-3,19.6-3.8c2.9-0.4,5.9-0.8,9.2-1.4c12.5-2.6,23.8-7.5,32.9-14.3c6-5,10.9-11.7,14.4-19.7
		c0.4,0.8,0.8,1.6,1.2,2.5c3.1,7,4,11.7,3.5,17.3c-0.6,6.6-1.7,10.6-4.1,17.5c-2.5,6.2-4.9,14.3-2.3,22.3c1.5,5.4,5,10.4,10,14.4
		c3.4,2.7,7.4,4.3,11.2,5.9c0.8,0.3,1.7,0.7,2.5,1c6.9,2.9,11.5,5.7,17.2,10.5c3.7,3,7.5,7.5,11.4,12.3c2.7,3.3,5.5,6.7,8.5,9.7
		c3.3,3.3,7,5,11,5.2c0.3,0,0.6,0,0.8,0c3.1,0,6.1-0.9,9-2.8c1.8-1.1,3.6-2.7,5.3-4.5c1-1.1,1.9-2.2,2.7-3.4
		c9.2,3.7,18.8,5.2,26.2,6.1c3.9,0.5,7.7,0.8,11.3,0.8c10.4,0,19.7-2.1,27.5-6.3c11.3-6.2,18.3-13.7,20.9-22.4
		c1.3-4.9,0.8-9.8,0.4-14.6c-0.1-0.9-0.2-1.8-0.3-2.8c-1-6.7,2.1-9,9.3-13.6c1.4-0.9,3-1.9,4.6-3.1c3.2-2.4,3.1-6.6,3.1-8.2
		c0-5.9-2.6-11.8-8.1-17.9c-1.6-1.8-3.3-3.6-5.1-5.1c-3.4-2.9-7.1-5.2-11.2-7c-1.4-0.6-2.8-1.1-4.2-1.6c6.7-3.2,12.6-7.2,17.3-10.5
		c2.4-1.7,4.7-3.6,7-5.5c3.1-2.5,6-4.9,9.3-7c2.9-1.9,6.8-3.6,11-5.3c7.4-3.1,15.9-6.5,21.1-13c5.7-6.3,10.3-13.8,13.7-22
		c1-2.3,1.9-4.7,2.7-7.2c1.8-5.5,3.1-11.5,3.9-17.7l0.2-2.4C647.5,208.8,648.9,193.7,636.2,187.6z"/>
	<path class="st2" d="M526.6,260.6c-0.9-1.2-1.1-2.6-0.3-4.4c1.5-3.1,6.1-5.7,9.5-5.7c4.9,0,10.9,4.9,8.9,10.3c-0.7,2.1-2.8,3.5-5,4
		c-2.2,0.5-4.4,0.1-6.6-0.5C530.9,263.7,528,262.5,526.6,260.6z M517.3,206.9c-0.5-4.5,3.9-11,7.1-13.8c2.9-2.5,7.3-3.7,10.7-1.9
		c0.8,0.5,1.6,1.1,2,1.9c0.6,1.1,0.6,2.5,0.4,3.8c-0.6,4.4-3.1,8.5-6.7,11.2c-3,2.2-8.7,3.7-12,1.5
		C517.9,208.8,517.4,207.9,517.3,206.9z M505.6,181.3c3.1-3.8,8.8-6.7,10.8-3.3c0.5,0.8,0.5,1.8,0.4,2.7c-0.3,2.5-1.6,4.8-3.5,6.4
		c-1.9,1.5-5.9,3.1-8.2,1.7C502.4,187.2,503.3,184,505.6,181.3z M471.6,178.2c-0.7,0.8-1.6,1.5-2.6,2c-4.6,2.4-8.3-1.1-8.3-5.9
		c0-3.3,1.7-7.3,5.3-9.5c4.4-2.8,7.4,1.1,7.9,4.2C474.5,172.1,473.7,175.7,471.6,178.2z M441.6,192.1c-2-1.5-3-4.8-2.9-7.1
		c0.1-1.4,1-5.5,2.8-5.8c2.3-0.4,5.3,2.5,6.1,4.1c1.6,3.3-0.4,11-4.9,9.4C442.3,192.6,441.9,192.3,441.6,192.1z"/>
	<path class="st3" d="M291.6,55.7c7.7,0,15.6,1.3,24.3,4c2.5,0.8,5,1.7,7.5,2.6c3.8,1.4,7.7,2.9,11.8,3.9c7.4,1.8,14.8,2,21.9,2
		c10.2,0,17.2,2.1,20.7,6.1c2.3,2.6,3.1,6.1,2.5,10.8c-0.2,2.4-0.5,4.9-0.9,7.6c-0.6,4.8-1.2,10-1.7,15.2c-0.1,1.5-0.2,3.1-0.3,4.6
		c-0.1,1.4-0.2,2.7-0.2,4l0,0.3c-1,13,2.7,24.2,10.5,31.6c5.3,4.9,11.5,8.6,17.4,12.2c5.4,3.3,10.6,6.4,14.6,10.1
		c4.3,3.9,6.7,8,7.7,13c0.9,4.2,0.4,8.7-1.4,13.2l-0.3,0.7v0c-0.9,1.9-1.9,3.8-3,5.4l-1.5,1.8c-3.2,3.9-7.6,9.2-11.5,14.7
		c-2.7,3.8-4.8,7.4-6.2,10.4c-0.4,0.9-0.9,1.9-1.3,2.9c-0.6,1.3-1.2,2.6-1.7,3.9c-1.8,4.6-3.2,8.9-4,13.1c-0.4,2.6-0.7,5.2-0.9,7.6
		c-0.2,2.9-0.4,5.7-0.6,8.9c-0.2,3.4-0.4,7.4-1,11.5c-0.1,1-0.2,2.1-0.4,3.2c-0.1,0.5-0.2,1-0.3,1.5l-0.1,0.2v0.3l0,0.3
		c-3.5,17-13.8,29.5-29.2,35.2c-8.6,3.9-16.8,5.1-25.5,6.3c-5.1,0.7-10.4,1.5-16,2.8c-3.6,0.9-7.1,2.3-10.5,3.8
		c0.8-1.9,1.5-3.9,2.4-6c3.5-9.5,7.2-20.7,8-32.6c0.1-1.1,0.2-2.2,0.3-3.3c0.4-3.9,0.8-7.8,0.4-11.8c-0.2-1.6-0.5-3.1-0.8-4.4
		c1.6-1.1,3.1-2.3,4.6-3.4l2.3-1.5c4.2-2.9,8.6-5.8,12.4-9.4c1.1-1.1,2.2-2.1,3.2-3c3.2-3,5.6-5.4,9.2-7.6c2.5-1.7,5.1-3.1,8-4.5
		c3.5-1.8,7.1-3.7,10.2-6.1c0.7-0.6,1.4-1.2,2.1-1.8l0.4-0.4c0.4-0.4,0.7-0.8,0.9-1.2c3.6-4.6,6-10.1,7.1-16.1
		c0.3-1.6,0.5-3.3,0.5-5c0.4-0.7,0.7-1.6,0.8-2.5c0.6-2.3,1.1-4.7,1.6-7l0.2-0.7c0.7-3,1.6-7,2-11.1c0.5-4.6,0.3-8.7-0.5-12.4
		c-2.6-14.5-10.2-27.8-21.5-37.3c-3.8-3.7-8-7-12-10.2c-4.4-3.4-8.9-7-12.8-10.9l-0.4-0.4c-1.1-1.3-2.2-3-3.3-5.1
		c-1.2-2.5-2.4-5.3-3.3-8.1c-0.4-1.5-0.9-3.1-1.3-4.7c-1.4-5.4-3-11-5.7-16.2c-7-13.1-21.9-17.8-33.5-17.8h-0.9
		c-3.2,0-6.3,0.3-9.3,0.8c-0.4-0.2-0.8-0.3-1.2-0.4c-0.3-0.1-0.6-0.1-1-0.3c-2.8-0.7-5.7-1.1-8.8-1.1c-2.7,0-5.5,0.3-8.4,0.8
		l-0.6,0.1c-3.4,0.6-6.9,1.2-10.3,1.7c7.3-5.3,14.6-10.1,22-12.3C280.1,56.5,285.8,55.7,291.6,55.7z M172.5,210.9
		c-0.2-0.6-0.4-1.1-0.5-1.2c-0.2-0.4-0.4-0.8-0.6-1.1c-0.2-1-0.3-2-0.5-3.1c-1-7.6,4.1-14.9,9.6-17c1.3-0.6,2.7-1.1,4-1.6
		c2.8-1.1,5.6-2.2,8.2-3.8c0.1,3.5,0.8,6.9,1.8,10.2c0.4,1.2,0.8,2.3,1.3,3.4c5,11.7,16.1,23.6,29.5,23.6c5.5,0,10.9-2,16-6.1
		c0.3-0.3,0.6-0.5,1-0.8c1.2-0.9,2.7-2.2,3.4-3.9c7.6-2.2,12.5-7.3,13.2-13.7c0.5-2.9-0.1-5.5-1.6-7.5c-1.5-2.1-3.8-3.3-6-3.9
		c0.2-0.4,0.4-0.8,0.5-1.2c1.8,0.5,3.5,1.3,5.2,2.5c7,4.8,10.5,15.1,8.6,24.6c-0.5,0.6-0.8,1.3-1,2c-0.1,0.5-0.1,0.9-0.1,1.1
		c0,0.2,0,0.5,0.1,0.7c-0.3,0.7-0.6,1.4-0.8,1.9c-1.9,3.2-6.7,6.1-12,7.5c-2,0.5-3.9,0.8-6,1c-1.2,0.1-2.5,0.3-3.8,0.5
		c-0.3-0.1-0.6-0.1-1-0.1c-0.8,0-1.6,0.2-2.3,0.7c-3.7,0.8-7.5,2.2-10.7,3.5c-1.2,0.5-2.5,1-3.7,1.5c-6.1,2.5-11.9,4.8-16.6,5
		c-1.3,0.2-2.8,0.2-4.3,0.2c-0.8,0-1.5,0-2.4-0.1c-0.5-0.2-1.1-0.3-1.6-0.3c-0.3,0-0.7,0-1,0.1c-5.6-0.7-10.5-2.4-13.6-4.8
		c-5.4-4.4-9.8-10.9-12.1-18c0.1-0.3,0.1-0.7,0.1-1v-0.4L172.5,210.9z M251.9,139.9c-5.3-8.2-12.6-13-20.2-13.3
		c2.4-0.9,4.8-1.6,7.5-2.1c4.2-0.8,8.3-1.3,12.2-1.3c12.3,0,22.2,4.1,28.6,11.6c0.2,0.3,0.5,0.6,0.8,0.9c3.4,4.3,5.8,9.5,7.2,15.6
		c1.6,8.9-0.1,19.2-5,30.8c-2.2,5.1-4.9,10.4-8.2,15.9c-0.1-0.7-0.3-1.3-0.5-1.9c-1.4-5.6-4-10.6-7.7-14.4c-3-3.1-6.4-5.4-10.4-6.7
		C260.1,163.1,258.6,149.9,251.9,139.9z M221.1,198.5c2.7,5.3,6.6,9.1,11.1,10.9c-2.2,1.1-4.5,1.6-7.2,1.6c-0.5,0-1,0-1.3,0
		c-7.8-1-16.2-9.3-19.7-19.4l-0.4-1.1c-1.3-4.1-1.7-8.1-1.2-12c0.9-8.5,5.4-13,15.3-15.3c2.4-0.8,5.4-1.9,8-3.9c1-0.8,2-1.7,3-2.5
		c1-0.9,2.4-2.2,2.7-2.3l0.2,0l0.2-0.1c0.4-0.2,0.9-0.2,1.5-0.2c2.1,0,4.9,1.2,7.2,3c4.7,3.5,5.3,12.6,4.1,19.2
		c-2-3.3-5.2-5.6-9.1-6.4c-0.9-0.2-1.8-0.3-2.7-0.3c-4.7,0-9.2,2.8-11.9,7.4l-0.1,0.1c-0.5,0.6-0.9,1.4-1,2.3
		c-0.1,0.3-0.2,0.7-0.3,0.9c-0.7,2.1-1.1,4.3-1,6.6C218.1,190.6,219.1,194.7,221.1,198.5z M227.4,185.5c-0.1-0.5-0.3-0.9-0.4-1.5
		c-0.1-0.8-0.3-1.4-0.4-1.9c-0.1-0.8-0.2-1.2-0.2-1.9c0.2-0.3,0.4-0.6,0.6-0.9c1.5-2,3.2-3,5.1-3c1.7,0,3.5,0.8,4.9,2.3
		c1.7,1.7,2.5,3.9,2.5,5.9v0.2c-1.2,1.5-1.7,3.3-1.5,5.1c-1.2,2.5-2.8,3.7-4.8,3.7v0C232.2,193,228.8,189.9,227.4,185.5z
		 M237.6,199.2c3.3-1.8,6-4.5,7.8-7.9c0.4,0,0.9,0,1.3,0c3.8,0,5.5,0.9,5.9,1.4c0,0,0.2,0.2,0,1.2c-1.2,7.3-10.4,8.9-16,9.1
		c-2,0-3.8-0.7-5.4-1.9C233.3,201,235.5,200.3,237.6,199.2z M246.1,148.1c0.6,1.1,1,2.3,1.4,3.5c-3.9-4.1-9.4-6.7-14.7-6.7
		c-0.5,0-1,0-1.6,0.1c-4.4,0.6-7,3.1-9.3,5.2c-1.5,1.4-2.8,2.6-4.4,3.2l-0.4,0.2c-0.4,0.2-1.8,0.6-3,1c-3.4,1-7.5,2.3-9.7,3.8
		c-3.1,1.9-5.8,4.5-7.8,7.6v0c-0.6,0.4-1,0.8-1.3,1.3c-1.9,2.7-4.9,6.7-8.4,8.5c-1.3,0.8-3.2,1.5-5.1,2.2c-2.5,0.9-5.2,1.9-7.8,3.4
		c-0.1-2.5-0.4-4.6-0.7-6.5c-0.3-2.3-0.6-4.4-0.6-7.2c0-8.7,5.6-19.7,12.8-24.9c2.9-2.1,5.8-3.2,9.2-3.5c0.8-0.1,1.5-0.1,2.3-0.1
		c1.8,0,3.6,0.1,5.4,0.3l1.2,0.1c2.3,0.2,4.7,0.4,7.1,0.4c1.9,0,3.7-0.1,5.2-0.4c2.7-0.4,5.5-1.4,7.9-2.3c2.2-0.8,4.5-1.6,6-1.6h0.4
		C236.6,135.9,241.6,139.8,246.1,148.1z M264,228.1c5-3,8.5-7.5,9.8-12.7c0,0,0.2-0.6,0.2-0.7c0.1-0.2,0.3-0.4,0.4-0.5
		c7.8-8.8,13-19.5,16.7-27.8c0.3-0.7,0.7-1.4,0.9-2.1c6.8-15.2,9.3-37-3.5-53.3c0-1.1-0.2-2.3-0.4-3.4c-0.1-0.5-0.1-0.9-0.2-1.3
		c10.3,1.9,20.3,10.3,25.4,21.8c0.6,1.3,1.1,2.6,1.5,4c0.2,0.4,0.3,0.8,0.4,1.3c1.9,6.6,1.5,13.5-1.2,21.2c-0.5,1.3-1,2.8-1.6,4.1
		c-0.7,1.4-1.3,2.8-2.1,4.3c-0.7,1.3-1.4,2.6-2.2,4c-2.7,5-4.5,9.6-5.4,14c-0.5,2.3-0.8,4.5-1.1,6.7c-0.2,1.5-0.4,3.1-0.7,4.7
		c-0.2,0.9-0.4,1.8-0.6,2.6c-1.3,4.9-2.9,7.3-7.4,11.1c-7.3,5.9-17.7,9.5-27,9.5c-4.9,0-9.3-1-13.2-2.9
		C256.4,231.8,260.2,230.5,264,228.1z M306.1,124.8c-5.4-4.3-11.1-6.9-16.8-7.7c-1.1-0.2-2.2-0.3-3.4-0.4
		c-3.8-11.1-12.3-20.8-23.8-26.8c-0.3-0.2-0.6-0.3-0.9-0.4c8.7-7.8,19.1-11.8,30.9-11.8c1,0,2,0,3,0.1c13.5,0.5,23.1,7.9,26.3,20.2
		c4,15.4,6.8,22.2,11.5,27.9c1.2,1.4,2.5,2.8,4.2,4.4c2.6,2.4,5.6,4.8,9.5,7.9c2.1,1.6,4.4,3.5,6.9,5.6c6.5,5.5,12.5,11,16.5,16.9
		c4.7,7.2,7.9,16.7,8.5,25.2c0.1,1.7,0,3.2-0.2,4.6c-0.1,1.3-0.3,2.7-0.6,4c-1.4-2.4-3.1-4.6-5-6.7c-0.8-0.9-1.6-1.7-2.5-2.6
		c-4.2-4.1-9.8-7.7-14.8-10.9c-2.9-1.8-5.7-3.6-7.8-5.3c-10.4-7.7-19.7-16.4-25-23.3c-0.3-0.5-0.6-0.9-1.1-1.3
		c-0.3-0.6-0.5-1.2-0.8-1.7C317.6,135.7,312.4,129.5,306.1,124.8z M265.4,103.1c6.1,4.9,10.3,11,12.3,17.8
		c-7.2-4.4-16.1-6.8-26.3-6.8c-5.4,0-11,0.6-16.6,1.9c-6.9,1.6-13,4.8-18.9,8c-2,1-4,2.1-5.9,3.1l-1.9,0.9c-2,0.9-3.2,1.5-5.8,2.4
		c-1.5-0.1-3.3-0.2-5-0.2c-1,0-2,0-2.9,0.1c-4.1,0.3-8.4,1.7-12.6,4.1c-9.7,6.5-16.4,17.7-18,30.1c-0.1,1.3-0.2,2.5-0.2,3.6
		c0,0,0,0,0,0c-3.4-4.3-6.7-8.3-7.4-12.5c-1.1-6,0.1-15.1,7.2-21c5.1-4.6,16.2-6.8,26-8.8c1.7-0.3,3.5-0.7,5.3-1.1
		c5.8-1.6,11.7-4.1,17.5-7.7c3.3-2.2,6.4-4.5,9.4-6.8c10.2-7.5,19-14,28-14C254.8,96.1,260,98.4,265.4,103.1z M250.8,87h-0.8
		c-11.1,0-21.3,6.2-28,11.4c-8.5,6.7-17.5,13.5-26.1,16.2c-3.6,1.1-7.6,1.9-11.5,2.8c-3.1,0.7-6.3,1.3-9.4,2.2
		c-2.6-2.6-6-4.2-9.3-5.6c-3.4-1.4-6.8-2.4-10.2-3.1c0-4.8,0-10.4,0.6-13.5c1.1-7.2,4.4-14,7.1-17.5c3.4-4.4,6.2-6.3,11.8-9.5
		c2.6-1.3,5.9-2.1,11-2.5c0.9-0.1,1.9-0.1,2.8-0.1c6.5,0,12.3,1.2,20.1,4.1c1.3,0.5,2.9,1.2,4.6,2c5.1,2.3,12.1,5.3,17.7,6.1
		c1.5,0.3,3.2,0.4,4.9,0.5c0.3,0.1,0.7,0.1,1,0.1c0.2,0,0.4,0,0.6,0c0.6,0,1.2,0,1.8,0c7.3,0,15.1-1.2,21.5-2.4
		C257.1,80.8,253.6,83.8,250.8,87z M157.4,120.7c2.7,0.8,5,1.6,6.9,2.6c-6.3,3-13.3,8.4-16.3,19.2c-4.5,16.1,3.4,25.4,10.4,33.5
		c4,5,5.7,8.5,5.9,12.1c-0.3,1.3-0.7,2.6-1.1,4c-1.4,4.8-2.9,10.2-2.5,15.3c0.3,1.7,1,3.3,2.1,4.9c0.3,1.4,0.8,2.9,1.3,4
		c0.1,0.2,0.1,0.4,0.2,0.7c4,10.1,9.6,17.5,16.9,22.1c-6-1.4-11.2-6.4-15.9-11.6c-1.6-1.7-3.1-3.5-4.6-5.3
		c-3.2-3.7-6.4-7.5-9.9-10.8l-0.8-0.8c-11.1-9.9-22.4-20.3-30.1-31.4c-6.2-8.8-10.6-15.7-10.2-25.7c0.3-18.7,17.3-34.4,37-34.4
		C150.3,119.1,153.9,119.6,157.4,120.7z M141.7,215.6l3,2.7c3.1,3,5.9,6.3,8.7,9.6c3,3.4,6,6.9,9.2,10c1.3,1.3,2.7,2.6,4.4,4
		c5.1,4.1,9.6,6.2,14.2,6.5c0.8,0.1,1.6,0.1,2.4,0.1c0,0,0,0,0,0c4.8,0,9.7-1.2,15.9-3.8c1.1,0.1,2.3,0.1,3.5,0.1
		c1.7,0,3.5-0.1,5.2-0.2c7-0.6,13.5-3.3,19.4-5.7c2.4-1,4.7-1.9,7.1-2.9c1.5-0.6,3.2-1.1,5-1.5c6.9,6.5,16,9.9,26.5,9.9
		c11.9,0,24.4-4.7,33.5-12.4c2.1-1.6,3.9-3.5,5.4-5.8c-0.1,0.2-0.1,0.4-0.2,0.6c-4.3,12.2-14.2,31.2-21.4,41.4
		c-0.5,0.6-1,1.2-1.5,1.9c-10.5,13.1-24.3,18.2-37.6,21.9c-6.3,1.7-12.3,2.1-19.5,2.1c-1.1,0-2.2,0-3.4,0c-4-0.1-7.5-0.3-10.8-0.8
		c-8.1-1-15.1-3.1-22.1-6.8c-8.8-4.5-14.5-9.4-21.6-15.9c-12.7-11.5-22.3-24.5-27-36.7c-3.1-7.4-5.1-18.5-6.4-25.8
		C136.3,210.7,139,213.2,141.7,215.6z M290.5,274.2c3.6-4.6,6.9-9.8,9.9-15.9c2.6-4.8,5-9.7,7.3-14.5c0.8-1.7,1.7-3.5,2.5-5.2
		c4.7-9.2,5.9-17.6,3.8-25.1c0,0-0.3-1.2-0.3-1.3c-0.3-1.3-0.6-2.7-0.9-4c-0.4-2.2-0.6-3.9-0.9-5.9c1.3-4.8,3.5-9.2,5.9-13.9
		l2.3-4.6l0.4-0.8c0.5-1,0.9-2,1.3-3c2.4-5.5,3.6-10.4,3.8-15.3c0-0.7,0-1.5,0-2.3c0.1,0.1,0.2,0.2,0.2,0.2
		c7,6.7,14.5,12.8,22.7,18.2c5.9,3.5,10.2,6.6,13.7,9.6c8.7,7.5,12.3,15.2,11.3,24.2c0,0.6-0.1,1.2-0.3,1.9c-0.7,3.6-2.6,8.7-5.2,12
		c-0.4,0.5-0.8,1-1.2,1.4c-0.3,0.2-0.6,0.5-1.2,0.8c-2,1.4-5,3-8.1,4.6c-3.5,1.8-7,3.8-9.8,5.7c-3.8,2.5-7.1,5.6-10.3,8.7
		c-1.9,1.8-3.8,3.6-5.6,5.1c-1.4,1-3.1,2.2-4.9,3.5c-6.8,4.9-16.1,11.7-23,15.1c-0.9,0.4-1.8,0.9-2.6,1.1c-3.7,1.3-7.8,2.1-11.1,2.1
		c-0.6,0-1.1,0-1.7-0.1C289.2,275.8,289.9,275,290.5,274.2z M218.8,31.6c2.2,0,4.2,0.1,6.3,0.4c12.4,1.2,28,4.9,40.6,9.5
		c3.9,1.4,8.1,3.2,12.5,5c0.7,0.3,1.3,0.6,2,0.9c-1.4,0.2-2.9,0.5-4.3,0.8c-13,2.7-23.5,10.6-33.7,18.3c-2.1,1.6-4.2,3.2-6.3,4.7
		c-2.5-0.2-4.5-0.5-6.3-1c-3.9-1-7.7-2.7-11.7-4.4c-5.7-2.5-11.5-5-18.2-6.1c-3.7-0.7-7.5-1.1-11.2-1.1c-4.1,0-8.1,0.5-11.9,1.4
		c-4.3-1.8-8.7-3.2-13.4-4.1C175.1,41.8,198.1,31.6,218.8,31.6z M67.6,178.5c-2.3-14.4,3.9-30.6,15.8-41.4
		c4.2-4.2,8.5-7.6,12.6-10.9c4.8-3.8,9.8-7.8,14.8-13c5.2-5.6,9.7-10.9,12-17.5c1.2-3.2,2.2-6.3,3-9.2c2.1-7.1,4-13.2,9.1-17.7
		c3.1-3,8.4-5.1,13-5.2h0.9c1.3,0,2.7,0,4,0.1c0.7,0.4,1.5,0.6,2.3,0.6c0.5,0,1-0.1,1.4-0.2c2.9,0.4,5.8,0.9,8.5,1.6
		c-5.3,3.7-9.4,8.2-12.1,13.3c-3.2,6-5.2,12.2-6,18.3c-0.7,4.3-0.6,8.6-0.6,12.7h-0.2c-12.3,0-24.4,5.3-33.3,14.4
		c-8.4,8.6-12.8,19.6-12.5,30.9c-0.1,11.6,6.1,21.5,12.8,30.5c2.8,3.8,6,7.8,9.9,12c0.8,8.8,2,16.2,3.5,23c-1.8-0.8-3.7-1.6-5.7-2.5
		c-8.5-3.8-17.3-7.6-27-9.4c-1.4-0.2-2.8-0.3-4.2-0.4c-0.8-1.1-1.9-1.8-3-2.5c-1-0.6-1.6-1-2.5-1.8c-0.6-0.5-1.2-1-2-1.6
		C74.1,195.5,69.3,189.6,67.6,178.5z M230,356.9c-2.6-0.4-5.4-0.7-8.2-0.7c-4.7,0-9.8,0.6-16.1,1.8c-5.2,1.1-11,3-16.6,4.7
		c-7.1,2.3-13.7,4.4-18.8,4.9c-1.8,0.2-3.5,0.3-5.2,0.3c-8.6,0-15.7-2.8-21.5-8.4c-10.2-9.5-17.5-20.9-22.5-35
		c-1.4-4.1-2.5-8.5-3.5-12.7c-1.4-5.7-2.9-11.6-5.2-17.2c-3.9-9.5-12.8-15-20.9-19.2c-2.3-1.2-5-2.6-7.8-3.9
		c-5.5-2.8-11.2-5.6-14.1-7.6c-4.9-3.6-8.7-8.3-10.3-12.9c-5.1-11.8-0.9-24.2,10.5-30.8c3.5-1.9,8-2.8,14.7-2.9c0.5,0,1,0,1.5,0
		c9.8,0,18.9,4,28.6,8.2c4.9,2.2,9.9,4.4,15.1,6.1c5.3,16.2,13.9,29.4,27.8,42.5c14,14,27.8,22.7,42.3,26.6c5.1,1.2,10.3,2,15.4,2.4
		c3.2,0.3,6.4,0.4,9.5,0.4c10.2,0,20-1.5,28.7-4.5c11-3.2,20.3-8.2,28.2-15.2c2.5,1.3,5.4,1.9,8.9,1.9c1.2,0,2.4-0.1,3.5-0.2
		c6.4-0.6,12.6-2.8,19.6-6.9c0.1-0.1,0.2-0.1,0.3-0.2c0,0.2,0,0.5,0,0.7c0.3,14.3-2.2,27.3-8.4,43.5c-7.5,21.7-18.1,32.3-37.7,37.8
		c-2.4,0.7-4.9,1-7.8,1.1c-0.4,0-0.8,0-1.3,0c-6.4,0-13.1-1.5-20.3-3.1C235.5,358.1,232.8,357.5,230,356.9z"/>
	<path class="st4" d="M564.3,215.7c17.7-10.4,43.3-20.9,60.7-20.9c2.7,0,5.1,0.3,7.2,0.7c5.5,1.6,6.1,9.6,6,14.2
		c-0.3,13.5-2.3,23.5-6.9,34.5l-0.3,0.6c-6.8,15.5-15.3,24.2-27.8,28.3c-5,1.8-11.4,4.5-17.1,8.7c-2.5,1.8-4.9,3.8-7.4,5.8
		c-4.3,3.5-8.7,7.1-13.6,9.9c-6.2,3.9-16.1,8.7-23.2,9.5h-0.2c-0.3,0-0.6,0-0.9,0.1l-2-0.1c-5.7-0.6-12.6-3.6-16.9-6.2
		c-6.8-4.3-13-9.7-19-15c-7.3-6.4-14.9-13-23.9-17.9c-0.8-0.4-1.6-0.8-2.5-1.2c3.4,0.2,7,0.3,10.8,0.3s7.6-0.1,11.3-0.2
		c9.4-0.3,17.1-1.2,24.2-3.1c4,3,8.4,5.6,13.7,5.6c0.3,0,0.6,0,0.8,0c0.4,0,0.7,0,0.9,0c5.2-0.2,9.3-2.2,11.5-5.7
		c1.9-3.2,2.1-7,0.5-10.6c-1.8-4.3-5.5-7.6-9.8-8.6c-1.3-0.4-2.6-0.6-3.8-0.7c-0.4,0-0.9,0-1.3,0c-5.3,0-10.3,2.2-13.6,5.9
		c-1,1.2-2.6,3.4-3.2,6c-10.5,2.2-19.9,2.5-27.9,2.5c-3.8,0-7.7-0.1-11.7-0.2h-0.5c-1.9,0-3.7-0.1-5.6-0.3c12.5-1.9,22.8-4.5,32-8.2
		c8-3.3,16.3-7.6,26.2-13.4c6.3-3.7,12.6-7.6,18.5-11.4C554.4,221.7,559.4,218.6,564.3,215.7z M526.6,124.2c0.5-0.2,1-0.4,1.4-0.5
		l0.3-0.1l0.2-0.1c0.9-0.3,6.7-1.5,9.5-1.6c2.3-0.1,4.9-0.2,7.7-0.2c7.3,0,20.8,0.4,29.8,3.2c5.4,1.5,10,4.1,13.8,6.3
		c6,3.6,10,6.6,13.9,12.1c5,6.9,1,18.5-5.3,25.9c-5.4,6.4-13.9,10.8-22.8,15.4c-8.1,4.2-16.6,8.6-23.5,14.9c-3.7,3.4-6.8,8.5-9.4,13
		c-2,3.4-4.1,6.8-6.8,9.7c-2.8,3-6.2,4.5-9.7,6.5c-10.1,5.8-18.1,9.9-24.6,12.5c-7,2.8-13.8,4.8-21.6,6.3
		c14.8-7.6,26.7-16.1,36-25.8c2.1-2.2,4.2-4.5,6.1-7c1.4,0.3,2.8,0.4,4,0.4c1.8,0,3.5-0.3,5-0.8c6.6-2.2,12.1-10.2,12.1-17.4
		c0-5-2.5-8.8-7.1-10.9c-1.8-0.9-3.8-1.3-5.8-1.3c-9.5,0-16.8,9.7-17.1,18.4v0.3c0,1.9,0.2,4.4,1.2,6.6c-1.8,2.2-3.7,4.3-5.6,6.2
		c-6.7,6.8-14.5,12.8-23.7,18.3c6.1-6.1,11.9-12.8,16.5-20.4c0.7-1.1,1.4-2.4,2-3.6c0,0,0.6-1.2,0.6-1.2c1.4-2.8,2.9-5.5,4.2-8.3
		c1.1-2.3,1.8-6.2,4.3-7.2c6.1-2.4,11.1-11.4,8.2-17.7c-1.5-3.2-5.1-4.6-8.5-4.6c-1.1,0-2.2,0.2-3.3,0.5c2.8-9.2,5.2-18.6,7.6-27.8
		l2.2-8.4c0.5-2.8,1.6-6.6,2.8-10.1c0.2-0.1,0.5-0.2,0.6-0.2c0.7-0.2,1.3-0.4,1.5-0.5C524.6,124.9,525.7,124.5,526.6,124.2z
		 M416.5,142.2l0-0.4c0.8-7.7,1.5-12.9,5-19.6c10.8-17.3,21.2-17.5,42.1-17.9l2.2,0c8.1-0.3,16.3-3.5,22.9-8.8
		c3.2-2.4,6.1-5,8.9-7.6c3.7-3.4,7.1-6.6,11.2-9.1c2.3-1.4,6-3,8.7-3c0.7,0,1.6,0.1,2.2,0.6c6.3,5.5-0.1,25.8-5.3,42
		c-2.3,7.3-4.5,14.2-5.5,19.5c-0.9,3.2-1.7,6.3-2.6,9.5c-3,11.3-6.1,23-9.9,34.3c-3.2,9.1-7.9,19.5-11.3,26.2
		c-0.8,1.5-1.5,2.9-2.2,4.1c-4.9,8.3-9.9,15.5-15.2,21.9c3.1-9.6,5.3-19.6,6.2-28.6c0.5-3.7,0.7-7.2,0.7-10.5
		c0-4.6-0.4-8.7-1.3-12.2c3.2-2.4,5.5-6.5,5.8-10.8c0-0.3,0-0.6,0-0.9c0-3-1.1-5.7-3.1-7.8c-2-2.1-4.8-3.3-7.7-3.3
		c-0.5,0-0.9,0-1.5,0.1c-3.8,0.6-7.1,2.8-9,5.8c-1.4,2.2-2.2,5-2.2,7.8c0,4.6,2.2,8.5,5.9,10.3c1,0.5,2.1,0.7,3.2,0.8
		c0.6,3.5,0.9,7.2,0.9,11c0,2.6-0.2,5.4-0.5,8.3c-0.8,7.9-2.7,15.6-5.2,24.5c0-0.4-0.3-3.7-0.3-3.7c-0.7-9.3-2.3-17.2-5-24.1
		c-0.4-1.2-1-2.5-1.5-3.6c-0.5-1.2-1.1-2.3-1.6-3.5c1.7-2.8,2.8-6,2.8-9c0-2.7-0.8-5.1-2.5-7.3c-1.8-1.9-4.4-3-7.3-3
		c-2.7,0-5.4,0.9-7.5,2.5c-0.6,0.5-1.2,1-1.7,1.6c-1.7-4.8-4.6-9.4-8.7-13.6c-2.9-7.4-6.3-14.5-10.2-21.3
		C416.5,142.9,416.5,142.5,416.5,142.2z M434.8,205.9c0-2-0.1-4-0.2-5.9c0.1-0.1,0.1-0.2,0.2-0.4c0.4-1.1,0.7-2.2,1-3.2
		c1.7,1.3,4,2,6.5,2h0.3c0.5,0,0.9-0.1,1.4-0.1c0.6,1.1,1.1,2.3,1.7,3.5c3,7.1,4.8,16.3,5.6,28.2c0.2,2.8,0.3,5.5,0.4,8.1
		c0,0.9,0,1.7,0,2.7c-1-0.5-1.9-0.9-2.8-1.3c-5.4-2.2-11.2-3-16.5-3.5c0.8-4,1.4-8.1,1.8-12.4C434.8,218.1,435,212.3,434.8,205.9z
		 M389.6,123.5c9.1,8.6,17.6,20.2,22.6,30.7c-16-9.2-26.4-15.8-25.9-33.6C387.4,121.5,388.5,122.5,389.6,123.5z M426,213.5
		c-0.1,2.9-0.3,5.9-0.5,9c-0.1,1.2-0.2,2.6-0.4,3.9c-0.4,3.5-0.9,6.7-1.5,9.3c-3.7-1.3-7.4-2.2-11.1-3c1.7-3.4,3.7-6.7,6-9.9
		c0.7-0.9,1.4-1.8,2.1-2.8c1.3-1.8,2.8-3.5,4.3-5.2C425.2,214.4,425.6,213.9,426,213.5z M471.2,407.4c-0.4,0.1-0.7,0.3-1.1,0.4
		c-0.5,0.1-1,0.2-1.5,0.2c-0.3,0-0.6,0-0.8-0.1c-1.4-0.2-2.9-1.1-4.7-2.6c-1.9-1.9-4.2-4.7-6.7-7.8c-3.4-4.2-7.3-8.9-11-12.2
		c-6-5.9-13.2-10.7-21.7-14.2c-9.6-3.7-15.5-7-18.6-14.2c-1.4-2.5-1.5-8.8-0.8-11c0.6-2,1.3-4.1,2-6.2c2.1-6.3,4.3-12.9,4.9-19.7
		c1-7.3-0.4-15.2-4.2-23.3c-0.6-1.3-1.2-2.7-1.9-4c-1.3-2.8-2.6-5.4-3-7.6c0.1-0.4,0.1-0.7,0.2-1c0.2-1,0.4-2,0.5-3.1
		c0.1-0.4,0.1-0.8,0.2-1.2v-0.1c0.6-4.3,0.9-8.7,1.1-12.4l0-0.3l0.2-3.5c0.3-3.8,0.5-7.4,0.9-10.3c0.7-4.1,1.8-8.1,3.4-12.2
		c7.6,1.4,15.3,4,23.4,8c10.5,5.5,19.1,11.7,25.4,18.4c5.7,6,9.8,12.7,12,19.8c2.4,6.9,4.1,18.9,3.8,26.5c0,3.8-0.2,7.7-0.4,11.5
		c-0.4,7.3-0.7,14.8,0,22.2c0.2,2.5,0.6,4.8,1,6.8c0.9,4.7,2.4,9.8,3.8,14.7c2.2,7.5,4.5,15.2,4.3,21.2
		C481.5,397.9,477.5,404.5,471.2,407.4z M566.6,323.2c5.1,3.6,9.9,8.7,12.2,13.6c1.2,2.6,1.6,4.9,1.2,6.7c-0.7,0.5-1.9,1.3-3.1,2
		c-5.2,3.2-13,8.1-13.8,16.1c-0.2,3.9,0.1,7.3,0.3,10.3c0.5,7.4,0.9,12.3-5.3,18.5c-8.2,9.1-20.2,13.8-35.5,13.8
		c-8.8,0-18.4-1.5-28.8-4.5c-1.4-0.4-2.9-0.9-4.2-1.5c3.1-11.1-0.7-23.6-3.9-33.8c-2-6.4-3.4-13.2-4-19.1c-0.3-3-0.5-5.7-0.4-8.1
		l0.1-1.9c1-19.4,2.2-41.2-6.9-59.4c0.2,0.1,0.4,0.2,0.7,0.4c6.9,3.6,13.7,9.5,20.8,15.8c9.4,8.2,19.1,16.7,30.3,21
		c0.6,0.2,1.2,0.5,1.7,0.7c5.3,2,10.8,2.4,16.1,2.8c4.9,0.4,9.5,0.7,13.7,2.3c0.4,0.1,0.8,0.3,1.4,0.6
		C561.7,320.3,564.2,321.6,566.6,323.2z"/>
</g>
</svg>
