<?xml version="1.0" encoding="utf-8"?>
<!-- Generator: Adobe Illustrator 27.2.0, SVG Export Plug-In . SVG Version: 6.00 Build 0)  -->
<svg version="1.1" id="Layer_1" xmlns="http://www.w3.org/2000/svg" xmlns:xlink="http://www.w3.org/1999/xlink" x="0px" y="0px"
	 viewBox="0 0 864 864" style="enable-background:new 0 0 864 864;" xml:space="preserve">
<style type="text/css">
	.st0{fill:#FFE4DB;}
	.st1{fill:#CC99CC;}
</style>
<g>
	<path class="st0" d="M798.2,418.3c-0.9-6.2-2.1-12.4-3.6-18.4c4.8-56.7-7.9-115.3-34.9-160.9c-21.6-36.5-62.2-81.8-133.3-90.6
		c-6.8-0.9-14-1.4-21.3-1.4c-2.5,0-5.1,0.1-7.7,0.2c0,0,0-0.1-0.1-0.1c-7.2-11.7-15.1-22.5-23.4-32.2
		c-27.4-32.3-69.1-51.7-111.6-51.7c-14.4,0-28.5,2.3-41.6,6.7c-8.1,2.4-15.5,5.6-22.2,9.7c-14.3-37.9-35-57-61.7-57
		c-3.2,0-6.5,0.3-9.7,0.8c-22,2.7-41.4,13.4-60.1,23.7l-3.7,2c-36,19.8-66.5,44.3-90.5,72.8c-38.6,44.2-55.3,110.7-45.7,182.5
		c3.5,21.4,10,42.9,19.4,63.8c-3.7-0.6-7.3-0.9-10.8-0.9c-33.3,0-55.5,26.6-58,69.4c-1.3,18.3,2.3,36.2,5.8,53.4
		c1.6,8,3.3,16.2,4.4,24.5c1.6,9.5,0.8,23.2-0.1,37.8c-0.6,9.4-1.1,19.1-1.1,28c-0.1,32.2,9.4,63.5,26.4,88.1
		c14.5,23.9,37.4,38.4,59.6,52.3c9.1,5.7,18.5,11.6,27,18c10.6,8,24.1,25.9,37.2,43.2c6.2,8.2,12,15.9,17.4,22.4
		c19.7,24.1,42.9,36.9,67,36.9c0,0,0,0,0,0c8.9,0,17.9-1.7,26.7-5.1c15.4-5.1,28.6-15,37.2-27.8c0.2-0.2,0.3-0.5,0.5-0.7
		c8.3,4.8,16.7,9.2,24.9,13.2c26.6,11.6,52.5,17.4,76.9,17.4c32.5,0,63.6-10.4,92.3-30.8c31.2-20.7,53.6-40.8,70.5-63.2l0.1-0.2
		l0.1-0.2c0.7-1.2,1.8-2.5,3-3.9c1.6-2,3.5-4.2,4.8-6.6c53.8-24.3,95.5-70,120.7-132.2C801.8,545.2,808.7,478.5,798.2,418.3z"/>
	<path class="st1" d="M260.2,774.8l-4.3-5.7c-14-19-28.5-38.6-48.1-53.1c-7.5-5.5-15.6-10.3-23.4-15c-10.7-6.4-21.8-13-31.3-21.4
		c-8.8-7.6-24.3-25.7-31.3-42.3l-0.1-0.3c-7.2-14.2-11.6-36.9-11.8-50.8c-0.5-10.2,0.2-20.6,0.9-30.7c0.7-10.9,1.5-22.2,0.8-33.6
		c-1.1-12.8-3.4-25.4-5.7-37.5c-4.3-23.3-8.5-45.3-2.5-63.9c5.6-20.2,15.8-30.1,31.3-30.1c2.8,0,5.8,0.3,8.9,0.9l0-0.1
		c3.1,0.7,14.8,4.2,16.6,5.2l0.3,0.2c0,0,0.6,0.3,0.8,0.3c5,8.5,10.5,16.7,16.2,24.4l0.9,1.1c10.9,13.7,25.8,32.4,46.2,32.4
		c1.6,0,3.2-0.1,4.8-0.3c9.5-1.5,18.1-6.4,25.7-14.7c2.5,25,5.6,46.5,11,66.9c-0.3,1-0.5,1.9-0.6,2.9c-1.1,7.9-3.7,17.9-6.4,28.5
		c-3.8,14.7-8.1,31.3-9.4,46.5c-1.7,27,0.7,52.8,7.2,76.8c20.1,64.3,69.6,108.1,108.9,134.1c-1.1,1.6-1.8,2.6-2.2,3.3
		c-0.7,1-0.8,1.2-2.1,2.4l-0.2,0.2c-10.7,11.6-28.6,16.8-41.7,16.8c-3.4,0-6.5-0.3-9.1-0.9C289.9,811.8,277.7,797.5,260.2,774.8z
		 M530.9,436.6c0.5,5.7,1.2,11,1.9,15.7c1.4,10,2.5,17.8,0.5,23.9c-2.9,6.9-3.1,7.3-10.7,7.3c-2,0-4.3-0.1-6.8-0.2
		c-25.4-2.1-45.2-33.1-45.3-58.1c0.4-13.8,4.6-26,13.8-39.3c8.2-11.1,22.4-18,37.2-18c1.7,0,3.5,0.1,5,0.2c11.7,2.1,20.7,5,27.8,9
		C537.5,391.8,528.9,413.6,530.9,436.6z M555.5,448.4l-0.2-1.4c-1.1-7.9-2.1-15.3-1.3-20.9c1.5-14.9,5.1-22.7,14.5-30.9l0.3-0.3
		c0.4-0.4,0.9-0.8,1.4-1.3c0.9,1.7,1.6,3.5,2.3,5.5c5,13.4,2.7,37.8-4.9,55.6C563.7,452.4,559.6,450.2,555.5,448.4z M425.9,341.8
		c0.5-0.4,1-0.9,1.4-1.4c6.1-6,13.1-11.1,20.4-14.7c25.2-13.3,56.5-20.7,88.1-20.7c51.4,0,110.5,20.7,121.9,79
		c7.9,40.9-22.2,86.1-65,98.7c-1.8-4.2-4.3-8.2-7.4-12.1c3.6-6.5,6.4-13.3,8.6-20.4c9.3-34.4,3.5-65.7-15.5-83.7l-0.2-0.2
		c-16.7-13.7-36.8-21.2-56.4-21.2c-32.8,0-59.6,20.7-69.9,54.1c-8.9,22.9-4.6,51.5,11.3,74.7c14.3,20.9,34.8,32.9,56.3,32.9
		c6.4,0,12.9-1.1,19.3-3.2l0.4-0.1l0.4-0.2c10.2-5.9,15.9-15,17.4-27.8c6.4,4.7,11.7,10.6,14.7,15.4c2,2.8,1.9,12.2,0.3,17.9
		l-0.1,0.3c-5.7,30.3-31.7,33.6-42.7,33.6c-6,0-12.1-0.9-18.1-2.5c-59.5-18.9-118.5-90-105.4-153.7c1.1-7.4,8.4-30.4,15.8-39.4
		C422.7,345.3,424.2,343.6,425.9,341.8z M381.1,394.7c-6.2,72.6,53.5,140.6,114.8,164.4c10.8,4.3,21.9,6.5,32.8,6.5
		c3.4,0,6.7-0.2,10-0.6c17.4,17.1,42.2,27.8,69.2,29.9c-0.1,0.2-0.2,0.3-0.3,0.4l-0.3,0.1l-0.6,0.6c-12.9,13.6-20.8,19.8-33.4,26.2
		c-17.8,7.7-39.7,11.6-65,11.6c-15.1,0-31.4-1.4-48.5-4.2c-55.4-8.4-108.7-53.8-132.5-113c-18.6-51.8-21.2-124.4,32.8-158.6
		c10.9-6.9,19.4-11.1,27.3-13.4c0.5,0.1,0.9,0.1,1.4,0.1c2.2,0,4.4-0.6,6.2-1.8c0.6-0.1,1.3-0.2,1.9-0.3
		C389.1,356.8,383.7,374.2,381.1,394.7z M595.6,505.4c7.8-2.1,14.6-4.5,20.9-7.3c35.4-17.8,58.7-49.3,64-85.5
		c16,20.7,23.5,45.8,21.8,72.8c-0.8,49.6-37.6,86.9-85.7,86.9c-14.9,0-29.7-3.7-44-11l0,0c-1.4-0.8-5.2-3-8.4-5
		C582.5,546.1,593.7,527.9,595.6,505.4z M680,378.9c-5.1-28.5-22.2-53.6-48.1-71c-24.1-16.8-58.3-26-96.1-26
		c-47.5,0-92.5,14.4-120.9,38.6c-2.2-0.4-4.5-0.6-6.9-0.8c0.8-1.6,1.7-3.2,2.7-4.8c0.4-0.7,0.8-1.4,1.2-2c1.5-2.7,3.1-5.4,4.8-8
		c14.3-21.8,35.7-42.4,57-55c29.6-16.4,66.6-26.1,104.3-27.5c4.7-0.5,9.5-0.7,14.2-0.7c44.5,0,87.3,21.6,117.4,59.3
		c31.4,39.3,44.2,89.4,34.1,134c-4.4,21-10.5,39.5-18.5,56.2c-1.4-26-9.8-50.3-24.3-69.6C695.1,393.3,688.1,385.6,680,378.9z
		 M765.9,345.4c-0.1-0.5-0.2-1.1-0.3-1.7c-18.4-79.6-88.9-141.6-164.1-144.4c-3.2-0.1-6.5-0.1-9.8-0.1c-30,0-71.1,4-109.6,20.9
		c28.5-24.9,62.6-41.9,98.1-48.6c2.8-0.4,5.7-0.7,8.6-1c0.7,0.1,1.4,0.2,2.1,0.2c1.2,0,2.4-0.2,3.6-0.6c3.2-0.2,6.4-0.3,9.5-0.3
		c82.8,0,149.1,64.8,164.9,161.3c1,6.5,1.8,12.9,2.3,19.5C769.7,348.8,768,346.9,765.9,345.4z M438.3,232.8
		c-16.8,20.5-32,42.7-45,65.9l-0.1,0.3c-0.4,0.9-1,1.8-1.5,2.7c-0.9,1.5-2,3.2-2.6,5.2c-2.5,4.6-4.4,8.5-6.1,12.2l-0.1,0.3
		c-0.4,1-0.9,2.1-1.6,3.3c-30.2,8.3-60.1,33-74.9,62.1c-14.7,27.9-18.1,62.7-10.3,103.2c3.3,19.2,9.8,38.1,18.9,56
		c2.2,4.3-4,7.7-6.5,3.7c-2.3-3.7-4.5-7.4-6.4-10.9c-16.7-30.2-20.4-66.6-24.2-105.2c-0.4-4.4-0.9-8.8-1.4-13.4
		c-3.7-28.5-11.9-55.3-21.4-84.8l-1.7-5.6c-4.4-14.6-7.9-26.1-6.5-38.4c1.9-19.6,14.5-34.5,36.6-43.1c9-3.8,23.3-5.3,37.2-6.7
		c10.2-1,20.7-2.1,29.8-4.1l0.3-0.1l0.3-0.1c12.6-4.6,20.7-17.7,22.9-36.8c1.2-8.1,2-15.5,2.7-22.8c1.8-17.4,3.4-32.4,10-48.6
		c10.1-25.5,38.2-40.7,75.1-40.7c26,0,51.8,7.9,70.8,21.7l0.2,0.1l0.2,0.1c12.3,7,30.9,29.6,37.7,39.7c0.5,0.6,0.9,1.2,1.3,1.8
		C522.4,159.3,472.8,189.9,438.3,232.8z M353.6,175.1c-3.2,39.4-5.5,39.5-27.1,40.8c-8.7,0.5-20.6,1.2-36,4.6
		c-35.4,6.4-70.8,36.4-66.7,79.6c2.7,20,8.7,39.4,14.6,58.1c4.7,15,9.6,30.5,12.6,46.1c-1.8,2.4-3.1,5-4.4,7.6
		c-1.5,2.9-2.9,5.7-4.8,7.8l-0.2,0.2l-0.2,0.2c-3.9,5.9-8.4,9.5-13.8,11.1c-0.8,0.3-1.6,0.4-2.5,0.4c-10.3,0-26.9-17.3-43.2-45.2
		c-0.5-2.7-1.8-5.1-3.8-6.7c-10.4-18.8-18.9-39-22.4-52.9c-19.8-70.4-4.5-148.3,38-193.9c24.6-27.3,47.9-45.5,82.9-64.8
		c2.2-1.2,4.3-2.3,6.5-3.4c19.6-10.5,35-18.7,52.8-18.7c2.8,0,5.7,0.2,8.4,0.6c15.2,3,28.6,26.5,35.5,49.1
		C364.4,113.3,356.3,138,353.6,175.1z M285,671.7c-11.4-28.5-15.3-63.4-10.7-95.8c0.8-5.8,3.1-16,6.7-30
		c10.8,21.7,25.4,40.6,44.5,57.7c22.7,20.4,44.9,32.4,67.6,36.4c20.5,37.5,53.9,69.5,92,88c28.9,14,60.4,18.9,84.6,21.5
		c4.4,0.4,8.9,0.7,13.5,0.7c11.1,0,22.8-1.3,35.5-3.9c-1.1,1.1-2.2,2.3-3.5,3.6c-49.5,46.5-86.6,65.5-128.1,65.5
		c-21.2,0-43.4-5.2-67.7-15.8C358.3,770.9,308.1,723.1,285,671.7z M429.1,652.9c-2.8-3.4-5.2-6.7-7.5-10.2
		c25,9.4,52.6,14.2,82.3,14.2c16.3,0,32.9-1.5,49.5-4.4c32.8-5.8,63.8-27.1,80.8-55.4l0.3-0.5l0.2-0.6c0.2-0.6,0.3-1.3,0.3-1.9
		c0.5-0.1,0.9-0.1,1.4-0.2c37.2-5.8,70.3-34.5,82.8-71.5c0.6-0.4,1.2-0.8,1.8-1.4l0.2-0.2l0.2-0.2c28.1-35,45.4-80.6,48.1-125.3
		c0.6,1.9,1.3,3.9,1.9,5.9c-0.2,2.3-0.3,4.5-0.5,7c-0.3,4,1.4,7.6,4.5,9.8c4.6,24.4,5.6,55.2,3.1,91.6
		c-8.3,107-83.9,217.6-196.2,217.6c-14.3,0-29-1.9-43.7-5.7C492.1,711.7,458.4,690.6,429.1,652.9z"/>
</g>
</svg>
