<?xml version="1.0" encoding="utf-8"?>
<!-- Generator: Adobe Illustrator 27.2.0, SVG Export Plug-In . SVG Version: 6.00 Build 0)  -->
<svg version="1.1" id="Layer_1" xmlns="http://www.w3.org/2000/svg" xmlns:xlink="http://www.w3.org/1999/xlink" x="0px" y="0px"
	 viewBox="0 0 864 864" style="enable-background:new 0 0 864 864;" xml:space="preserve">
<style type="text/css">
	.st0{fill:#CC99CC;}
</style>
<path class="st0" d="M735.6,308.6c-3.1-18,13.9-34.3,2.2-51.7c-14.4-19.3-39.9-35.1-64.8-35.9c-4.7-0.2-9.4-0.4-13-4.2
	c-0.2-0.2-0.3-0.3-0.5-0.5c-26.1-20.6-30.3,7.3-36.3-3.6c-0.9-1.7-0.9-3.8,0.2-5.3c9.4-12.9,33-20.9,23.1-41.1
	c-3.1-7.2-10.3-14.1-18.1-18.1c-0.7-0.4-0.7-1.4,0-1.8c30-15,10.3-31.7,19.8-50.9c0.1-0.2,0.2-0.3,0.2-0.4
	c16.2-26.2-12.8-52.1-35.7-35c-1.9,1.4-4.6,1.4-6.3-0.3c-9.2-8.7-24.3-6.4-34.3-11.6c-1.5-0.9-2.9-3.9-4-6.6c0-0.1-0.1-0.2-0.1-0.4
	c-7.3-23.9-39.4-19.2-53-6.4c-1.2,0.5-2.4,1.9-3.7,3.4c-2.1,2.5-5.9,2.4-7.9-0.3C489.2,18,465.2,26.3,452.4,42
	c-0.1,0.1-0.1,0.1-0.2,0.2c-29.5,31.4-19.1,4.2-52.2,5.4c-0.9-0.3-2.5-0.1-4.2,0.2c-3.3,0.6-6.1-2.2-5.7-5.5
	c2.1-19.7-15.2-30.3-31.5-29.2c-8.3,0.1-16.6,1.6-24.8,1.6c-13.4,0.3-23.8-7.6-37.3-7.2c-20-0.4-36,20.1-29.6,39
	c2.2,9.4-20.7-16.7-31.1,16.8c-3.1,7.7-10.8,8.6-16.5,14.5c-9.9,8.2-16.6,20.2-21.3,31.9c-8.4,17.5-9.1,38.5,8.4,49.2
	c0.3,0.2,0.5,0.3,0.8,0.6c19.7,17.8,26.5,47.7,55.4,46.5c11.4,0.2,21.4-6,28.9-12.5c0.7-0.6,1.8,0,1.6,1c-1,5.7-0.5,11,1.3,16.1
	c1,2.8-0.7,5.9-3.6,6.5c-8.4,1.5-16,6.7-21.8,13.6c-0.9,0.8-2.2,3.9-3.5,1.9c-5.4-18.4-23.8-22-40-21c-0.5,0-1.1,0-1.6-0.2
	c-10.3-2.9-20.2-12.8-31.9-10.7c-18.3,0.7-27.6,21.7-18.8,35.9c1.3,2.1,0.7,4.8-1.2,6.4c-9.3,7.4-9.2,20.9-15.1,29.7
	c-0.4,0.6-0.9,1.1-1.5,1.4c-6.3,3.6-16.1,3.7-21.8,9.9c-13.2,16.2-3.6,38.4,8.3,49.6c0.5,0.5,0.4,1.4-0.3,1.7
	c-7.8,3.3-13.4,7.6-16.8,13c-0.2,0.2-0.3,0.5-0.4,0.8c-7.3,16.6,3.8,28.6,10.9,37c0.1,0.2,0.3,0.3,0.4,0.4
	c13.5,12.1,14.4,26.9,22,41.7c9.7,18.4,39,20.2,52,3.9c2.9-3.2,5.7-9.9,3.9-2.4c0,0.2-0.1,0.3-0.1,0.5c-2.9,21,16.2,20.7,30.9,16.6
	c0.9-0.2,1.8-0.3,2.7,0c10.6,2.9,21.3,7.5,32.8,6.9c10.4-0.1,19.9-2.1,29.3-4.3c0.5-0.1,1-0.3,1.4-0.6c3.9-2.2,12.4-4.3,23.9-6.2
	c4.9,11.6,6.3,25,4.1,39.8c-5.1,35.5-27.4,70.7-48.5,100.4l-0.2,0.2c-32.7,43.4-45.7,91.4-36.5,135l0.1,0.4
	c11.7,63.1,60.5,98.7,137.4,100.4c1.9,0,3.8,0.1,5.7,0.1c22.6,0,46.6-2.9,71.4-8.7c26-6.1,73.3-21.8,98-59
	c26.7-40.3,28.4-92.5,4.5-139.8c-8.2-16.3-18.5-31.9-28.4-46.9c-7.4-11.2-15.1-22.9-21.7-34.6c-20.6-36.2-26.8-65.1-18.5-87.5
	c2-5.3,4.8-10.3,8.4-14.9c10.4-0.7,18.1-1.2,21.8-1.6c23-3.5,35.1,20.2,58.6-3.2c1.9-1.4,1.9,2,2.3,3c4.1,20.3,27.2,33.4,43.7,19.1
	c0.2-0.1,0.4-0.3,0.5-0.4c12.7-8.3,27.5-10.2,38.6-22.3c12.2-13.8,23.7-36,13.9-56.4c0-2.1-7.5-8.2-3.9-8.8
	c29.9,6.7,53.4-13.6,50.1-47.9C735.7,308.8,735.7,308.7,735.6,308.6z M629,255.1c6.4,7.4,8.4,16.1,5.6,25.3l-0.1,0.2l0,0.2
	c0.1,0.7-0.1,1.6-0.4,1.9c-0.1,0.1-0.1,0.1-0.1,0.1c-0.4-0.6-0.5-1.8-0.6-3c-0.1-2.4-0.3-5.4-3.2-7.2c-1.8-0.9-3.5-1.3-5.1-1.3
	c-4.2,0-7.4,3.2-7.8,7.7c-0.4,4.3,1.9,9.5,8,10.9c0.8,7.9,0.4,9.8,0.1,10.3c-0.8-0.2-2.6-2.2-4.1-3.8c-3-3.1-6.9-7.3-11.7-9.5
	c0.3-1.9-0.2-3.7-1.5-5.3c-1.6-2.1-4.3-3.3-6.9-3.3c-0.7,0-1.3,0.1-2,0.3c-5.1,1.7-5.1,4.9-4.9,6.2c0.7,3.7,5.2,6.9,9.8,6.9
	c0.3,0,0.5,0,0.8,0v0.1h0.3c0,0.2,0,0.4,0,0.5l-0.1,0l-0.1,0c-2.5,1.4-3.6,3.6-2.9,6c1,3.5,5.4,6.5,9.3,6.5c0.2,0,0.4,0,0.5,0h0.1
	c2,2.6,5.1,4.9,8.3,7c-0.2,0.1-0.6,0.2-1.2,0.2c-4.6,0-15.4-5.3-18.2-7.3c0.8-3.1-0.1-5.2-1.1-6.4c-1.7-2.2-4.9-3.5-8.4-3.5
	c-3.5,0-6.3,1.3-7.7,3.4c-0.9,1.3-1.5,3.7,0.4,7.2c0.1,0.1,0.1,0.2,0,0.3c0,0-0.1,0.1-0.1,0.1c-22-5.7-62-25.7-63.2-45.1
	c-0.6-8.9,7.4-16.6,23.5-22.9c11.9-3.6,18.8-11,25.4-18.1c6.6-7,12.8-13.6,23.2-15.3c21.5,0.1,23.8,12.1,26.4,26.1
	C620.9,239,622.6,248,629,255.1z M515.1,337.1c-1.8-2.4-4.3-4.5-6.8-6.5c-3.4-2.8-6.6-5.4-7.9-8.8c-1.8-8.2,1.9-15,5.3-19.2
	c6.7-8.4,18.5-14.5,29.4-15.2l0.7,0.5c9.9,6.3,36.4,23,50.8,23c2.5,0,4.6-0.5,6.2-1.5c1.7-0.1,3.3-0.4,5-1.2
	c5.5,4.1,12.3,6.1,18.9,8c1.3,0.4,2.5,0.8,3.8,1.2c0.1,0,0.1,0.1,0.2,0.2c-0.3,0.2-1.4,0.6-5.5,0.6c-2.5,0-5.5-0.2-8.1-0.3
	c-2.2-0.1-4.3-0.2-5.8-0.2c-0.4,0-0.8,0-1.1,0c-1.9-3.1-5.2-4.9-9-4.9c-3.9,0-7.2,1.9-8.3,4.5c-0.5,1.4-0.8,4,2.8,7.1
	c0,0.1,0,0.2-0.1,0.4c-4.8,0.3-9.6,3.1-11.1,6.6c-1.1,2.6-0.4,5.3,2.1,7.7l0.1,0.1l0.1,0.1c1.6,1,3.4,1.5,5.4,1.5
	c5.4,0,11-3.8,12.8-8.6c2.8-1.2,5.9-1.9,9.3-1.9c4.5,0,9.3,1,13.8,2.1c2.3,0.5,4.7,1,7,1.4c0,0.3,0,0.5-0.1,0.6
	c-0.5,0.8-2.9,0.9-4.2,1h-0.4c-1.4-1.5-3.7-2.4-6.2-2.4c-2.9,0-6.3,1.3-7.5,4.3c-0.6-0.1-1.3-0.1-1.9-0.1c-7.1,0-13.5,3.7-19.7,7.2
	c-4.4,2.6-8.6,5-12.9,5.9c-0.9,0-1.7,0-2.6,0c-24.4,0-30.4,7.1-42.2,21.2c-1.8,2.2-3.7,4.5-5.8,6.9c-0.1,0-0.1,0.1-0.2,0.1
	c-0.1,0-0.1,0-0.3-0.1c-6.5-5.2-5.5-13.1-4.5-21.4C517.5,350.1,518.4,343.1,515.1,337.1z M432.3,283.6c3.7-2.3,5.2-6.8,4.4-10
	c-0.6-2.6-2.6-4.1-5.4-4.1c-1,0-2,0.2-3.2,0.6c-2.7,1.1-4.5,3.6-4.8,6.5c-0.3,2.4,0.6,4.7,2.3,6.2c-2.2,4.5-2.6,10.2-2.9,14.4
	c-0.1,2.2-0.3,4.8-0.7,5.4c-0.5-0.2-2.1-1.4-6.6-8.1c2.5-3.1,3-6.8,1.3-10.3c-1.7-3.5-5.3-6-8.8-6c-1.9,0-5.4,0.7-7.7,5.7
	c-1,3.1,0.8,5.5,2.3,7.5c0.8,1,1.5,2,1.5,2.7c0,0,0,0-0.1,0c-0.4,0-1.2-0.6-1.7-1.3l-0.1-0.1l-0.1-0.1c-8.2-5.5-12.4-13.5-12.2-23.1
	c0.4-9.3-4.1-17.4-8.5-25.1c-7-12.5-13.1-23.2,3.7-36c4.3-2.3,8.8-3.3,14.2-3.3c4.6,0,9.2,0.7,14,1.6c5.2,0.8,10.5,1.7,16.1,1.7
	c5.5,0,10.6-0.9,15.5-2.6c6.5-1.8,12.2-2.7,17-2.7c8.6,0,14.5,2.9,17.6,8.6c9.1,17-8.7,54.6-21.1,70.8c0,0-0.1,0.1-0.1,0.1
	c0,0-0.2,0-0.3-0.2v-0.1l0-0.1c-0.8-3.9-3.2-6.1-6.6-6.1c-4.1,0-8.7,3.4-10,7.5c-1,3.1,0.1,6,3,8.2c-1,3.7-7.6,16.8-10.6,17
	c1-3.3,2-7,1.9-10.4c3.1-2,4.9-6.8,3.8-10.3c-0.8-2.3-2.7-3.7-5.3-3.7c-0.4,0-0.7,0-1.1,0.1l-0.2,0c-0.1,0-0.2-0.2-0.4-0.4
	L432.3,283.6L432.3,283.6z M430.5,298.7c0,1.4-0.2,2.6-0.5,4.1c-0.4,1.9-1.1,4.1-1.7,6.2c-0.2-0.1-0.4-0.2-0.6-0.3
	c-1.2-1.3-0.8-5.6-0.5-8.5c0.1-1.4,0.3-2.7,0.2-3.6c0.1-0.1,0.1-0.2,0.1-0.2c0.3,0.1,0.8,0.7,1.2,1
	C429.3,297.8,429.9,298.4,430.5,298.7z M402.8,304.9c-1.6-2.2-4.8-3.8-7.8-3.8c-2.1,0-3.7,0.7-4.5,2c-0.7,1-1.1,2.9,0.6,6.2
	c1.7,2.3,4.4,3.6,7.3,3.6c0.6,0.5,1.3,0.7,2,0.8c0.3,0.1,0.5,0.1,0.8,0.3c4.1,1.2,17.6,8,18.4,11.7c0,0.1,0,0.3,0,0.4
	c-6.1-3.6-12.7-4.7-18.4-5.5c-1-3.1-3.6-5-7-5c-3.5,0-6.7,1.9-7.6,4.5c-0.4,1.3-0.6,4,3.5,6.6c1,0.6,2.2,0.9,3.5,0.9
	c2.3,0,4.6-0.9,6.2-2.4l0.3,0c0.8,0.2,1.8,0.3,3,0.5c4.2,0.6,11.9,1.8,12.9,4.2c0.1,0.1,0.2,0.6-0.2,1.4c-2.8,0.1-5.5,0.7-7.9,1.8
	c-1.1-1-2.5-1.5-4-1.5c-2,0-3.9,0.9-5,2.4c-1.1,1.4-1.3,3.2-0.7,5c0.8,2.6,3.2,4.2,6.3,4.2c2.3,0,4.3-0.9,5.6-2.4
	c0.6-0.8,1.3-2.1,1.1-3.9c1.3-0.4,2.7-0.7,4-0.8c0.3,0.7,0.5,1.5,0.7,2.3c0.4,1.6,0.9,3.3,2,4.8c-0.1,7.9-0.8,16.8-4.6,23.7
	c-5.1,9.9-19.1,23.7-34,23.7c-3.8,0-7.5-0.9-11-2.7c-9.5-4.1-14.6-10.6-20.1-17.5c-3.7-4.7-7.6-9.5-13-13.6
	c-2.2-1.3-4.1-2.6-5.9-3.8c-3.9-2.6-7-5-9.3-7.4c-6.9-6.9-7.7-13.7-5.4-25.4c0.6-3.1,1.5-6.6,2.5-10.5c0.5-2.5,1.2-4.9,2-7.2
	c4.7-13.6,13.4-22.1,23.3-31.8c1.1-1.1,2.2-2.1,3.3-3.2l0.1-0.1l0.1-0.2c0.8-1.9,1.5-4.2,2.2-6.7c1.8-6.3,3.7-13.4,9-13.4
	c1.4,0,3,0.5,4.8,1.4c5.7,4.2,8.2,10.6,10.9,17.4c3.7,9.4,7.9,20.1,21.3,27.7c17.2,10.5,26.5,19.7,26.5,26.2
	c-5-4.5-10.6-7.7-16.8-9.7C404.3,307.7,403.6,306,402.8,304.9z M358.9,401.6c0.7,0.2,1.4,0.4,2.1,0.6c0.9,0.2,1.7,0.4,2.6,0.5
	c0.5,0.1,1,0.2,1.5,0.2c0.1,0,0.3,0,0.4,0.1c0.2,0,0.4,0,0.5,0.1c8.9,1.1,17.9,1.1,26.9,0.6c4.2-0.2,8.6-0.6,12.1-1.2
	c1.7-0.3,3.5-0.6,5.2-1.1c0.7-0.2,1.4-0.4,2.1-0.6c0.2-0.1,0.3-0.1,0.5-0.2c0.1,0,0.5-0.2,0.6-0.3c1.8-0.9,3.9-0.5,5,1.3
	c0.9,1.6,0.5,4.1-1.3,5c-3.6,1.8-7.6,2.5-11.5,3.1c-9.5,1.4-19.2,1.7-28.8,1.4c-4.6-0.2-9.1-0.5-13.6-1.2c-3.1-0.5-6.3-1.1-9-2.5
	c-4.2-2.2-0.5-8.5,3.7-6.3c0.3,0.2,1.2,0.5,0.2,0.1C358.3,401.4,358.6,401.5,358.9,401.6z M310.7,164.6c-0.2-1.7-0.5-3.5,0-4
	c0.1-0.2,0.5-0.2,1-0.2c0.4,0,0.9,0.1,1.4,0.2c1.3,0.5,2.7,1,4.1,1.4c2.3,0.7,4.7,1.3,7.1,1.9c3.8,0.9,7.7,1.6,11.5,2.2
	c11.7,2.1,22.7,4,32.6,10.8c2.6,1.7,5.1,3.4,7.6,5.1c4.2,2.9,8.6,5.9,13.1,8.6c2.5,3,4.6,5.8,6.4,8.5c-12.9,0.6-24.2,9.9-26.9,22.4
	c-0.1,0.5-0.2,1.1-0.3,1.5c-0.8,4.8,0.3,9.4,1.6,13.4c-2.9,0.1-5.2,0.5-7.2,1c-3.1,0.7-6.4,1-9.9,1c-12.8,0-26.2-4.6-36.1-12
	c-2.1-1.5-4-3.2-5.7-5c-0.4-0.4-0.8-0.9-1.2-1.3c-6.3-7.1-9.3-15.2-8.5-23.6c0.8-4.6,2.5-8,4.5-11.9c1.3-2.5,2.7-5.3,4-8.7
	C311.7,171.9,311.1,167.7,310.7,164.6z M335.6,155.2c4.1,0,7.9-0.8,11.5-2c3.5-1.2,6.8-2.9,9.7-4.5c0.5,0.4,1,0.8,1.4,1.1
	c0.4,0.3,1.1,0.8,1.1,1c0,0.1,0,0.5-1.3,1.7c-5,2.5-11.2,3.9-18,3.9c-3.9,0-7.8-0.4-11.6-1.3c0.1-0.2,0.1-0.5,0.2-0.5h0
	C331,155,333.4,155.2,335.6,155.2z M330.8,149.7c0.4-0.7,1.8-1,3.1-1.3c1-0.2,2.1-0.5,3-1c0.6,0.5,1.4,0.9,2.1,1.2
	c1,0.4,1.6,0.7,1.7,1.2l0,0c-0.4,0.3-2,0.8-4.8,0.8C332.9,150.7,331.2,150.1,330.8,149.7z M350.4,141.7c1.8-1.2,4.1-2.3,5.2-2.3
	c0.2,0,0.3,0,0.3,0c0,0,0.1,0.2,0.1,0.8c-0.7,1-1,2.3-0.8,3.8l-0.9,0.5c-1.4,0.7-2.8,1.4-4,2.1c-0.2,0.1-0.3,0.1-0.3,0.1
	c-0.1-0.1-0.1-0.7,0.2-1.1l0.1-0.1l0.1-0.1C350.6,144.4,350.7,143.2,350.4,141.7z M370.5,151l-0.1-0.1c-0.1-0.1-0.1-0.1-0.1-0.2
	c0-0.1,0-0.1,0.1-0.2c1.5-1,2.4-2.7,2.6-4.6c0.2-2.2-0.6-4.4-2.2-5.9c-0.5-0.5-1-0.8-1.4-1.1c-0.8-0.6-1.2-0.8-1.1-1.3
	c1.8,0.4,3.6,0.6,5.3,0.6c7.3,0,13.9-3.1,20.2-6c2.8-1.3,5.6-2.6,8.3-3.6c-1.9,2.8-2.7,6.4-2.2,10.4c0.3,2.6,1.2,4.9,2.1,6.8
	c0.3,0.7,0.6,1.3,0.9,1.9c0.3,0.6,0.5,1.2,0.8,1.7c1.1,2.5,1.7,4.4,1.1,6.5c-0.4,2-0.9,4.1-1.4,6.1c-0.8,3.1-1.6,6.4-1.9,9.7
	c-0.7,6-0.5,12.1,0.6,18.1c0.1,0.7,0.2,1.4,0.4,2.2c-1.2-0.5-2.3-1-3.3-1.5c-6.9-3.1-13.2-7.4-19.3-11.5c-4.2-2.9-8.5-5.9-13-8.4
	c-9.7-5.6-21.1-7.6-30.3-9.1c-0.1,0-0.2,0-0.2-0.3c0,0,0-0.3,0.2-0.3v-1l0,1c1.1,0.1,2.2,0.1,3.3,0.1c6.5,0,12.6-1.1,18.3-3.3
	c1.7,4,4.8,6.4,8.6,6.4c3,0,5.7-1.6,6.8-4.1C374.8,157.2,373.7,153.9,370.5,151z M321,143.8C320.9,143.8,320.9,143.8,321,143.8
	c-0.4,0-1.3,0-2.2-1.8c3.9-6.8,11.5-11.2,18.9-15.5c2.7-1.6,5.6-3.2,8.2-4.9c1.1,0.3,2.2,0.5,3.4,0.5c1.8,0,3.6-0.4,5.2-1.1
	c-0.3,0.6-0.5,1.2-0.7,1.9c-7.9,0.5-15.6,7.5-21.9,13.2C327.5,140,323.4,143.8,321,143.8z M319.6,116.7c-0.7,1.9-1.6,3.9-2.5,5.9
	c-0.3-0.1-0.4-0.2-0.5-0.3c-1.1-1.4-0.1-5.7,0.5-8.6c0.3-1.4,0.6-2.6,0.7-3.6c0.1-0.1,0.1-0.2,0.2-0.2c0.3,0.2,0.7,0.8,1,1.1
	c0.5,0.6,1,1.2,1.6,1.6C320.4,114.1,320.1,115.3,319.6,116.7z M383.7,275.3c-2.3-3.5-4.2-7.6-5.9-12.5c-1.8-5.5-4.4-13-10.5-17.8
	c-0.9-0.7-1.8-1.3-2.7-1.8c2.9-0.4,5.3-0.7,7.7-0.9c1.3,2.5,2.9,4.8,4.4,7.2c3,4.6,5.8,8.9,6.2,13.4c0.4,2,0.4,4.1,0.4,6.3v0.3
	C383.4,271.2,383.5,273.2,383.7,275.3z M316.3,233c6.7,4.6,13.2,7.7,19.8,9.4c4.7,1.1,9,1.7,13.2,1.9c-1.6,1.3-3,3.1-4.1,5.1
	c-1.3,2.4-1.9,4.7-2.3,6.7c-0.1,0.6-0.2,1.2-0.4,1.7c0,0-0.4,1.8-0.4,2.2c-0.4,2.1-1,3.8-2,5.1c-2.1-5-4.6-9.2-7.5-12.9
	c-2.2-2.7-4.4-5-6.6-7.3l-0.4-0.5c-3.4-3.5-6.6-6.8-9.2-11c-0.1-0.1-0.2-0.3-0.3-0.4c-0.1-0.2-0.2-0.4-0.4-0.6
	C315.8,232.7,316.1,232.8,316.3,233z M503.9,156.6c-2.5-0.4-5.1-0.6-7.6-0.6c-4.1,0-8.2,0.5-12.1,1.5c-1-2.7-3.5-4.3-6.8-4.3
	c-3.8,0-7.4,2.1-8.1,4.6c-0.3,1.2-0.3,3.6,3.9,5.8l0.1,0l0.1,0c1,0.4,2.1,0.6,3.2,0.6c1.8,0,3.5-0.5,5-1.5h0.2
	c0.7,0,1.3-0.2,1.9-0.4c0.3-0.1,0.5-0.2,0.9-0.2c1.9-0.6,8.3-1.6,14.2-1.6c6.1,0,7.7,1.1,8.1,1.6c0,0,0.1,0.1,0.1,0.2
	c-7.1,0.3-13.3,2.9-18.5,5.3c-1.4-1.1-3-1.6-4.6-1.6c-4.4,0-8,4.1-8,7.6c0,1.2,0.5,5,7.1,5c3.6-0.2,6.5-3.4,7.1-6.5
	c0.1,0,0.1-0.1,0.2-0.1c0.7-0.3,1.7-0.7,2.8-1.2c3.4-1.5,8.5-3.8,11.6-3.8c0.8,0,1.4,0.2,1.7,0.5c0.2,0.2,0.4,0.6,0.4,1.1
	c-2.2,1.6-4.1,3.5-5.5,5.7c-0.3-0.1-0.7-0.1-1-0.1c-2.5,0-4.8,1.6-5.6,4c-0.8,2.3,0,4.7,2.1,6.2c1.1,0.8,2.4,1.3,3.8,1.3
	c2.8,0,5.6-1.9,6.7-4.5c0.8-1.9,0.4-3.9-1-5.4c0.8-1.1,1.8-2,2.8-2.8c0.6,0.4,1.3,1,1.9,1.5c1.3,1.1,2.7,2.3,4.5,2.9
	c2.4,3.5,4.9,7.4,6.8,11.3c1.4,3,2.6,6.1,3.2,9.2c0.1,0.5,0.2,1,0.2,1.5c1.1,7.8-0.2,19.7-5.7,28.8c-3-0.9-6.2-1.4-9.5-1.6
	c-1-0.1-1.9-0.1-2.9-0.1c-1.7,0-3.5,0.1-5.2,0.3c-0.2,0-0.4,0-0.6,0.1c-5,0.5-9.8,1.8-14.4,3.7c1.5-10.1,0.2-18.2-3.8-24.3l-0.1-0.1
	c-4.6-5.9-12.2-9-22-9c-3.8,0-7.2,0.5-9.3,0.9c-1.9,0.4-3.8,0.8-5.8,1.2l-0.6,0.1c-7.1,1.5-14.4,3-21,3c-1.1,0-2.1,0-3-0.1
	c-2.5-0.4-5.1-0.9-7.6-1.3c0,0-2.1-0.4-2.9-0.6c-5.8-15.4-3.5-28-0.8-42.6c0.3-1.4,0.5-2.9,0.8-4.3l0-0.2l0-0.2
	c-0.4-2-1.3-4.3-2.2-6.7c-1.9-5.2-4.1-11.2-1.9-14.5c1.1-1.6,3.1-2.5,6.2-2.8c7.2,0.5,13.1,4.4,19.3,8.6
	c8.1,5.4,17.2,11.6,31.1,11.6c0.9,0,1.9,0,2.8-0.1c1.4,0,3.1-0.1,5-0.1C489,149.1,500.5,151.8,503.9,156.6z M495.9,133.6
	c0,0,0.1,0,0.1,0c0.4,0,0.9,0.1,1.4,0.2c0.6,0.1,1.3,0.2,1.9,0.2c0.1,0,0.3,0,0.4,0c0.8,1.2,1.4,2.3,2,3.7c0.8,1.8,1.5,4,2.2,6
	c-0.1,0.1-0.3,0.1-0.4,0.1c-1.8,0-4.2-4.1-5.7-6.8c-0.7-1.3-1.4-2.4-1.9-3.1C495.9,133.7,495.9,133.6,495.9,133.6z M522.2,133.6
	c1-2.9,2-5.9,2.7-8.8c2.6-1,4.8-3.2,6-5.8c0.2,0.7,0.5,1.3,0.8,1.9c-5.6,5.3-6.5,15.5-7.3,23.7c-0.6,6.7-1.2,13-4.1,13
	c-0.5,0-1.1-0.1-1.7-0.4C516.9,149.6,519.5,141.5,522.2,133.6z M531.8,197.6c1,3.2,1.9,6.4,3.4,9.6c2,4.6,4.6,8.1,7.7,10.7
	c3.4,3.1,7.5,5.6,12.4,7.2c-4.8,3.2-10.5,5.8-16.1,8.4l-0.7,0.4c-1.4,0.7-2.8,1.3-4.1,1.9c-2.2-1.9-4.7-3.4-6.3-4.3
	c-0.5-0.3-1.1-0.6-1.7-0.9c4.1-7.3,5.3-15.7,5.8-22.4C532.3,204.8,532.4,201.2,531.8,197.6z M528.6,239c-7,4.5-14.7,11.8-14.4,22.1
	v0.2c0.8,7.1,5.1,14.3,12.9,21.3c-4.9,1.2-9.5,3.1-13.7,5.7c-5.8,3.4-13.6,9.6-17.4,19.1c-0.5,1.1-0.9,2.3-1.3,3.4
	c-3.6,1.3-7.8,1.8-12.3,2.3c-1.6,0.2-3.3,0.4-4.9,0.7c-1,0.1-2,0.3-3.1,0.5c-2.9,0.5-5.9,1.3-8.6,2.7c-1.8,0.9-3.5,2-5,3.4
	c-1-0.5-2.2-0.8-3.4-0.8c-2.2,0-4.6,1-6.3,2.7c-1.4,1.4-2.2,3.1-2.3,4.8c-0.1,0.1-0.2,0.1-0.3,0.2c-1.1,0.7-2.7,1.8-3.7,1.8
	c-0.2,0-0.5,0-0.8-0.5c1.6-1.7,3.1-3.5,4.5-5.2c5-6,10.1-12.1,18.1-13.9c0.5,0.3,0.9,0.5,1.4,0.7c1.7,0.7,3.6,1.1,5.6,1.1
	c0.6,0,1.2,0,1.7-0.1c4.2-0.5,8.6-2.7,10-6.9l0-0.1V304c0.3-2.4-0.2-4.5-1.6-5.9c-0.8-0.9-1.9-1.5-3.1-1.9c-1-0.3-2.1-0.5-3.3-0.5
	c-1.5,0-3,0.2-4.5,0.7c-1.5,0.5-2.9,1.1-4.1,2c0.7-3.3-0.1-5.2-0.9-6.3c-1.1-1.4-2.8-2.1-4.8-2.1c-2.8,0-5.8,1.4-7.8,3.7
	c-1.8,2.1-2.6,4.8-2.2,7.6c-1.2,0.8-3,2.4-5.2,4.2c-3.4,2.9-9.1,7.7-10.8,7.8c0-0.1,0-0.2,0-0.2c0.7-1.1,1.5-2.1,2.3-3.2
	c3.9-5.4,7.8-10.9,9.5-17.4c1.8-0.4,3.3-1.1,4.6-2c12.4-1.3,23.4-29.5,30.6-50.7l0.2-0.7c4.3-2.8,9.6-4.8,15.1-5.8
	c2.7-0.5,5.5-0.7,8.3-0.7h0.1C516.2,232.5,523.5,234.8,528.6,239z M468.7,325.9l-0.8,0.5c-1.3,0.9-2.6,1.8-3.7,2.6
	c-0.2,0.1-0.3,0.1-0.3,0.1c-0.1-0.1-0.2-0.6,0.1-1.1l0.1-0.1l0-0.2c0.3-1.2,0.1-2.6-0.3-3.7c1.8-1.5,4-2.9,5-2.9c0.1,0,0.1,0,0.1,0
	c0,0,0.2,0.2,0.2,0.8C468.5,323.1,468.4,324.4,468.7,325.9z M455.2,333.2c-0.5,0.6-3.5,1.5-6.9,1.5c-1.8,0-2.7-0.3-2.9-0.5
	c0.3-0.7,1.6-1.2,2.9-1.6c1-0.4,2-0.7,2.8-1.3c0.7,0.5,1.5,0.7,2.2,0.9C454.3,332.5,454.9,332.7,455.2,333.2L455.2,333.2z
	 M449.2,310.4c2.5-1.9,5.1-3.8,7.5-5.9c0.7,0.1,1.3,0.2,2,0.2c2.2,0,4.5-0.6,6.4-1.8c-0.2,0.7-0.4,1.3-0.4,2
	c-7.7,1.4-14.5,9.3-20,15.7c-3.9,4.6-7.6,8.9-10.1,8.9c-0.3,0-1.1,0-2.1-1.6C435.4,320.7,442.4,315.5,449.2,310.4z M443.9,339.2
	C443.9,339.2,443.9,339.2,443.9,339.2c1.1,0.1,2.2,0.1,3.3,0.1c4.5,0,8.6-1,12.3-2.5c3.3-1.3,6.4-3.1,9.2-5c0.8-0.6,1.6-1.1,2.4-1.7
	c0.6,0.4,1.1,0.7,1.6,0.9c0.5,0.2,1.2,0.6,1.2,0.8c0,0.1,0,0.5-1.1,1.8c-1.7,1.1-3.6,2.1-5.6,3c-2.6,1.1-5.4,1.9-8.4,2.4
	c-3,0.6-6.2,0.9-9.5,0.9c-1.8,0-3.7-0.1-5.5-0.3C443.8,339.5,443.8,339.3,443.9,339.2z M452.6,344.6c1.6-0.1,3.2-0.2,4.7-0.5
	c2.8-0.4,5.6-1,8.2-1.9c2.8-0.9,5.5-2,8.1-3.4c2,3.4,5,5.4,8.4,5.4c3.2,0,6.1-1.9,7.1-4.5c0.5-1.4,1.1-5.1-4.1-8.9l-0.1,0l-0.1,0
	c-0.1-0.1-0.1-0.1-0.1-0.2c0-0.1,0-0.1,0.1-0.2c1.3-1.2,2-2.9,1.9-4.8c-0.1-2.2-1.2-4.3-2.9-5.6c-0.5-0.4-1.1-0.7-1.5-0.9
	c-0.9-0.5-1.2-0.7-1.3-1.2c0.8,0.1,1.6,0.1,2.4,0.1c3.3,0,6.6-0.7,10.1-2c-0.3,2.7,0,5.1,0.8,7.4c1.9,5.1,6.3,8.8,10.1,12l0.7,0.6
	c2.7,2.2,4.7,3.8,5.4,6c1.2,3.7,0.6,8.3-0.1,13.3c-0.4,2.4-0.8,5.3-0.9,8.2c-4-1.8-7.8-3.8-11.6-5.8c-4.6-2.4-9.2-4.8-14.1-6.9
	c-6.3-2.7-13-4-19.5-4.7c-2.5-0.3-5-0.5-7.4-0.6c-1.5-0.1-3-0.2-4.4-0.2c-0.1,0-0.2,0-0.2-0.3C452.4,344.9,452.4,344.6,452.6,344.6z
	 M619.3,305.1c-1.2-1-2.2-1.8-3.1-2.9c0.3-0.6,0.4-1.4,0.5-2.2c0.1-0.4,0.1-1.2,0.3-1.5c0.1,0,0.2,0,0.3,0.1
	c0.6,0.7,1.5,1.7,2.6,2.7c2.1,2.1,5.4,5.3,5.1,7c0,0.1-0.1,0.3-0.2,0.5C622.8,307.7,620.9,306.4,619.3,305.1z M627,338.7
	c0.4,0,0.6,0.1,0.7,0.1c0,0.1-0.2,0.5-0.9,1.2c-1.9,1.8-5.7,3.8-7.3,3.8c0,0-0.1,0-0.1,0l0,0c-0.1-0.5,0.2-1,0.8-1.8
	c0.4-0.6,0.9-1.3,1.1-2.1c1,0,2-0.4,3-0.7C625.4,339,626.3,338.7,627,338.7z M605.5,341.8c0.4,0,0.8,0,1.2,0c0.6,1.3,1.3,2.4,2.2,3
	l0.1,0.1l0.1,0.1c0.5,0.2,0.8,0.7,0.8,0.8c0,0-0.1,0.1-0.2,0.1c-1.6,0.1-3.4,0.2-5.1,0.3l-0.6,0c-0.7-1.4-1.6-2.3-2.8-2.8
	c-0.4-0.5-0.4-0.7-0.4-0.7C600.9,342.4,601.9,341.8,605.5,341.8z M604.4,352.5c0.2-0.5,0.4-1,0.6-1.6c9.3-0.2,19.1-1.5,27.2-9
	c0.1,0,0.3,0.2,0.5,0.3c-7.8,7.3-17.7,12-26.7,12.5c-1.7-0.4-2-0.7-2-0.8C603.9,353.7,604.2,353,604.4,352.5z M630.1,329.4
	c-2.7,0-6.6-0.8-10.7-1.6c-5.2-1.1-11.1-2.3-16.5-2.3c-3.9,0-7,0.6-9.5,1.9c-0.5-0.5-1-0.9-1.6-1.3c0,0,0,0,0-0.1
	c3-0.4,5.8-1.7,7.5-3.7c2.5,0.2,5,0.2,7.1,0.2l5.1,0c8,0,15.7,0.3,22.1,3.8c0.1,1,0,1.8-0.4,2.3
	C632.8,329.1,631.8,329.4,630.1,329.4z M638.9,169.5c4.7,9.9-2.7,15.6-10.5,21.7c-4,3.1-8.2,6.3-10.7,10.2c-1,1.3-2.1,2.6-3.3,3.8
	c-0.1-0.1-0.1-0.1-0.2-0.1c-5.4-4.3-12.2-6.6-19.2-6.6c-6.3,0-12.3,1.9-17.1,5.4c-5,3.3-8.9,7.6-12.5,11.9c-1.3,1.5-2.9,3.3-4.4,4.9
	c-7.5-2-13.5-5.8-17.8-11.4c-2.6-4-3.7-7.6-4.9-11.7c-0.8-2.7-1.7-5.7-3-9.1c-1.2-4.3-4.6-7.1-7-9.2c-1.4-1.2-2.8-2.4-2.8-3.1
	c0-0.2,0.2-0.7,1.7-1.5c7.5-2.5,14.3-6.3,20.9-10c10.2-5.8,19.8-11.2,32-12.3c3.1-0.4,6.2-0.6,9.2-0.9c5.2-0.5,10.5-1,15.8-1.8
	C617.6,151.7,632.7,155.9,638.9,169.5z M534.8,160.3c10-5.1,14.2-13.5,17.1-22h0.2c0.6,0,1.1,0,1.6-0.1c0.4,0,0.7-0.1,1-0.1
	c0.5,0,0.5,0.1,0.6,0.1c0,0,0.3,0.4,0.2,2.1c-3.2,8-10.8,15.6-20.5,20.5C534.9,160.6,534.8,160.4,534.8,160.3z M615.6,68.3
	c4.1-3.8,8.6-5.9,13.1-5.9c5.6,0,10.7,3.1,13.7,8.2c3.6,6.1,3.1,13.7-1.1,20.1c-5.1,6.5-4.4,14.2-3.7,21.7
	c0.7,7.1,1.3,13.8-3.1,19.1c-3.5,5-10.9,8.9-21.8,11.5c-7.3,2-15,2.7-22.5,3.4c-5.1,0.5-10.5,0.9-15.7,1.8
	c-11.1,1.9-21.1,7.6-29.2,12.2c-0.1,0-0.2-0.1-0.3-0.3c0-0.1,0-0.2,0.1-0.2c6.1-4.5,10.8-9.8,14-16c1.8,0.9,3.6,1.4,5.3,1.4
	c4.9,0,8.1-3.7,8.2-7.1c0.1-3-2.2-6.6-8.9-7h-0.1l-0.1,0c-0.1,0-0.2-0.1-0.2-0.1c0,0-0.1-0.1,0-0.2c0.4-1.7,0-3.5-1.2-5
	c-1.4-1.8-3.5-2.9-5.7-3.1c-0.2,0-0.4,0-0.5,0c-0.4,0-0.8,0-1.2,0.1c-0.3,0-0.6,0-0.8,0c-0.4,0-0.6,0-0.9-0.4
	c8.5-4.4,12-12.4,15.4-20.1c3.5-8,6.8-15.4,15.2-19c3.2-1.4,6.5-2.5,9.7-3.7C601,77.2,609.1,74.4,615.6,68.3z M542.8,31.9
	c4,0,7.7,0.9,11,2.7c3,2.2,4.7,5.9,6.5,9.8c1.3,2.8,2.6,5.7,4.6,8.2c4.9,4.7,12.2,6,19.2,7.2c8.6,1.5,16.8,3,20.1,10.5
	c0.1,0.1,0,0.2,0,0.3c-3.1,1.2-6,2.3-8.7,3.3c-18.7,6.9-27.2,10.1-34.6,34.4c-2.2,3.6-5.9,6.7-9.8,9.9c-5.9,4.9-12,10.1-13.6,17.5
	c-2.5,0.2-4.7,1.7-6,4.1c-1.4,2.6-1.4,5.6,0,7.8c0,0.1-0.1,0.2-0.1,0.3c-0.5,1.3-1.4,3.6-2.4,3.6c-0.1,0-0.3,0-0.5-0.1
	c0.3-2.2,0.5-4.5,0.7-6.8c0.6-7.6,1.2-15.4,6.7-21.1c3.8-0.1,7.9-2.2,10.5-5.5c2.2-2.8,2.9-6,2-8.9l0-0.1l0-0.1
	c-1.9-3.5-4.6-4.2-6.5-4.2c-3.7,0-7.9,2.9-10.1,7.1c-0.2,0.5-0.5,1-0.6,1.4c-1.9-4.3-4.7-5-6.3-5c-2.8,0-5.6,2.1-6.9,5.3
	c-1.6,3.7-0.9,7.6,1.9,10.5c-0.5,1.3-1.1,3.6-1.8,6.3c-1.1,4-3,11.4-4.3,12.3c-0.1,0-0.1-0.1-0.1-0.2c0-1.3,0-2.6,0-3.9
	c0-6.5,0-13.3-2.4-19.5c1.2-1.3,2.1-2.6,2.6-4.1c9.5-7.7,1.9-36.9-4.6-58.2l-0.2-0.8C514.4,42.6,529.5,31.9,542.8,31.9z M456.4,49.4
	c8.9-10.3,17.2-15.5,24.7-15.5c4.5,0,8.8,2,12.7,5.8c13.6,13.4,19.8,46.9,19.1,65.9c0,0.2-0.2,0.2-0.2,0.2c-0.1,0-0.2-0.1-0.2-0.1
	l0-0.1l-0.1-0.1c-1.8-1.7-3.7-2.6-5.7-2.6c-4.6,0-7.7,5-7.7,9.7c0,4.7,3,7.7,7.7,8c1.2,3.4,3.5,16.3,1.5,19.5
	c-0.1,0.1-0.1,0.2-0.2,0.3c-1.1-3.3-2.5-6.9-4.6-9.6c1.1-2.5,0.5-6.2-1.3-8.8c-1.3-1.9-3.1-3-5-3c-1.4,0-2.8,0.6-4.1,1.7l-0.1,0.1
	l-0.1,0.1c-0.1,0-0.3-0.1-0.5-0.1l0.1-0.2l-0.1,0c1.2-2.7,0.9-6.1-0.7-8.8c-1.3-2.2-3.3-3.4-5.3-3.4c-1.3,0-3.4,0.5-5.4,3.2
	c-1.5,2.3-1.6,5.4-0.1,8c1.2,2.1,3.2,3.5,5.5,3.9c0.8,4.9,3.8,9.8,6.1,13.4c1.1,1.8,2.6,4.1,2.6,4.9c-0.1,0-0.2,0-0.3,0
	c-1.5,0-4.7-1-10-3.2c0.2-3.5-1.2-5.8-2.5-7.2c-2.1-2.2-5.2-3.6-8.4-3.6c-2.7,0-4.9,0.9-6.4,2.6c-1.1,1.3-2.3,3.6-1.5,7.6
	c0.5,1.4,1.4,2.6,2.9,3.5c0.7,0.8,1.3,1.7,1.8,2.6c-9.2-0.6-16.7-4.9-21.8-12.5c-5.2-7.9-13.7-12.1-21.9-16.2
	c-13.2-6.5-24.6-12.2-18.3-31.8c4.8-9,13.3-12.6,22.3-16.5C439.9,63.2,449.3,59.1,456.4,49.4z M400.4,55.6c9.7,0,18.3,2.9,23.9,8
	c-3.9,1.6-8.2,3.5-11.8,6.3c-10.9,7.3-14.9,21.3-9.6,33.3c0.2,0.5,0.5,1,0.7,1.4c2.4,5,6.8,8.5,11.1,11.6c3.6,2.4,7.6,4.1,11.4,5.7
	c4.9,2.1,9.5,4,12.6,7.2c-1.5-0.5-3-1-4.3-1.5c-9.2-3.2-15.8-5.5-22.9-5.5c-7.8,0-15.9,2.9-26.9,9.6c-4.1,1.3-9,1.3-14.2,1.3
	c-7.9,0-16,0-22.3,4.6c-1.2-0.8-2.6-1.3-4.2-1.3c-3.7,0-7.8,2.6-8.6,6.4c-0.1,0-0.2,0.1-0.3,0.2c-1.1,0.6-2.7,1.4-3.7,1.4
	c0,0,0,0,0,0c-0.2,0-0.6,0-0.9-0.6c1.8-1.5,3.5-3.1,5.2-4.7c5.7-5.3,11.6-10.8,19.7-11.7c2.2,1.7,5.4,2.7,8.6,2.7
	c4.9,0,9-2.2,10.7-5.7l0-0.1l0-0.1c0.8-3.2-0.1-5.2-1.1-6.4c-1.5-1.9-4.3-2.9-7.6-2.9c-2.5,0-5.1,0.6-7.3,1.8
	c1.2-3.4,0.5-5.5-0.3-6.7c-1.1-1.6-3-2.5-5.3-2.5c-2.7,0-5.7,1.3-7.6,3.3c-1.3,1.3-2.8,3.6-2.8,6.9c-1.3,0.7-3.3,2-5.7,3.6
	c-3.9,2.5-9.7,6.4-11.8,6.5c0-0.1,0-0.1,0-0.2c0.9-1,1.8-1.9,2.7-2.9c4.5-4.9,9.2-9.9,11.7-16.2c1.8-0.2,3.4-0.7,4.9-1.5
	c0,0,0.1,0,0.1,0c12.5,0,26.9-26.6,36.7-46.7l0.4-0.7C387,57.1,393.6,55.6,400.4,55.6z M286.8,17.6c3.3-1.3,6.7-1.9,10.3-1.9
	c6,0,11.7,1.7,17.9,3.4c6.7,1.9,13.7,3.9,21.6,3.9c3.4,0,6.7-0.4,10-1.1c4.3-0.7,8.3-1,11.8-1c11.2,0,18.4,3.4,21.4,10
	c8,17.7-14.8,53.6-29.7,68.7c0,0-0.1,0.1-0.1,0.1c-0.1,0-0.1,0-0.2-0.1c0,0-0.1-0.1-0.1-0.2v-0.1c-0.3-4.3-2.8-6.9-6.6-6.9
	c-4.1,0-8.7,3-10.2,6.8c-1.1,2.9-0.4,5.7,2.1,8c-1.5,3.7-9.5,15.6-12.7,15.7c1.4-3.2,2.9-6.7,3.2-10.1c3.5-1.7,5.9-6.5,5-10.2
	c-0.6-2.5-2.7-4-5.7-4h-0.1l-0.2,0c-0.1,0-0.2-0.2-0.3-0.4l0.2-0.1l-0.1-0.1c4.1-1.9,6.2-6.5,5.6-9.9c-0.5-2.7-2.6-4.4-5.7-4.4
	c-0.7,0-1.5,0.1-2.3,0.3c-2.8,0.8-4.9,3-5.6,5.9c-0.6,2.4,0,4.7,1.4,6.4c-2.8,4.2-3.9,9.8-4.7,13.9c-0.4,2.1-0.9,4.7-1.4,5.3
	c-0.5-0.2-1.9-1.7-5.6-8.8c3-2.9,3.9-6.9,2.4-10.7c-1.5-3.8-5.1-6.4-8.6-6.4c-2,0-5,0.8-7.5,4.8c-1.4,2.9,0.1,5.6,1.3,7.7
	c0.6,1.1,1.1,2.8,1.1,2.9c-0.3,0-1.1-0.7-1.5-1.5l-0.1-0.2l-0.1-0.1c-7.4-6.4-10.6-14.8-9.2-24.3c1.6-9.2-1.9-17.7-5.2-25.9
	C273.2,39.8,268.6,28.4,286.8,17.6z M261,198c-4.9,0-9.4-1.4-13.5-4.2c-8.9-5.2-13.2-12.2-17.7-19.7c-3.1-5.1-6.3-10.3-11.2-15.1
	c-22.1-17.5-22-23.9-11.9-48.9c6.1-17.4,17.2-25.9,30.1-35.7c1.2-0.9,2.4-1.8,3.6-2.8l0.1-0.1l0.1-0.2c1.1-1.8,2-4,3-6.4
	c2.4-5.8,5.2-12.3,10-12.3c1.5,0,3.3,0.7,5.2,1.9c5.1,4.9,6.8,11.5,8.5,18.6c2.5,9.8,5.3,20.9,17.6,29.9
	c15.7,12.4,23.8,22.7,22.9,29.1c-4.4-5-9.6-8.9-15.4-11.6c0.8-1.9,0.6-3.8-0.4-5.5c-1.6-2.5-4.9-4.4-8-4.4c-1.7,0-3.1,0.6-4,1.7
	c-1,1.4-1.1,3.4-0.1,5.9l0,0.1l0,0.1c1.4,2.5,3.9,4.1,6.8,4.5c0.6,0.5,1.2,0.8,1.8,1c0.2,0.1,0.5,0.2,0.8,0.4
	c3.9,1.7,16.4,10,16.8,13.8c0,0.2,0,0.3,0,0.4c-5.6-4.2-11.9-6.2-17.6-7.6c-0.7-4.3-4.4-5.8-7.4-5.8c-3.3,0-6.2,1.6-7.1,3.9
	c-0.5,1.2-0.8,3.7,2.8,6.7c1.2,0.9,2.7,1.3,4.4,1.3c2,0,4-0.6,5.4-1.7c0.1,0,0.2,0,0.3,0.1c0.7,0.2,1.8,0.5,2.9,0.8
	c4.1,1.1,11.6,3.2,12.3,5.6c0.1,0.2,0.2,0.6-0.4,1.4c-0.6,0-1.2-0.1-1.8-0.1c-2.2,0-4.3,0.3-6.3,0.9c-1.1-1.3-2.7-2-4.5-2
	c-1.8,0-3.6,0.8-4.8,2.1c-1.1,1.3-1.5,2.9-1.1,4.6c0.6,3.4,3.8,4.9,6.6,4.9c2.1,0,3.9-0.7,5.1-2c0.9-1,1.3-2.1,1.3-3.5
	c1.3-0.3,2.6-0.4,3.9-0.4h0.2c0.2,0.7,0.3,1.5,0.4,2.3c0.2,1.7,0.5,3.4,1.4,5c-1.1,7.8-2.9,16.6-7.6,23
	C288.2,187.9,274.1,198,261,198z M265.8,278.9c0-3,0.1-6,0.2-9c0.1-4.9,0.3-9.9,0-15c3.7-11.6,9.9-25.3,24.9-29.6
	c1.7-0.5,3.4-0.8,4.9-0.8c5.8,0,9.7,3.7,13.2,8.5c1.1,1.5,2.2,3.1,3.3,4.8c1.2,1.8,2.4,3.7,3.7,5.4c1.7,2.3,3.5,4.3,5.6,5.9
	c5.7,5.1,10.4,12.4,13.3,20.6c0,0.1-0.6,0.5-0.6,0.5c-2.5,2.2-5.1,4.4-7.3,7c-3.6,4-6.7,8.4-9.2,13.2c-0.4,0.7-0.7,1.4-1.1,2.1
	c-1.9,3.9-3.3,7.9-4.5,11.9c-0.5,1.8-1.1,3.6-1.6,5.3l-0.2,0.8c-0.5,1.9-1,3.9-1.5,6c-0.5,2.5-0.9,4.9-1.2,7.2
	c-2.9,0.4-6.1,0.9-9.8,1.8c-4.6,0.6-8,3.4-10.4,5.5c-1.3,1.1-2.7,2.3-3.4,2.3c-0.6,0-1.2-1.1-1.5-1.8c-1.7-7.4-4.9-14.3-7.9-20.9
	C270,300.3,265.5,290.5,265.8,278.9z M179.4,217.6c2.8-5.4,9.1-8.9,16.1-8.9c4.8,0,9.6,1.7,13.6,4.8c6.2,5.7,14.4,5.9,22.2,6.2
	c7.5,0.2,14.5,0.4,19.6,5.2c4.8,4,8,11.3,9.4,22c1.3,7.2,1,14.5,0.8,21.6c-0.1,4.9-0.3,10,0,15c0.6,10.7,5.3,20.9,9.2,29
	c0,0.1,0,0.1,0,0.1c-0.1,0.1-0.3,0.2-0.4,0.2c-0.1,0-0.1,0-0.2-0.1c-3.9-6.3-9-11.4-15-15.2c2.3-3.2,2.8-6.5,1.3-9.4
	c-1.3-2.5-3.9-4.2-6.6-4.2c-3.7,0-6.5,2.9-7.4,7.6l0,0.1v0.1c0,0.1-0.1,0.2-0.3,0.2c0,0,0,0,0,0c-0.7-0.2-1.3-0.3-2-0.3
	c-3.4,0-6.6,2.6-7.3,5.9c-0.1,0.6-0.1,1.2-0.2,1.7c0,1,0,1.4-0.5,1.6c-3.6-8.6-11.5-12.9-19.1-17c-7.8-4.2-15.3-8.3-18-16.7
	c-1.1-3.2-1.9-6.4-2.6-9.6c-1.9-7.7-3.9-15.7-9.4-22.5C177.8,229.2,176.6,223,179.4,217.6z M257.8,317.8c-0.2-1-0.3-1.6,0-2l0,0
	c0.6,0.2,2.2,1.5,3.9,4c1.4,2.1,1.6,3.4,1.6,3.8c0,0-0.1,0-0.1,0c-0.8,0-1.8-0.9-2.8-1.7c-0.8-0.7-1.6-1.3-2.5-1.8
	C258.1,319.4,258,318.6,257.8,317.8z M263.9,335.1c0.3,0.6,0.1,1.4-0.6,2.4c-0.8,0.1-1.5,0.1-2.3,0.1c-7.3,0-14.7-3.2-21.8-6.3
	c-2.9-1.3-5.9-2.6-8.9-3.6c-0.8-2.6-2.8-4.9-5.3-6.4c0.7-0.1,1.4-0.3,2.1-0.6c4.8,5.9,15.3,8.1,23.8,9.8
	C257.1,331.8,263,333,263.9,335.1z M247.8,303.7c0.1-0.6,0.1-1.2,0.1-1.7c0.1-1.5,0.1-1.5,0.9-1.5c0.4,0,0.9,0.1,1.6,0.2
	c8,4,15,12.1,18.9,21.8c-0.2,0.1-0.4,0.1-0.5,0.1h-0.1C264.5,312.6,256.2,307.6,247.8,303.7z M250.1,310.3c-0.1,0.1-0.5,0.5-1.1,0.5
	h-0.2l-0.1,0c-1.3,0.3-2.5,1.1-3.3,1.9c-2.9-1.1-5-2.5-5-3c0,0,0.1-0.2,0.7-0.5c1.3,0,2.6-0.5,3.8-1.5c0,0,3.7,1.8,4.9,2.4
	C250,310.2,250.1,310.3,250.1,310.3z M136.4,308.9c-1.2-5.2-1.7-12.8,3.5-19.6c2.7-2.6,6.7-3.7,11-4.9c3.1-0.9,6.3-1.8,9.1-3.4
	c5.5-4.1,7.7-10.8,9.9-17.3c2.6-8,5.1-15.5,13.3-17.7l0.1,0l0,0c0.1,0,0.1,0,0.2,0h0c0.9,3.1,1.7,6,2.4,8.6
	c5,18.5,7.2,26.9,31.7,36.9c3.5,2.5,6.2,6.4,9.2,10.4c4.5,6.2,9,12.5,16.6,15c-0.1,1.6,0.5,3.2,1.7,4.6c1.7,1.9,4.3,3.1,6.9,3.1
	c1.1,0,2.1-0.2,3-0.6c0.1,0.1,0.2,0.1,0.3,0.1c1.2,0.6,3.3,1.6,3.5,2.5c0,0.2,0,0.4-0.2,0.6c-2.3-0.6-4.7-1-7-1.4
	c-7.8-1.5-15.9-3-21.2-8.9c0.3-3.2-1-6.9-3.6-9.7c-2.4-2.6-5.3-4-8.4-4c-0.5,0-1,0-1.5,0.1l-0.1,0l-0.1,0c-3.9,1.4-5.8,4.2-5.1,7.8
	c0.6,3.4,3.7,7.1,7.5,8.9c-5.8,1.6-6.2,4.9-6,6.4c0.4,4,5,7.4,9.9,7.4c2.1,0,4.2-0.6,6-1.8c1.3,0.7,3.6,1.5,6.3,2.5
	c4,1.5,11.5,4.3,12.3,5.6c0,0.1-0.1,0.1-0.2,0.1c-1.3-0.1-2.7-0.3-4.1-0.5c-3.9-0.5-8-1-12.1-1c-3.1,0-5.9,0.3-8.6,0.9
	c-1.2-1.3-2.5-2.3-4-3c-3-4.3-10.7-6.4-23.5-6.4c-13.8,0-30,2.5-37.7,3.7l-0.9,0.1C146.9,329.4,138.9,319.2,136.4,308.9z
	 M208.7,419.2c-6.4,8.8-11.9,16.5-22.4,16.5c-3.8,0-8-1-12.9-3c-8.8-5.6-11.6-14.1-14.5-23.1c-3-9.1-6.1-18.5-15.3-26.4
	c-11.5-11.6-15.6-21.3-12.1-29.1c6.2-13.8,35.3-18.7,58.2-18.7c7.1,0,13.8,0.4,19.3,1.3c0.1,0,0.2,0.1,0.2,0.2c0,0.1,0,0.2-0.1,0.2
	l-0.1,0l-0.1,0.1c-4,3-3.7,6-3.1,7.5c1.2,3.4,5.7,6,10.2,6c4.3,0,7.2-2.4,8-6.4c1.6-0.3,5.6-0.7,9.9-0.7c7,0,10.2,1,10.9,1.8
	c-3.6,0.7-7.5,1.5-10.6,3.2c-1.2-0.6-2.6-1-4.2-1c-3.6,0-7,1.6-8.2,3.9c-0.7,1.2-1.1,3.2,0.7,5.6l0.1,0.1c0,0.1-0.1,0.3-0.2,0.5
	l-0.2-0.1l0,0.1c-1.5-0.8-3.2-1.2-5-1.2c-3.7,0-7.1,1.7-8.1,4.2c-0.5,1.2-0.9,3.7,2.3,6.7c1.4,1.1,3.2,1.7,5.1,1.7
	c3.3,0,6.9-1.8,8-5.3c5.2-0.2,10.7-2.4,14.7-4.1c2.3-1,4.4-1.8,5.4-1.8h0.1c0.1,0.6-0.4,2.5-4.5,9.3c-0.7-0.1-1.4-0.2-2.1-0.2
	c-6.3,0-10.6,5.3-10.6,10.3c0,2.1,0.7,4,2.1,5.3c1.5,1.5,3.8,2.3,6.6,2.3c0.3,0,0.6,0,1,0c3.3-0.5,4.8-3.2,5.9-5.3
	c0.6-1.1,1.2-2.2,1.8-2.5c0,0,0,0,0.1,0.1c0.2,0.3,0,1.3-0.4,2l-0.1,0.2l0,0.2c-1.4,9.5-6.9,16.7-16,20.9
	C219.4,404.4,214,411.9,208.7,419.2z M335.1,404.9c-0.1,0.5-0.3,1.1-0.4,1.7c-0.4,3.5-0.8,6.6-1.2,9.3c-0.2,1.2-0.5,2.4-0.7,3.5
	c-0.6,2.7-1.4,5-2.3,7c-0.7,1.7-1.6,3.1-2.6,4.5c-0.5,0.6-1,1.2-1.6,1.8c-5.1,5.3-13.4,7.7-27.3,10.8c-5.8,1.5-11.3,2.3-16.9,2.3
	c-10.8,0-20.2-2.7-31-5.9c-1.5-0.4-3-0.9-4.5-1.3l-0.2-0.1l-0.2,0c-2.1,0.2-4.6,0.7-7.3,1.2c-3.4,0.7-7,1.4-10,1.4
	c-2.6,0-4.5-0.6-5.7-1.7c-1.2-1.2-1.8-3.2-1.8-5.9c1.4-6.7,6.2-11.8,11.3-17.2c7.1-7.5,15.1-15.9,16.1-30.7
	c1.2-11.9,3.3-21.1,6.2-27c1.2-2.6,2.6-4.6,4.1-5.9c0.7-0.6,1.4-1.1,2.1-1.4c-0.3,0.9-0.5,1.8-0.7,2.7c-0.7,2.9-1.1,5.8-1.1,8.7
	c-0.1,2.5,0.1,4.9,0.5,7.3c-4.1,0.8-5.5,4.5-5.4,7.5c0.1,3.4,2.2,6.9,5.3,6.9c1.8,0,3.5-1.1,5.1-3.3l0-0.1l0-0.1
	c1.4-2.5,1.4-5.3,0-7.9c0.1-0.7,0-1.4-0.1-2.1c0-0.2-0.1-0.5-0.1-0.8c-0.1-0.6-0.2-1.5-0.3-2.7c-0.1-2.6-0.1-6.2,0.2-9.6
	c0.4-3.6,1.1-7,2.3-8.4c0.3-0.3,0.5-0.4,0.7-0.5c-0.4,4.8,0.4,9.2,1.7,13.2c0.5,1.7,1.1,3.3,1.7,4.9c-1.4,1.2-2.2,2.8-2.3,4.4
	c-0.1,0.9,0,1.9,0.4,2.9c1.1,3,4.3,5.4,7.2,5.4c0.2,0,0.5,0,0.8-0.1c1.5-0.2,3.8-1.3,4.5-5.6c0-0.1,0-0.3,0.1-0.5
	c0.2-3.4-2.8-6.5-5.9-7.5l-0.1-0.2c-0.2-0.7-0.5-1.7-0.9-2.9c-1.3-3.7-3.7-10.7-2.1-12.8c0.2-0.2,0.5-0.5,1.4-0.5h0.1
	c1.4,2.3,3.2,4.3,5.2,5.9c-0.5,1.6-0.2,3.2,0.7,4.6c1.1,1.7,3.1,2.7,5.1,2.7c1.6,0,3-0.6,4.2-1.7c1.9-1.7,2.4-4.2,1.3-6.6
	c-1.1-2.5-3.5-4.3-6-4.3c-1.1,0-2.2,0.3-3.1,1c-1-1-1.9-2-2.6-3c0.5-0.6,1.2-1.1,1.8-1.6c1.3-1.1,2.7-2.3,3.5-3.9
	c7.2-3.4,15.6-6.8,23.7-7c1.5,9.9,6.6,14.2,14.6,19.3c0.7,0.4,1.4,0.8,2.1,1.3c2.6,1.7,5,3.5,7.2,5.3c4.3,3.5,7.8,7.4,11.1,11.8
	c1.2,1.6,2.3,3,3.6,4.5c-1.4,3.9-3.3,7.7-5.1,11.3c-0.1,0.2-0.2,0.4-0.3,0.5c-1.5,3-3,6-4.3,9.3
	C336.2,400.9,335.6,402.9,335.1,404.9z M488.3,446.7c-1,4.1-1.5,8.3-1.7,12.6c-0.2,5,0,10.2,0.8,15.6c-7.2,6.4-17.7,11.2-32.1,14.6
	c-11,2.6-22.7,3.9-34.9,3.9c-4.9,0-10-0.2-15-0.6c-9.7-0.8-19.3-2.6-28.5-5.1c-0.5-0.1-0.9-0.2-1.4-0.2c-2.6,0-4.2,2.1-4.5,4.2
	c-0.3,2,0.6,4.4,3.3,5.1c14.3,4.1,29.6,6.1,45.4,6.1c3.1,0,6.2-0.1,9.2-0.2c18.9-1,34.8-4.4,48.6-10.6c4.4-2,8.3-4.2,11.8-6.6
	c0.5,2.2,1.2,4.5,1.8,6.8c-13.4,12.7-33.2,20.5-55.8,21.9c-3.5,0.2-7,0.3-10.5,0.2c-6.2-0.2-12.4-0.9-18.3-2.3
	c-0.5-0.1-1-0.2-1.4-0.1c-2.5,0.2-4,2.3-4.1,4.4c-0.2,2,0.9,4.4,3.6,5c10,2.3,20.4,3.1,31.1,2.4c15.8-1,31.2-5.3,44.6-12.3
	c5-2.7,9.7-5.8,14.1-9.5c3.8,10.2,8.9,21.1,15.5,32.6c6.8,12,14.6,23.8,22.1,35.2c9.8,14.8,19.8,30.1,27.8,45.9
	c22.4,44.3,20.9,93-3.9,130.4c-22.6,34-66.7,48.6-91,54.3c-23.8,5.6-46.7,8.4-68.3,8.4c-1.9,0-3.7,0-5.5-0.1
	c-50-1.1-112.5-17.9-126.2-91.8l-0.1-0.5c-8.7-41.1,3.7-86.4,34.8-127.6c0,0,0.1-0.2,0.3-0.4c21.8-30.6,44.8-67,50.2-104.5
	c1-6.9,1.3-13.5,0.9-19.9c-0.3-5.3-1.1-10.4-2.4-15.2c-1.9-7.1-4.8-13.9-8.7-20.1c-0.7-1-1.3-2.1-2.1-3c0.7-2.8,1.1-5.8,1.4-9.1
	c34.4,11.1,69.5,8.5,97.9-0.4c0.4-0.1,1.5,0.8,1.9,1.1c4.6,2.4,9.2,4.7,14.2,6c5.2,1.4,10.6,1.9,16,1.9c5.5,0.1,11-0.3,16.5-1
	c2.8-0.4,5.6-0.9,8.3-1.5c1.3-0.3,2.7-0.6,4-1c1-0.3,2.5-0.4,3.4-0.9C495.1,428.2,490.5,437.1,488.3,446.7z M500.1,408.1
	c0.7,2.4,1.7,4.7,3.2,6.8l-0.3,0c-5.2,0.4-10.5,0.9-14.8,2.7c-4.9,1.7-10.4,2.5-16.2,2.5c-8.3,0-16.8-1.7-24.5-5
	c-2.4-1-4.6-2.1-6.8-3.4c-3-1.8-5.8-3.8-8.2-6.1c-6.1-5.7-10.1-13-10.5-21.5c0.1-2.9,0.6-5.3,1.4-7.7c0.5-1.5,1-3,1.5-4.6
	c0.9-2.6,2-5.6,2.8-9.2c1-2.7,0.9-5.3,0.5-7.6c-0.2-1.4-0.6-2.6-0.9-3.7c-0.5-1.7-0.9-3.4-0.5-4c0.2-0.2,0.7-0.4,1.5-0.4
	c0.2,0,0.5,0,0.8,0c7.7,1.9,15.6,2.4,23.2,2.9c1.1,0.1,2.2,0.1,3.3,0.2c2.5,0.2,5,0.3,7.4,0.6c7.9,0.8,15.5,2.3,22.9,6.2
	c2.8,1.3,5.5,2.8,8.2,4.2c4.6,2.4,9.3,4.8,14.1,7c0.5,0.5,1,0.9,1.5,1.4c0.5,3.4,1.7,6.3,3.5,8.8c0.6,0.9,1.4,1.9,2.2,2.8
	c-0.9,0.6-1.8,1.2-2.7,1.7c-1.6,1-3.7,2.3-5.5,3.6c-2.1,1.4-3.9,3.3-5.3,5.9c-0.7,1.2-1.3,2.4-1.7,3.7
	C499.1,399.9,499,404.1,500.1,408.1z M591.8,407.7c-5.9,9.1-11.9,14.6-18.1,16.3c-1.7,0.6-3.5,0.9-5.4,0.9c-4.8,0-9.5-1.9-14.6-3.9
	c-5.2-2-10.6-4.2-16.3-4.2c-2.3,0-4.5,0.4-6.6,1c-1.2,0.3-2.4,0.5-3.6,0.6c-0.8,0.1-1.7,0.2-2.5,0.2c-2,0-3.9-0.3-5.6-0.7
	c-0.5-0.1-1-0.3-1.4-0.4c-3.4-1.2-6.2-3.1-8.3-5.5c-1.4-1.6-2.5-3.4-3.1-5.2c-0.2-0.4-0.3-0.9-0.4-1.3c-1-4-0.3-7.8,2-11.1
	c1.8-2.6,4.5-4.8,8-6.6c8-4.1,13.2-10.6,18.3-16.8c2.1-2.6,4.2-5.2,6.6-7.7c6.1-6.5,14.6-7.3,23.6-8.1c8.8-0.8,17.8-1.6,24.8-8
	c0.3,0.4,0.2,0.8-0.2,1.7c-0.2,0.5-0.4,1-0.6,1.6c-0.5,2.1,0,4.3,1.3,6.1c1.2,1.5,2.8,2.5,4.7,2.6c0.1,0,0.2,0,0.2,0.1
	c0,0,0.1,0.1,0,0.2l0,0.1l0,0.1c-1.1,4.2,0,6.8,1.1,8.1c0.1,0.1,0.2,0.2,0.3,0.3c1.2,1.3,3,2.1,4.9,2.1c2.4,0,4.7-1.1,6.2-2.9
	c1-1.3,1.7-2.9,1.8-4.6c0.1-1,0-2.1-0.2-3.3c7.1-1.1,13.9-3.8,20.3-8c0.1,0,0.3,0.1,0.4,0.3c0,0.1,0,0.1-0.1,0.2
	c-2.9,2.5-5.7,4.9-8.3,7.4c-3.3,3.1-6.2,6.2-8.8,9.6c-1.4,1.8-2.6,3.8-3.7,5.8c-2.5,4.5-4.5,9.2-6.5,13.7
	C599,394.8,596,401.6,591.8,407.7z M682.7,395c-5.2,15.5-19.2,29.7-34,34.5c-4.7,1.2-9.1,4-13.5,6.7c-5.5,3.4-10.6,6.7-15.9,6.7
	c-3.1,0-6.1-1.2-9-3.6c-9.2-7.6-12.3-18.9-9.9-36.7c2.4-4.6,4.5-9.3,6.5-13.9c1.2-2.7,2.4-5.4,3.6-8.1c2.7-6.1,6.6-11,11-15.6
	c0.4-0.4,0.8-0.8,1.2-1.1c3-3,6.3-5.8,9.7-8.7c5.7-4.9,11.6-9.9,16.3-16c1.1-1,1.7-1.2,1.9-1.2c0.7,0,1.6,1.7,2.3,3.4
	c1.3,2.8,3.2,6.7,7,9c3.1,2.3,5.8,4,8.3,5.6c3.8,2.4,7.1,4.4,10.3,7.8C685.1,372.4,686.6,383.4,682.7,395z M728.6,291.3
	c-1.5,6.3-1.4,12.4-1.2,18.3c0.2,8.6,0.4,16.8-4.3,25.6c-5.6,12.6-19.7,14.5-27.5,14.5c-7.4,0-15.4-1.6-21.4-4.3
	c-7.4-3.1-13.8-9.7-19-15.8c0-1.8-0.8-3.4-1.5-4.9c-0.4-0.7-0.7-1.5-0.9-2.2c1.1-0.7,2.4-1.2,3.7-1.7c1.1,1.6,2.8,2.5,4.8,2.5
	c2.3,0,4.7-1.2,6-3.1c1.2-1.7,1.4-3.6,0.7-5.4c-0.9-2.3-3-3.7-5.5-3.7c-2.7,0-5.6,1.7-6,4.9c-2.6,0.6-5.1,1.7-7.3,3.3
	c-0.9-0.4-1-0.8-1.1-1c-0.7-2.4,4.6-8,7.4-10.9c0.8-0.9,1.6-1.6,2-2.1l0.2-0.2c0.3,0,0.6,0,0.8,0c3,0,6.6-1.6,7.8-4.7
	c1.1-3.3,0.3-5.2-0.5-6.2c-1-1.2-2.5-1.9-4.4-1.9c-2.9,0-5.9,1.5-7.3,3.8c-1.2,1.8-1.3,4-0.4,6.1c-4,4-8.4,8.8-10.9,15.2
	c-0.1-0.1-0.2-0.2-0.2-0.3c-1.8-3.4,4.3-16.7,6.8-20.2c0.1-0.2,0.3-0.4,0.4-0.6c0.4-0.5,0.8-1.1,1-1.8c2.3-1.8,3.6-4.4,3.4-7.3
	c-1-4.6-3.5-5.3-4.9-5.3c-2.9,0-6,2.9-6.9,6.4c-0.8,2.9,0.1,5.4,2.4,7c-3.5,5.2-5.8,11.1-6.8,17.6c-4.2-5-3-17.8,3.6-36.1
	c5.5-13.9,1.9-24.7-1.4-34.3c-2.3-6.9-4.5-13.4-2.9-20.1c1.5-3.3,3.5-5,6.1-5c3.7,0,8.4,3.3,12.5,6.2c2.2,1.6,4.2,3,6.1,4l0.2,0.1
	l0.2,0c1.6,0.2,3.1,0.4,4.6,0.6c16.4,2,30.5,3.7,45.3,15.5C734.3,259.8,737.8,265.3,728.6,291.3z M387.8,750.7
	c15-1.6,29.4-2.4,42.9-2.4c13.5,0,26.3,0.8,38,2.4c7.1,1.1,17.1,2.9,22.7,6.6c1.5,1,3.2,2.5,3.1,4.5c-0.1,1.9-2.2,4.1-5.5,5.7
	c-6.2,2.9-15.4,4.8-27.5,5.5c-11.8,0.8-22.4,1.2-32.3,1.2l-3.3,0c-1.5,0-2.9-0.1-4.2-0.4c-1.2-0.3-2.1-1.3-2.1-2.6
	c0-1.3,0.9-2.3,2.2-2.6l0.2,0c1.7-0.4,3.7-0.4,5.3-0.4c0.8,0,1.6,0,2.4,0l0.2,0c0.7,0,1.5,0,2.2,0c0.8,0,1.6,0,2.3-0.1
	c3.1-0.1,5.7-0.2,8-0.2c10.3-0.3,14.1-0.4,25.7-1.8l0.7-0.2c0.5-0.1,0.9-0.2,1.3-0.3c1-0.3,1.9-0.5,2.8-0.8l0.2-0.1l0,0
	c0.2-0.1,0.5-0.2,0.7-0.3l0.2-0.1l0.2-0.2c0.1-0.1,0.6-0.5,0.6-0.5l0.2-0.3c0.1-0.2,0.3-0.5,0.4-0.7l0.2-0.4l0-0.7l0-0.2l0-0.3
	l-0.2-0.5l-0.2-0.4l-0.4-0.3c-0.2-0.1-0.4-0.3-0.6-0.4l-0.2-0.1l-0.2-0.1l-0.6-0.3l-0.9-0.4c-9-2.7-23.1-3.5-28.7-3.8
	c-6.2-0.1-11.1-0.2-15.5-0.2c-18.5,0-30.9,1.1-51,4.4l-0.2,0c-6.4,1.5-9.7,2.3-11,2.8l-0.5,0.2c-0.5,0.2-1,0.4-1.4,0.6l-2.2,1
	c-0.2,0.1-0.3,0.3-0.3,0.4c0,0.1,0,0.3,0.2,0.5c0.7,0.6,1,1.6,0.8,2.5c-0.2,0.9-0.8,1.6-1.7,1.9c-1.3,0.5-3.5,1-6.5,1
	c-3.2,0-6.1-0.7-8.3-2c-0.1-0.1-0.2-0.2-0.3-0.2c-1.3-1-2.8-2.5-2.4-3.8C344.6,758.8,363.3,753.4,387.8,750.7z"/>
</svg>
