<?xml version="1.0" encoding="utf-8"?>
<!-- Generator: Adobe Illustrator 27.2.0, SVG Export Plug-In . SVG Version: 6.00 Build 0)  -->
<svg version="1.1" id="Layer_1" xmlns="http://www.w3.org/2000/svg" xmlns:xlink="http://www.w3.org/1999/xlink" x="0px" y="0px"
	 viewBox="0 0 864 864" style="enable-background:new 0 0 864 864;" xml:space="preserve">
<style type="text/css">
	.st0{fill:#FFE4DB;}
	.st1{fill:#996699;}
	.st2{fill:#FFCC99;}
</style>
<g>
	<path class="st0" d="M748.5,225.5c-12.7-7.2-25.2-13.7-38.7-13.7c-2.6,0-5.1,0.3-7.6,0.8l-0.4,0.1l-0.4,0.1
		c-11.9,4.7-12.6,19.4-12.8,24.4c-0.3,11.6,1.7,23.1,3.6,34.4c3.1,18.3,6.1,35.5-2.3,47.5c-5,7.6-13.1,16.1-21.8,25.1
		c-4.1,4.2-8.2,8.5-12.1,12.8c0.7-2.5,1.5-5,2.2-7.5c6.3-23.1,11.1-49.5-1.7-70.4l-0.2-0.3l-0.2-0.2c-10.6-13.2-24.8-21.7-38.9-23.3
		c-1.8-0.2-3.7-0.3-5.5-0.3c-20.9,0-39.7,11.7-56.2,22.1l-0.5,0.3c-17.4,11.9-31.3,23.9-42.2,36.5c-7.7,8.3-14.4,18.2-20.3,27
		c-2,2.9-3.9,5.7-5.6,8.1c-0.6-0.5-1.2-1.1-1.8-1.6c-39.9-36.5-64.1-53.7-113.4-53.7c-7.6,0-15.7,0.4-24.9,1.2
		c-2,0.2-4.1,0.3-6.2,0.3c-12.7,0-25.2-2.9-38.5-6c-11.6-2.7-23.7-5.5-36.7-6.6l-0.3,0l-0.9,0c-1.1,0-2.2-0.1-3.3-0.1
		c-1.4-0.1-2.7-0.2-4.1-0.2c-3,0-7.5,0.4-11.4,3.8c-2.6,2.6-3.4,6.3-2.4,10v1.1l0.5,1c1.6,3.2,3.5,6.4,5.8,9.7
		c-5.5-1.8-10.8-3-15.9-3.8c-4.1-0.7-8.3-1-12.5-1c-6.5,0-13.2,0.8-19.9,2.4c-3.3,0.4-6.3,2.5-7.8,5.5l-0.2,0.4
		c-0.3,0.4-0.6,0.8-1,1.2l-0.5,0.7l-0.2,0.8c-1.8,6.3,0.8,12.4,3,17.7c0.6,1.4,1.2,2.8,1.7,4.2l0.1,0.3l0.1,0.3
		c6.6,13.8,15.7,23.4,24.5,32.7c7.6,8,14.8,15.6,20.1,25.6c0.8,1.8,1.8,4.8,3.1,8.2c3.6,10.2,8.6,24,14.9,32.8
		c9.2,14.5,20.9,27,32.9,38.8c-3-0.6-5.9-1.2-8.9-1.9c-24.1-5.8-46.2-8.6-67.5-8.7l-2.3,0c-7.6,0-15.4-0.2-23-0.4
		c-7.6-0.2-15.5-0.5-23.2-0.5c-14.4,0-26.1,0.8-36.8,2.6c-16.6,0.7-37.2,1.6-50.6,15.3l-0.3,0.3c-4.7,5.8-6.1,13.2-3.6,19.3l0.1,0.2
		l0.1,0.2c4.6,8.7,10.5,16.5,16.2,24.1c2.5,3.3,4.9,6.6,7.3,10c2,2.8,3.7,5.4,5,7.5c-2.6,0.7-5.9,1.3-9.6,2.1
		c-21.1,4.2-52.9,10.7-48.5,33l0,0.2l0.1,0.2c1.1,3.4,3.2,6.7,6.3,9.7c10,8.5,21.6,16.3,36.2,24.2c-11.2,8-18.9,17.4-23,27.8
		c-13.9,33.4,14,64.4,45.9,79c35.5,15.7,75.5,23.7,118.9,23.7c17.3,0,35.2-1.3,53.2-3.9c2.8-0.4,5.6-0.9,8.4-1.3
		c24.2-3.7,49.1-7.6,72-18.1c20.5-9.5,39.5-20.9,56.9-34c-6.5,13.3-11.8,26.2-16.1,39c-4.1,13.1-7.9,27-5,40.7l0.1,0.3
		c0.6,2.1,1.5,4.1,2.6,5.9c0,1.6,0.4,3.2,1.3,4.6l0.2,0.3c2.6,3.7,5.6,5.6,9,5.6c5.5,0,9.4-4.9,12.4-8.9c0.9-1.1,1.7-2.2,2.4-3
		c7.5-7.9,10.6-10.5,18.3-16.6l2.1-1.7c20.6-16.1,43.3-27.3,71.3-35.4c8.8-2.5,18.2-4.8,29.8-7.1c15-3.8,32.3-8.6,48-16.3
		c19.2-9.2,32.7-21,41.1-36.2l0.2-0.4c4.9-11,4.9-21.2,0-30.2c-5.4-9.8-16.8-17.8-31.8-22.5c3.6-1.7,7.2-3.3,10.9-4.9
		c40.9-18.4,77.6-44,109.1-75.9c43.2-42.8,67.8-87.2,73.1-132C805.9,354.4,811.7,266.1,748.5,225.5z"/>
	<path class="st1" d="M458,496.2c0.6,21.1,3.2,41.3,7.9,58c-10.3,30.4-42.2-73-42.9-80.3c4.6-2,7.1-10.4,12.7-8.6
		C446.9,470,429.8,489.3,458,496.2z M576.9,492.7c-3.7-3.6-6.8-8-7.8-13c-0.4-1.8-1.8-3.1-3.6-3.3c-2.6-0.5-6.1-0.5-7,2.7
		c-3.9,24.1-39.7,64.9-34.6,84.2C536.9,571.4,571.9,503.6,576.9,492.7z M475,490.7c-1.5,0.8-3.8,1.9-5.4,2.6
		c1.9,13.9,2.2,67,15.9,64c8-5.7,2.8-26.9,5.8-36.1C491.6,504.9,502.2,460.9,475,490.7z M232.3,356.5c24.1,19.6,27.6,50.9,44.9,76
		c17.1,22.7,44.5,49.2,73.2,71.1c18.8-14.9,52.9,6,34.9,28.4c19.1,19.9,38.6,36.3,59,49.1c4.4,2.7,10.6-4.4,7-8.3
		c-18.2-29.1-31.4-60.8-39.3-94c-30.6,2.7-24.1-42.1-0.6-47.5c11.7-3.8,24.2,4.6,24.9,17.2c0.9,3.8-2.8,9.6,1.8,11.9
		c8.7,5.3,14.4-15.8,33.3-10.4c2.6,0.8,5.5-1,5.6-3.8c-0.6-18.8,24.1-35.8,39.2-21.2c13.2,13,6.5,37.7-10.8,43.8
		c1.1,26.9-2.7,53.9-3.8,80.4c-0.3,5,8.6,6.7,10.2,1.9c15.5-39.9,48.2-77.3,38.6-121.3c-35.9-9.7-26.2-66.9,10.2-66.3
		c37.9,1.5,31.4,55.1,1.9,66.6c1.8,9.1,2,18.2,0.9,27.6c-0.6,4.7,7.1,7.5,9.9,4c7-9.8,23.4-11.2,30.2-0.1c2.4,3.2,7.3,1.5,7.7-2.4
		c2.2-9.5,6-19.7,8.3-29.8c4.6-36.3,21.5-70,27.5-106c3.3-24.5-1.1-40.5-24.6-50.1c-24-7.6-51.6,13.1-72.3,28.4
		c-14.2,10.7-27.7,25.7-39.7,42.2c-5,7.2-12.6,24.1-22.5,23.9c-12.9-2.8-23.3-18.2-34-25.9c-41.5-43-91.7-26-141.1-33.3
		c-7.9,0-52.3-18.1-41.7-0.7c6.5,9.7,24.1,21.3,28,33.8c-4.7,13.3-19.1-3.4-26.9-5.6C232.5,314.8,180.8,305.5,232.3,356.5z
		 M552.3,574.3c7.2-3.7,62.6-84.1,41.5-80.3c-12.6,6.6-13.4,25-22.8,35.4c-4.8,12.8-31.7,35.6-29.1,45.9
		C544.9,579.8,549.2,577.3,552.3,574.3z M732.3,235.5c-9.8-4.6-16.3-7-25.3-7.3c-5.3,58,27.2,82.7-30.4,131
		c-39.3,36-49.6,88.1-63.9,137.9c-0.8,6.9-11.4,16.8-2.9,21.7c11.3,1.3,35.1-33.2,44.5-40.6c-0.3-0.6-1.8-3.4-2-3.8
		c-9-21.8,24.1-52.3,41.3-29.7c13.7,18.9-9.2,44.3-29.7,40.8c-39.7,43.1-82.8,84.1-130.9,117.5l-0.2-0.2c-24.1,19.8-59.6,25-76,52.3
		c-8.8,12.4-57.1,102.7-33.4,95.9c26.2-24.3,53.2-38.8,85.3-49.3c38.2-10.9,110.6-19.9,117.2-62.3c-2.6-15.9-21.1-23.5-34.7-22.3
		c-33.9,3.1-31.1-15.6-27.6-15.2c38.8-6.1,121.7-58.2,165.2-105.3C792.5,438,819.7,284.6,732.3,235.5z M325.9,605.7
		c2,3.2,2.8,6.2,3.5,9.6c14.8,4.8,97,15.9,98.9-2.3c-1.9-7.3-13.9-4.8-19.5-7.8c-26.8-6.4-52.3-16.9-75.9-30.9
		c-3.8,4.9-8.2,8.8-14.7,11.2c-4,0.7-6.2,3.4-5.8,7.5C313.3,599.3,323.9,600.1,325.9,605.7z M308.4,642.1
		c-20.2,5.4-2.9,10.3-3.4,23.8c43,4,88.6-4.5,124.2-24.6c2.8-1.5,2.4-4.8,1.1-7.2c-4.5-6.3-15.2,0.4-21.7-0.4
		c-28.8,2.2-60,0.7-84.2-7.5C320.6,632.6,312.2,640.5,308.4,642.1z M327.7,678.6c-8.7,0-17.9-0.5-26.8-1.3
		c-25.9,43.4-64.7-22.2-19.9-32.9c7.9-2.6-0.2-9-1.5-13.5c-4.7-12.2,4.5-32.5,19.4-35.3c3-0.6,3.2-4.1,3.4-6.6
		c-46.4-41.1,35-79.5,37.8-24.6c10.4,6.4,94,48,95,24.9c-21.9-14.6-41.9-31.5-59.5-50.3c-17.8,16.5-39.8,0.1-33.6-23.3
		c-28.6-39.2-214.3-48.3-251.5-23.1c36.4,56.8,57.4,58.1-19.4,75.1c-4.5,1.2-9.6,5.4-4.6,9.4c9.9,8,36.2,24.4,45.7,26.9
		c23.9,10.2-32.8,19.4-33.1,51c16,91.2,220.4,78.3,285.2,45.3c9-6.6,46.9-20,40.6-31.1c-1-1.8-3.1-2.7-5.1-2
		C378.1,674.8,353.9,678.6,327.7,678.6z"/>
	<path class="st2" d="M380.6,516c2.5,10.3-15.9,18.5-16.1,18.6c-1.4,0.6-3.2,1.3-5.1,1.3c-0.7,0-1.4-0.1-2.1-0.3
		c-5.5-1.6-7-8.6-6.5-14c0.7-8,9.9-13.6,17.8-13.6c3,0,5.6,0.8,7.7,2.3C378.6,511.9,380,513.9,380.6,516z M322.5,548.9
		c-2.3-1.1-5-1.7-7.8-1.7c-6.6,0-14.6,3.6-16.4,11.5c-1.3,5.4-0.5,12.5,4.2,16.3c2,1.6,4.6,2.5,7.4,2.5c2.4,0,5-0.6,7.2-1.8
		c4.4-2.3,13.5-9.5,13.2-17.1C330.2,554.5,327.6,551.3,322.5,548.9z M291.6,657c-1.9-1.7-4.4-2.6-7.2-2.6c-6.3,0-13.2,4.6-14.3,13.4
		c-0.6,5.1,0.9,8.1,2.4,9.7c1.8,2.1,4.6,3.3,7.7,3.3c0,0,0,0,0,0c5.7,0,12.7-4.1,14.4-11.7C296.1,662.2,293.4,658.6,291.6,657z
		 M419,440.2c-0.7-0.1-1.4-0.2-2.1-0.2c-3.9,0-7.8,2.2-11.1,6.1c-3.9,4.6-6.1,10.8-5.3,15.2c1.2,7.2,6.1,8,8.1,8c0,0,0,0,0,0
		c7.5,0,16.7-9,17.8-15.4c0.3-1.9,0.3-3.8-0.1-5.7C425.3,443.9,422.7,441,419,440.2z M305.6,605.5c-0.3,0-0.7,0-1,0
		c-4.9,0.2-9.2,1.9-11.6,4.5c-2.1,2.3-3.7,5.4-4.5,8.9c-0.8,3.5-0.7,6.5,0.3,9.1c1.7,4.5,4.9,6.9,9.2,6.9c0,0,0,0,0,0
		c8.2,0,18.5-9.4,20.8-15.5c1.6-4.2,0.5-7.1-0.7-8.8C315.8,607.4,311.2,605.5,305.6,605.5z M594.9,461.3c-2.5-1.6-4.9-2.3-7.2-2.3
		c-2.7,0-5.2,1.2-6.9,3.3c-3.7,4.3-4,11.5-3.2,16.4c1.6,9.9,6.4,11.3,9.1,11.3c6.8,0,12.5-9.3,13.5-17.6
		C600.7,467.6,598.8,463.7,594.9,461.3z M468.9,459.2c-0.7-0.1-1.3-0.1-2-0.1c-5.6,0-11.7,3.2-15.1,7.9c-2.7,3.8-3.5,8.3-2,12.4
		c2.3,6.6,6.7,7.6,9.2,7.6c0,0,0,0,0,0c4.3,0,9.3-2.8,13.3-7.6c3.8-4.4,5.7-9.3,5.1-13.1C477.1,464.1,475.5,460.1,468.9,459.2z
		 M685.7,450c-1.5-1.7-3.8-2.6-6.5-2.6c-5.9,0-13,4.3-16.6,9.9c-2.9,4.5-3.2,9.5-1.1,14c1.6,3.4,4.3,5.2,7.6,5.2c0,0,0,0,0,0
		c8.4,0,18.3-12,18.8-18.5C688.2,454.6,687.5,451.9,685.7,450z M577.3,388.6c-0.2-1.3-0.5-2.6-0.8-3.8c-0.6-1.9-1.5-3.7-2.5-5.1
		c-3-4.1-8.2-6.5-13.8-6.5c-1.3,0-2.7,0.1-4,0.4c-12.9,2.8-19.4,15.6-19.1,26.7c0.2,10.7,8,19.1,17.6,19.1c3.7,0,7.4-1.2,10.7-3.5
		C573.9,409.9,578.7,399,577.3,388.6z M503.5,429.3c-2.9,0-6,1.2-8.4,3.1c-2.7,2.2-4.6,5.1-6,7.6c-3,5.1-1.7,14.2,1.3,18.3
		c2.4,3.4,5.1,4.1,6.9,4.1c6.3,0,11.2-8,12.5-10.5c1.6-2.9,3.1-6,3.5-9.5c0.1-0.7,0.1-1.4,0.1-2.1c0-3.4-1.2-6.4-3.4-8.5
		C508.3,430.2,506,429.3,503.5,429.3z"/>
</g>
</svg>
