<?xml version="1.0" encoding="utf-8"?>
<!-- Generator: Adobe Illustrator 27.2.0, SVG Export Plug-In . SVG Version: 6.00 Build 0)  -->
<svg version="1.1" id="Layer_1" xmlns="http://www.w3.org/2000/svg" xmlns:xlink="http://www.w3.org/1999/xlink" x="0px" y="0px"
	 viewBox="0 0 864 864" style="enable-background:new 0 0 864 864;" xml:space="preserve">
<style type="text/css">
	.st0{fill:#CC99CC;}
</style>
<path class="st0" d="M430.5,125.8c5,26.6,10.3,54.2,29.9,75.9c19.8,22.7,25.7,49.6,17.1,77.8l-0.2,0.6l0,0.6c0.2,2.3-0.4,5.1-1.3,6
	c-0.2,0.2-0.3,0.2-0.4,0.2c-1.3-1.7-1.5-5.4-1.8-9.3c-0.4-7.4-0.9-16.5-9.8-22.2c-5.5-2.7-10.8-4.2-15.8-4.2
	c-12.8,0-22.7,9.8-24,23.8c-1.3,13.4,5.9,29.2,24.7,33.6c2.5,24.2,1.2,30.1,0.3,31.5c-2.3-0.7-8.1-6.8-12.7-11.7
	c-9.1-9.6-21.3-22.5-35.8-29.3c0.9-5.7-0.7-11.4-4.6-16.4c-5-6.3-13.1-10.2-21.1-10.2c-2,0-4.1,0.3-6.2,0.8
	c-15.7,5.3-15.8,15.2-15,19.2c2,11.3,16.1,21.2,30.1,21.2c0.8,0,1.6,0,2.4-0.1v0.3h0.9c0,0.7,0,1.3-0.1,1.6l-0.3,0.1l-0.2,0.1
	c-7.7,4.4-11,11.1-8.9,18.5c3.1,10.6,16.5,19.9,28.7,19.9c0.6,0,1.2,0,1.4,0h0.3c6.3,8.1,15.8,15.1,25.4,21.5
	c-0.6,0.4-1.7,0.6-3.6,0.6c-14,0-47.5-16.3-56-22.3c2.5-9.4-0.4-15.9-3.3-19.7c-5.1-6.7-15-10.8-25.7-10.8
	c-10.6,0-19.5,3.9-23.7,10.5c-2.7,4.2-4.6,11.4,1.3,22.3c0.2,0.3,0.2,0.5,0,0.8c0,0.1-0.2,0.4-0.4,0.5
	c-67.7-17.6-190.6-79-194.4-138.8c-1.7-27.3,22.6-51,72.1-70.3c36.5-11.2,57.7-33.8,78.1-55.6c20.3-21.5,39.3-41.9,71.3-47.1
	C415.3,46.1,422.4,83.1,430.5,125.8z M110.2,453.9c-5.5-7.5-13.3-13.9-20.8-20.1c-10.4-8.6-20.2-16.6-24.3-27
	c-5.5-25.2,5.8-46.1,16.2-59.1c20.6-25.8,56.8-44.5,90.3-46.9l2.3,1.5c30.6,19.3,111.8,70.6,156.1,70.6c7.7,0,14-1.5,19-4.5
	c5.2-0.2,10.1-1.3,15.3-3.6c17,12.6,37.9,18.8,58,24.7c3.9,1.2,7.8,2.4,11.7,3.6c0.3,0,0.4,0.3,0.5,0.5c-0.9,0.5-4.2,1.8-16.9,1.8
	c-7.7,0-16.8-0.5-24.8-0.9c-6.8-0.3-13.2-0.7-17.8-0.7c-1.3,0-2.4,0-3.4,0.1c-6-9.6-16-15-27.7-15c-11.8,0-22.3,5.7-25.4,13.9
	c-1.6,4.2-2.5,12.4,8.5,21.8c-0.1,0.3-0.1,0.7-0.2,1.1c-14.9,0.9-29.5,9.5-34.1,20.3c-3.5,8-1.2,16.4,6.4,23.6l0.2,0.2l0.3,0.2
	c4.9,3.1,10.4,4.6,16.6,4.6c16.6,0,33.8-11.7,39.2-26.4c8.6-3.8,18-5.7,28.7-5.7c14,0,28.5,3.2,42.5,6.3c7.1,1.5,14.4,3.2,21.6,4.3
	c0.1,0.9,0,1.5-0.3,2c-1.7,2.4-8.8,2.7-13.1,2.9c-0.4,0-0.8,0-1.1,0c-4.5-4.8-11.4-7.5-19-7.5c-9,0-19.3,4.2-23.1,13.4
	c-2-0.2-4-0.3-5.9-0.3c-21.9,0-41.5,11.3-60.4,22.2c-13.6,7.9-26.5,15.3-39.5,18.2c-2.7,0-5.4-0.1-7.9-0.1
	c-75.1,0-93.4,21.8-129.9,65.3c-5.5,6.6-11.5,13.7-17.8,21c-0.2,0.2-0.4,0.2-0.5,0.2c-0.2,0-0.4,0-0.9-0.5
	c-20-16.1-16.9-40.1-13.7-65.6C117.7,493.7,120.4,472.3,110.2,453.9z M346,670.7c-18.1,28-36.7,44.9-55.6,50.3
	c-5.4,1.9-10.8,2.8-16.7,2.8c-14.7,0-29.3-5.8-44.8-11.9c-16-6.3-32.6-12.8-50-12.8c-7.1,0-13.8,1.1-20.2,3.2
	c-3.7,0.9-7.4,1.6-11,1.9c-2.6,0.3-5.2,0.5-7.7,0.5c-7.8,0-15.1-1.3-21.6-3.6C99,694.6,86,679.5,82.1,664.5
	c-5.7-21.6,5.8-41.9,30.7-54.5c24.6-12.5,40.6-32.5,56.2-51.8c6.4-7.9,13.1-16.2,20.2-23.8c18.8-20.1,44.8-22.5,72.5-25
	c26.9-2.4,54.7-4.9,76.2-24.7c1,1.3,0.5,2.5-0.6,5.1c-0.6,1.5-1.3,3-1.8,5c-1.5,6.3,0,13.3,4.1,18.7c3.6,4.8,8.7,7.6,14.4,8.1
	c0.3,0,0.5,0.2,0.6,0.3c0,0.1,0.2,0.3,0,0.6l-0.1,0.2l0,0.2c-3.4,13.1-0.1,20.7,3.3,24.9c0.3,0.3,0.5,0.6,0.8,0.9
	c3.7,4,9.1,6.3,15.1,6.3c7.3,0,14.4-3.4,19.1-9c3.2-3.9,5.1-8.8,5.6-14.3c0.3-3.1,0.1-6.5-0.5-10c21.9-3.5,42.8-11.7,62.4-24.7
	c0.4,0,0.9,0.4,1.1,0.9c0.1,0.3,0,0.4-0.2,0.6c-9,7.7-17.6,15.1-25.7,22.7c-10,9.5-19.1,19.1-26.9,29.6c-4.2,5.7-8.1,11.6-11.5,17.9
	c-7.6,13.8-14,28.2-20.1,42.2C368.3,631.3,359.1,652.1,346,670.7z M613.1,536.4c19.9,25.9,24.3,59.8,12.4,95.4
	c-15.8,47.7-58.9,91.3-104.4,105.9c-14.3,3.6-28.1,12.3-41.4,20.6c-16.8,10.6-32.7,20.6-48.9,20.6c-9.7,0-18.7-3.6-27.6-11.1
	c-28.3-23.3-37.7-58.1-30.3-112.7c7.5-14.1,13.9-28.6,20.1-42.7c3.6-8.1,7.3-16.6,11.2-24.8c8.3-18.7,20.2-33.9,33.8-47.8
	c1.2-1.2,2.3-2.4,3.6-3.5c9.3-9.2,19.4-17.8,29.7-26.7c17.5-15,35.6-30.5,50.1-49.1c3.4-3,5.1-3.5,5.9-3.5c2.3,0,4.8,5.4,7.2,10.5
	c4.1,8.7,9.7,20.6,21.6,27.8c9.4,7.2,17.9,12.4,25.5,17.1C593.3,519.5,603.4,525.8,613.1,536.4z M731.4,145.9
	c-51-40.5-99.9-46.5-151.6-52.8c0,0-8.6-1.1-10-1.2c-3.9-2.3-8.5-5.6-12.8-8.7c-15.8-11.1-33.6-23.7-53.3-23.7
	c-10.7,0-30.3,4-42.3,30.6l-1,2.1l-0.6,2.3c-6.2,24.9,0.2,48.2,7.1,69.3c-5.4-12.9-8.2-27.6-11-42.8
	c-8.1-42.5-19.2-100.6-106.6-101.1l-2.2,0l-2.1,0.3c-40.7,6.6-64.7,32.2-86.2,55.1c-19.8,21.1-36.9,39.3-66.7,48.4l-0.9,0.3
	l-0.9,0.3c-61.3,23.8-91.1,56.1-88.6,96.1c1.4,22.2,13.3,43.2,31.1,62.3c-28.1,9.5-54.2,26.9-71.7,48.9
	c-19.7,24.6-27.3,53.3-21.3,80.8l0.5,2.1l0.8,2c6.6,16.5,19.9,27.5,31.8,37.4l0.4,0.3c5.6,4.7,11.4,9.4,15,13.9
	c5.1,10.9,3.2,26.7,1.1,43.4c-2.8,22.6-6.5,52.2,10.9,76c-35.5,18.3-52,50.3-43.3,83.7c6.5,24.7,26.8,45.6,52.8,54.6
	c9.5,3.3,19.7,5,30.1,5c3.7,0,7.3-0.2,10.6-0.6c4.8-0.5,9.7-1.3,14.5-2.6l0.9-0.2l0.9-0.3c3.7-1.2,7.6-1.9,11.9-1.9
	c12.5,0,26.1,5.3,40.8,11.1c17,6.7,34.5,13.5,54,13.5c8.6,0,16.6-1.3,24.6-4c17-5,32.8-15.7,48-32.4c3.8,26.5,14.8,53.3,40.3,74.3
	c13.6,11.4,28.5,17.2,44.3,17.2c23.7,0,43.6-12.5,62.7-24.5c11.6-7.3,23.5-14.8,33.9-17.4l0.8-0.2l0.8-0.3
	c53.8-17.3,102.5-66.5,121-122.4c14.7-44,8.9-86.4-16.4-119.4l-0.7-0.9l-0.7-0.8c-1.2-1.4-2.5-2.6-3.7-3.9
	c11.9,2.2,24.2,3.4,36.3,3.4c51.6,0,90.8-21.5,108-59c17.3-32.9,16.5-63.5,15.9-90.6l0-0.5c-0.4-16.6-0.8-32.4,2.8-48
	C823.5,229.6,807.3,201.3,731.4,145.9z M766.5,313c-4.7,19.5-4.2,38.2-3.8,56.3c0.6,26.5,1.3,51.5-13.3,78.8
	c-17.2,38.7-60.5,44.5-84.7,44.5c-22.6,0-47.2-4.9-65.9-13.3c-22.7-9.6-42.3-29.9-58.5-48.7c-0.1-5.5-2.5-10.5-4.7-15.2
	c-1.1-2.3-2.2-4.5-2.9-6.7c3.4-2.1,7.2-3.8,11.3-5.3c3.2,5,8.5,7.8,14.6,7.8c7.1,0,14.4-3.8,18.5-9.6c3.6-5.1,4.3-11.1,2-16.6
	c-2.7-7.1-9.1-11.5-16.9-11.5c-8.3,0-17.1,5.2-18.5,15c-7.9,1.9-15.5,5.3-22.5,10.1c-2.7-1.1-3.1-2.5-3.3-3
	c-2.2-7.5,14-24.5,22.8-33.6c2.6-2.7,4.9-5.1,6.1-6.5l0.8-0.7c0.9,0.1,1.7,0.1,2.6,0.1c9.1,0,20.2-4.8,24-14.3
	c3.2-10.1,1-15.9-1.5-19.1c-2.9-3.8-7.7-5.9-13.6-5.9c-9,0-18,4.7-22.5,11.7c-3.6,5.6-4.1,12.2-1.3,18.9
	c-12.4,12.3-25.9,27-33.4,46.7c-0.3-0.3-0.6-0.6-0.8-1c-5.5-10.5,13.1-51.3,20.8-62c0.4-0.7,0.9-1.3,1.4-1.9
	c1.2-1.6,2.5-3.3,3.1-5.6c7.2-5.5,10.9-13.5,10.4-22.5c-3-14.3-10.8-16.4-15.1-16.4c-8.8,0-18.4,8.8-21.3,19.6
	c-2.4,8.7,0.4,16.6,7.4,21.6c-10.8,16.1-17.9,34.2-20.9,54c-13-15.4-9.1-54.7,11.1-111c17-42.6,5.7-76-4.3-105.4
	c-7.2-21.2-14-41.3-8.9-61.8c4.6-10.3,10.8-15.3,18.7-15.3c11.5,0,25.9,10.2,38.5,19.1c6.7,4.8,13.1,9.2,18.8,12.2l0.5,0.3l0.6,0
	c4.8,0.6,9.6,1.2,14.3,1.8c50.3,6.1,93.7,11.4,139.2,47.7C784,216.4,795,233.1,766.5,313z"/>
</svg>
