<?xml version="1.0" encoding="utf-8"?>
<!-- Generator: Adobe Illustrator 27.2.0, SVG Export Plug-In . SVG Version: 6.00 Build 0)  -->
<svg version="1.1" id="Layer_1" xmlns="http://www.w3.org/2000/svg" xmlns:xlink="http://www.w3.org/1999/xlink" x="0px" y="0px"
	 viewBox="0 0 864 864" style="enable-background:new 0 0 864 864;" xml:space="preserve">
<style type="text/css">
	.st0{fill:#333333;}
	.st1{fill:#669933;}
	.st2{fill:#9999CC;}
</style>
<g>
	<path class="st0" d="M286.2,795.1c26.3-23,45.2-46,61.3-78.9c22.7-14,40.9-30.2,55.8-53.4c31.5-6.3,71.7-22.4,82.5-52.6
		c5.8-15.4,12.9-28.7,20.5-37.1c14.6-9.7,11.3-24-7.4-14.5c-34.4,14.3-50.2,44.6-80.3,63c9.7-31.1,23.4-60.9,30.4-93.5
		c65-33.3,97.9,10.3,97.2-24.3c1.7-7.4,11.2-9.5,4.2-19c14.1-3.1,8.1-15.4-3.6-16.7c-5.3-0.2-5.2-6.3-8.1-10.1
		c6.4-5,20.3-30.4,2.5-28.5c-3.3,0.4-3.3,0.2-3.5-1.1c11.7-14.6-18.1-46.1-30.3-27.2c-1.9-14.1-13-8.3-20.5-14.2
		c-4.9-11.2-17.3-8.7-28.4-9.3c3.2-41.5,31-19.3,45.8-44.9c1.8-3.7,3.8-16.4-3.9-12.6c-10.2,8.9-26.4,14.7-35.4,24.1
		c-0.6-9-1.4-17.9-2.2-26.6c24.3-11.3,65.1-55.4,52.2-82.8c-1.8-0.2-3.3,0.8-3.6,2.2c-2.7,8-10.8,15.4-17.3,21.4
		c-15.3,12.3-23.4,30.4-32.3,46.9c-6.6-55.7,0.4-46.2,22-92.5c21.9-47.4,8.5-96.9,26.4-144.3c-6.3-21.9-32.4,50.4-34.3,56.8
		c-33.4,74.4-18.4,156.7-19,234.4c-12.8-32.5-19.4-64.4-37-92.8c-7.8-13.3-16.1-29.1-12.2-45.6c17.9-14.7,14.9-44,13.6-64.8
		c10.5-14.5,16.6-30.3,31.6-41.6c4.3-3.6,6.3-5.5,6.7-9.8c-5.5-13,6.3-26.7-13.9-27.2c4.3-8.4,10.6-20.5,0.1-26.2
		c-1.5-3.5-1.4-11.1-7.8-11.1c-0.4-6.8-9-7.9-13.8-7.1c-5.2,0.4-7.1,0.2-8.4-3.2c-5.5-5.6-21.2-2-23,6.8
		c-37.5,3.3-32.9,25.1-54.7,23c-17-1.7-22.8,10.3-29.4,21.2c-12,11.5-11.2,4.6-17,22.7c-12.1,5.9-29.4-8.9-39.5,5
		c-3.2,2.6-5.2,7.4-0.5,9.4c-4.6-0.3-11.5,7.4-15.9,8.2c-9.2,1-12.2,7.3-17.5,12.9c-17.7-2.7-22.9,10.4-23.3,26.9
		c-5.6,5.2-16.8,13-5.5,19.7c-9.9,6.3-6.6,17.6-5.2,26.9c-4,9.5-12.5,18.5-10,29.9c-1.6,23.2,22.8-8.9,37.5-4.1
		c-6,79.4,23.4,3.5,81.7,10.2c27.8,10.8,53.1,5.6,82.6,4.3c51.2,4.9,53.3,56.2,69.5,96c2.9,5.9,6.1,12.5,6.1,26.2
		c-3.2-5.9-17.4-5-22-1c-6.6-4.2-25.1-2.1-25.5,8.8c-2.2-12.4-13.1-15.2-24.1-12.9c-3.6-1.6-13-10-15.5-1.8
		c-20-7.3-20.9,9.5-35.2,4.6c-17-7.1-21.7,7.4-32.9,13.8c-10.8,2.6-21.5,13.9-8.7,21.5c8.4,3.9,15.2,8.2,18.2,17.5
		c-25.8,27.1,32.7,20.2,38.8,54.5c1.4,30,0.2,59.5,31.6,77.1c4.8,4.4,12,7.6,11.2,14.6c-10,34.6-19.2,74.9-31.2,106.9
		c4.8-22.5-7.4-37.9-12.9-57.5c-4.1-32.5-21.4-49.9-54-52.1c-10.9-5.4-14.4-17.1-28.3-19.4c-7-2.3-13.3,2.4-10.1,10.1
		c39.9,107.4,87.6,75.5,96.1,140.8c-23.5,32-80.1,36.2-109,67.7c-3.1,3.9-13.4,7.8-6.7,12.1c4.2,0.7,5.5-2.6,10.8-6.8
		c26.9-23.6,63.6-37.4,94.8-52.8c-15.4,29.5-32.4,48-55.9,69.1c1.3,1.8,2.5,3.9,3.5,5.9L286.2,795.1z M410.4,557.1
		c14.8-7,21.1-16.9,31.4-26.7c-8.8,33.2-21.6,65.2-32.5,96.8c-17.2,9.2-28.2,26.4-41.3,40C382.8,634.1,380.1,580.9,410.4,557.1z
		 M357.9,694.4c5.4-13.6,21.5-22.3,35.2-28.3c-13.7,17.4-24.1,27.2-40.2,38.7C354.6,701.4,355.9,697.8,357.9,694.4z"/>
	<g>
		<path class="st1" d="M508.1,562.4c-47.3,55.1-18.8,74.5-113.2,96.1c16.9-16.2,80.5-24.6,73.4-54.5c-22.8,32.5-52.7,29.4-81.5,52.2
			c12.1-17.3,31.6-25.2,48-37.6C459.1,598.6,476.3,572.8,508.1,562.4z M286.7,576.1c30.1,3.3,45.7,14.2,50,46.2
			c2.2,16.1,13.9,26,13.5,42.7c-8.8-28.8-46.7-41.8-51.9-72.7c-0.5-1.8-2.3-2.9-4.1-2.4c-8.2,32.1,46.9,51.5,51.5,82.4
			c-6.9-15-16.5-19.8-28.4-28.4c-30.8-20.1-47.2-54.1-60.2-87.1C270.7,557.2,275,571.1,286.7,576.1z"/>
		<path class="st1" d="M472.8,299.2c7.8-18.9,22.2-32.4,36.8-46.4c-7,21.8-20.7,41.9-40.3,53.1C470.5,303.6,471.7,301.4,472.8,299.2
			z M460.7,219.1c3.8-45,18.5-88.5,36.6-129.9c-9,50.3-1.2,96.3-30.6,143.5c7.5-26.5,9.3-52.8,18.3-77.2c0.9-1.6,0.5-3.6-1.1-4.6
			c-13.5,0.4-10.4,35-15.3,45c-3.1,9.4-5.9,24.2-8.5,35.8C460.2,227.6,460.4,222.8,460.7,219.1z"/>
	</g>
	<g>
		<path class="st2" d="M351.2,478.9c-1.6-11.3-4-19.4-6.8-30.1c-0.8-3.7-6.6-3.1-6.6,0.7c0.8,4.4,1.7,6.7,2.9,11.5
			c-8.3-8.8-19.9-16.3-29.2-18.4c-3.5-0.8-5.3-2.2-5.3-4c4.9-13.9,23-22.3,28.5-2.7c13.6,10.4,3.5-18.7-15.6-23.4
			c3.7-3.1,6.3-11,11.9-8.3c13.6,2,27.2-5.6,41.3,0.2c9.1,1.2,7.6,12.5,15.1,15.4c8.2,3.6,7.6,11.4,11.6,18.3
			c13,8.8-1.3-22.9,19.5-20.6c-0.6,6.5,0.6,13.3-0.6,19.6c2.3,7.9,8.4,1.1,7.2-4.6c0.4-5.3-1.2-15.3,1.1-19.5
			c8.7,7.1,25.2-10.6,24.1,5.1c-6.3,11.4-5.3,27.6-10.4,39.1c-2.1,3.9,4.2,7,6,2.9c7.7-11,1.3-46.7,20.9-41.3
			c5.2,1.1,13.5-0.7,16-6.1c5.5,10.5-2.4,27.4-9.1,35.6c-9.2,3.6-30.1,35.4-18.5,42.2c2.2,0,3.6-2,3.4-4.2
			c0.9-21.9,22.1-44.4,43.2-32.1c5.9,2,13.6-7.8,16.6-0.4c1.1,5.5,7.3,8.6,13.2,7.3c2.1,0.5,2.4,3,3.4,4.9c3,9.4,10.4,7.2,16.4,11.2
			c-5.1,2.9-43.6,8.4-31,18.2c7.8-3.6,14.9-7.7,23.3-8.8c5.6,8.8-5.1,7.5-4.6,17.1c0.2,2.5-0.8,8.7-1.4,8.1
			c-30.7-7.8-59.9-4.4-87.6,8.7c11.2-16.6,25.2-33.7,46.7-34.6c1.9,0.2,3.7-1.4,3.7-3.2c-3.8-9.2-20,1-28.8,4.7
			c-24.7,16.4-35.3,49.3-62.8,62.1c3.1-3.1,18.3-18.2,11.9-24.4c-1.7-0.7-3.7,0.1-4.4,1.8c-3.9,9-8.3,15.2-13.5,18.9
			c4.4-9,9.3-21.3,6.6-31.1c-2-2.1-5.7-0.7-5.7,2.3c-0.2,9.1-3,21.3-9,29.3c-8-5.9-10.8-27-10.6-42.2c-1.1-6.8,4.9-12.4-0.2-15.9
			c-13.6,1-3.8,51.8,2.1,58.2c-6.5,4.8-9.4-15.8-13.3-30.2c-2.6-10.5,3.4-22.3-3-31.6c-8.6-2.1-2.5,10.1-3.8,14.4
			c-2.6,16.5,5.1,38.9,10.6,51.9C352.2,536.2,352.3,504.5,351.2,478.9z M327.6,380.1c18.3,6.4,16.5-11.3,38.3-4.2
			c2.1,16,12.6,12.4,6.4-2c4.8,5.7,13,2.6,19,3c10.1,0.5,4.6,29.3,15.2,21.9c6.3-13.4,2.1-23.4,20.2-17.8
			c-0.3,4.6-6.7,19.1,3.2,13.5c3.6-3.9,1.6-12.3,4.9-15c22.1-3.8-0.5,7.2,37.6,5.5c6-0.8,6.1,2.6,9.3,6.3
			c13.2,12.3,19.6-4.4,20.1,22.5c-0.7,2.4-1.6,6.1-2.3,9.7c-0.5,2.4,2.8,3.6,4,1.5c10.3-18.7,7.3-32.1,26.5-14.5
			c2.3,3.3,5.5,8.2,2.6,12.1c-5.6,9.6,3.2,15.8,10.6,13.5c-1.1,6.6-6.4,16.1-10.9,18.4c-11.2,2.1-4.5-8.4-15.8-10.1
			c-3.5-0.5-6.5,0.8-8.8,1.9c-7.7,3.3-14.6-4.9-23.4-1.9c4.9-8.8,14.5-35.8-2.4-39c-2.5,0.3-3.8,2.2-4.9,3.8
			c-4,6.5-15.3,0.3-20.6,3.3c-2.3-13.9-16.9-4.8-25.1-4.6c-4.4-2.5-8.8-2.8-11.5,2.7c-7.9,0.1-18,2.5-19.7,12.5
			c-1.4-3.3-5.1-7.1-9.4-9.2c-6.6-5.2-5-13.6-16.6-16c-13.2-4.1-26-2.3-38.9,0.5c-6.1-3.2-14.2-0.5-16.7,4.5
			c-4.9,5.3-11.6,12.4-1.5,15.9c-2,0.9-4,2-5.9,3.3c-3.8-13.8-15.5-13.6-22.6-21.8c1.8-5,18.4-8.4,21-14.9
			C313.9,379.1,320.5,377.1,327.6,380.1z"/>
		<path class="st2" d="M218.7,259.7c-6.4-37,11.5-9,40.8-11.9c-15.3,4.3-29,14.5-40.4,21.6C218.4,269.2,218.2,262.2,218.7,259.7z
			 M295.6,243.1c-16.4-5.7-35.5,0.8-52.6-3.6c-19.8-6.8-45.7-12.5-61.7,4.9c-2.9-11.8,6.7-19.4,9.8-29.7c0.2-11.9-6.7-18,6.7-26.1
			c22.2,0.1,48.6,5,63.6,14.6c21.7-6.3-41.9-23-53.6-20.8c-26.6-1-13.3-2.5-6.3-13.4c2.9-31.1,9.4-23.6,33.6-14.8
			c10.2,1.2,32.6,20.1,40.2,13.7c-0.7-9.2-42.4-19-50.8-25.1c4.4-3.2,6.3-9.2,12.8-9.2c7.9-1.8,12.2-9.4,22.3-9.4
			c12.1,8.8,24.8,18.4,35.3,30.1c23.3,3.6-33.4-37.3-37.8-40.1c9.6-11.2,22.5,3.3,34.8-2.6c8.1-3.6,11.3-2.8,19.6-1.5
			c6.1,7.9,16.6,11.6,21.8,20.3c7.4,12.2,7.3,34,23.4,39.2c2.9-0.6,3.8-4.5,1.1-6.1c-21.8-22.4-3-29.2-42.2-58.8
			C314,94.6,337.7,92.5,342,84c7.3-10.2,20.5-0.9,28.6-12.2c3.2-4,4.2-4.9,8.1-6.4c-3.1,4.8,1,90.4,13.4,71.9
			c-5.7-27-11.3-51.1-5.4-75c16.5-5.7,4.8-30.5,24-26.9c4.8,10.4,19.5,1.1,20.9,7.5c-0.3,5.2-3.4,10.9-4.4,15.3
			c5,11.5,8.9-7,10.6-10c1.1,11,12.3,11.2,3.9,23.1c-5.5,12-8,25.9-14.7,37.6c-23.9,35.3-0.3,73.1-20.4,105.2
			c3.9-4.6,0.4-54.6-8.6-38.5c0.8,10.3,9.1,32.3-1.4,40.3c-1.8-8.9-6.8-32.4-13.2-20.7c1.7,6.1,11,24,5.7,32.7
			c-12.2-9.2-24.7-29-29.5-42.5c-20.1-11.3,14.5,41.6,22.3,45.1c-6.9,3.2-17.8-6.9-22.1-10.1c-16.6-1.8,8,16.2,15.7,16.9
			c-14.9,8.9-36.1-3.4-53.2-3.1c-18.9,8.5,36.6,10.7,41.3,13C340.8,251,317.4,250.9,295.6,243.1z M360.8,58.7
			c7.5-9.5,19.3-12,30.4-13.8c-1.1,15.1-19,11.1-25.9,22.7c-3.4,4.9-8.6,3.6-14.2,4.4c-10,1.2-11.6,5.3-17.1,10.6
			c-7.5,5.5-25.6,9.5-25.8,20.4c-3.1-0.5-5.7-0.7-8.4-0.4c0.9-10.7,12.3-10.1,16.2-19.7C327.7,55.7,346.8,76.7,360.8,58.7z
			 M433,111.8c4.4-9.3,8.3-17.8,10.7-26.9c5.2,0.5,7.3,1,8.1,1.3c-2.4,6.5-0.7,13.3,1.2,19.1c-11.4,11.8-24.2,24.3-31.4,39.3
			C422.9,133.1,428,122.3,433,111.8z"/>
	</g>
</g>
</svg>
