<?xml version="1.0" encoding="utf-8"?>
<!-- Generator: Adobe Illustrator 27.2.0, SVG Export Plug-In . SVG Version: 6.00 Build 0)  -->
<svg version="1.1" id="Layer_1" xmlns="http://www.w3.org/2000/svg" xmlns:xlink="http://www.w3.org/1999/xlink" x="0px" y="0px"
	 viewBox="0 0 864 864" style="enable-background:new 0 0 864 864;" xml:space="preserve">
<style type="text/css">
	.st0{fill:#996699;}
	.st1{fill:#CC99CC;}
</style>
<g>
	<path class="st0" d="M855.5,404.6c-1.1-25.5-18.5-49.6-47.7-66.3l-3.4-2c-36.2-21.1-60.1-35-58.3-75.4c0.8-20.7,2.4-39.5,5.5-60.7
		c2.9-18.2,4.1-40.8-13.5-55.1c-18.1-14.6-41.7-15-62.5-15.4c-11-0.2-21.4-0.4-30.4-2.6c-9.7-2-19-5.4-28.8-9
		c-7.4-2.7-15-5.5-22.8-7.6c-2.6-0.7-5.2-1.4-7.8-2c-1.1-0.8-2.2-1.4-3.3-1.6c-7-1.8-14.1-3.9-20.9-6.2c-15.5-5-27-10-41.6-16.2
		l-9.5-4.1C463,61,420.4,51.5,379.8,51.3c-30.5,1-62.4,10.9-92.2,28.7c-14.7,8.7-27.1,19-36.8,30.6c-2.3,2.9-4.6,6-6.8,9.5
		c-2.5-0.1-5-0.2-7.5-0.2c-3,0-6.1,0.1-9.2,0.3c-19.5,1.9-37.6,13.9-48.4,31.9c-6.1,9.9-9.2,20.8-12.3,31.4
		c-2,6.8-3.8,13.3-6.6,19.9c-2.4,7.5-11.8,20.1-24.3,32.8c-8.5,8.5-17.6,15.8-27.2,23.5c-12.3,9.9-25.1,20.1-36.7,33.2
		c-24.5,26-36.2,62.2-31.2,96.5c2.4,23.2,15.5,45.7,36.8,63.4c-9.6,1.7-18.2,4.8-25.7,9.3c-17.3,11-28.9,27.6-32.6,46.5
		c-3.9,19.9,0.8,40.8,13.5,58.8c13.1,18.3,32.8,27.9,51.8,37.2c5.8,2.8,11.7,5.7,17.5,8.9c19.9,9.6,32.7,20.8,36.9,32.4
		c4,11,7,22.7,9.9,33.9c4.6,17.7,9.3,36,17.9,52.7c8.6,18.3,20.3,35.3,34.7,50.3c9.6,10.1,20.3,20.3,33.8,25.6
		c10.5,4.4,21.5,6.6,33.8,6.6c22.9,0,45.3-7.5,67-14.8l3.8-1.3c18.2-5.6,33.2-9,51.3-9c3.4,0,6.9,0.1,10.4,0.4
		c6.2,0.6,14.6,2.5,23.4,4.6c13.4,3.1,28.5,6.6,41.3,6.8c1,0,2.9,0,2.9,0c27.5,0,56.1-11,80.8-31c8.2-6.8,15.4-15.4,22-26.2
		c2.7-1.3,5.3-2.5,7.6-3.6c9.5-4.6,17.1-8.2,27.6-11.8c15.4-4.5,28.4-6.3,42.3-8.2c6.2-0.9,12.7-1.7,19.7-2.9
		c26.9-5.6,51.3-16.3,70.8-30.8c23.5-19.6,34.3-46.6,39.3-66c3.6-15.2,4.7-33,5.7-48.6c0.6-9.1,1.1-17.7,2-24.6
		c4.1-23.8,15.8-49.1,33.1-71.2c2.9-3.9,6.1-7.6,9.3-11.3c5.1-5.9,10.4-12,14.6-19.1C852.3,432.1,856.2,418.1,855.5,404.6z"/>
	<path class="st1" d="M490.8,779.3c-6,1.7-12.3,2.5-19.3,2.5c-13.8,0-28.4-3.2-43.8-6.6c-5.9-1.3-11.8-2.6-18-3.8
		c-5.6-1-11.5-1.4-17.7-1.4c-10.1,0-20.8,1.2-34.7,3.9c-11.3,2.3-23.8,6.3-35.9,10.2c-15.1,4.8-29.4,9.4-40.4,10.6
		c-3.8,0.4-7.5,0.7-11.1,0.7c-18.6,0-33.7-5.9-46.2-18c-22-20.4-37.8-45-48.4-75.4c-3-8.9-5.3-18.3-7.6-27.4
		c-3-12.3-6.1-25-11.1-37.1c-8.3-20.3-27.5-32.2-45-41.2c-4.9-2.6-10.7-5.5-16.6-8.5c-11.9-6-24.3-12.2-30.6-16.5
		c-10.5-7.6-18.8-17.8-22.3-27.7c-11.1-25.5-1.9-52.1,22.7-66.2c7.5-4,17.3-6,31.6-6.3c1.1,0,2.1-0.1,3.2-0.1
		c21.2,0,40.9,8.6,61.7,17.8c10.3,4.6,21,9.3,32.4,13.1c11.5,34.8,30,63.2,59.7,91.4c30.2,30.2,59.9,48.9,91,57.2
		c18.1,4,36.1,6.1,53.6,6.1c22.1,0,42.9-3.3,61.8-9.6c23.8-7,43.7-17.7,60.6-32.7c5.3,2.7,11.7,4.1,19.1,4.1c2.6,0,5.2-0.2,7.5-0.5
		c17-1.6,31.8-8.6,42.8-15.2l0.1,1.5c0.6,30.8-4.8,58.8-18.1,93.6C555.8,744.7,533,767.5,490.8,779.3z M486.7,92.3
		c8.5,3.1,17.6,7,27.1,11c1.3,0.6,2.7,1.1,4,1.7c-3.1,0.5-6.2,1-9.2,1.7c-28,5.7-50.6,22.8-72.5,39.4c-4.5,3.4-9,6.8-13.5,10.1
		c-5.1-0.4-9.5-1.1-13.5-2.1c-8.3-2.2-16.5-5.8-25.1-9.5c-12.2-5.3-24.8-10.8-39.2-13.2c-8.1-1.6-16.2-2.5-24.1-2.5
		c-8.9,0-17.5,1-25.5,3.1c-9.2-3.9-18.9-6.9-28.8-8.9c25.1-30.1,74.6-52,119.4-52c4.6,0,9.1,0.2,13.5,0.7
		C425.9,74.3,459.4,82.2,486.7,92.3z M286.3,457.8l-0.2-0.6c-0.6-2.2-1.3-3.8-2.3-5.3c-0.4-2.1-0.7-4.3-1-6.5
		c-2.2-16.3,8.8-32.1,20.7-36.6c2.8-1.2,5.7-2.3,8.6-3.4c6-2.3,12.2-4.6,17.7-8.1c0.4,10,2.7,20.1,6.6,29.4
		c10.9,25.2,34.7,50.6,63.5,50.6c11.9,0,23.4-4.3,34.5-13.2c0.7-0.6,1.4-1.2,2.2-1.9c2.4-1.9,5.4-4.4,7.1-8.2
		c16.4-4.7,26.9-15.7,28.5-29.7c1-6.2-0.2-11.8-3.5-16.1c-3.3-4.4-8.2-7-13-8.4c0.4-0.9,0.7-1.7,1.1-2.7c11.1,3.2,18,10.7,22,16.7
		c7.6,11.6,10.5,27.4,7.7,41.6c-1.6,1.9-2.5,4.2-2.5,6.5c0,0.6,0,1.1,0.1,1.6c-0.6,1.7-1.3,3.2-1.8,4.2
		c-4.1,6.8-14.2,13.1-25.7,16.1c-4.3,1.1-8.3,1.6-13,2.1c-2.6,0.3-5.4,0.6-8.3,1c-0.7-0.1-1.3-0.2-2.1-0.2c-1.8,0-3.5,0.5-5,1.5
		c-10.1,2.3-20.9,6.6-31.4,10.8c-13.1,5.3-25.4,10.3-35.4,10.7c-3,0.4-6.1,0.5-9.4,0.5c-1.7,0-3.3,0-5-0.1c-1.2-0.5-2.4-0.7-3.6-0.7
		c-0.7,0-1.3,0.1-2,0.2c-12.1-1.4-22.8-5.2-29.4-10.4c-11.7-9.3-21.1-23.4-26.1-38.7c0.2-0.7,0.2-1.5,0.2-2.3L286.3,457.8z
		 M423.7,408.1c-1.8,3.7-4.2,5.6-7.2,5.6v0c-2-1-7.8-6.8-9.1-14.1l-0.5-2.7c-0.3-1.3-0.4-1.8-0.4-3.1c0.3-0.4,0.6-0.9,1-1.3
		c2.2-3,4.7-4.5,7.5-4.5c2.8,0,5.7,1.6,7.9,4.1c2.1,2.5,3.1,5.5,3,8.5C424.1,402.7,423.3,405.4,423.7,408.1z M428.5,430.6
		c5.3-2.9,9.6-7.3,12.5-12.7c0.7,0,1.5-0.1,2.2-0.1c6.2,0,8.9,1.4,9.6,2.2c0.1,0.1,0.3,0.4-0.1,1.9c-1.9,11.9-16.8,14.3-25.8,14.7
		c-3.2,0-6.2-1.2-8.9-3.1C421.7,433.4,425.2,432.4,428.5,430.6z M440.4,382.6c-4.3-7.1-11.3-12.1-19.7-13.8
		c-1.9-0.4-3.8-0.7-5.8-0.7c-10.2,0-20,6.2-25.7,16.2c-1.2,1.3-1.9,2.9-2.3,4.8c-0.3,0.7-0.5,1.4-0.7,2.1c-4,11.7-2.5,25.6,4.4,39.1
		c5.9,11.5,14.3,19.7,23.8,23.5c-4.7,2.4-9.7,3.5-15.4,3.5c-1.1,0-2.2,0-3-0.1c-23.5-3.2-50.1-37.7-46-70.1
		c1.9-18.2,11.6-28,33-32.9c5.5-1.7,11.8-4.1,17.3-8.4c2.1-1.7,4.1-3.5,6-5.2c2.2-2,5.3-4.8,6-5.1l0.4-0.1l0.4-0.1
		c0.9-0.4,2-0.5,3.3-0.5c4.6,0,10.6,2.5,15.3,6.5C441.9,348.9,443.2,368.4,440.4,382.6z M396.9,298.9c4.7-1.7,9.6-3.5,12.9-3.5l1,0
		c13.2,0,23.9,8.4,33.6,26.3c1.2,2.4,2.2,4.8,3.1,7.4c-8.5-8.9-20.2-14.2-31.6-14.2c-1.1,0-2.2,0-3.5,0.2
		c-9.5,1.3-15.1,6.6-20.1,11.2c-3.2,3-6,5.6-9.4,6.8l-0.9,0.4c-0.8,0.4-3.9,1.4-6.5,2.1c-7.2,2.2-16.1,4.9-20.8,8.3
		c-6.7,4.1-12.4,9.6-16.7,16.3c-1.2,0.8-2.2,1.8-2.8,2.8c-5.3,7.3-11.1,14.7-18,18.4c-2.8,1.6-6.7,3.1-10.8,4.6
		c-5.4,2-11.3,4.3-17,7.5c-0.1-5.5-0.8-9.8-1.4-14c-0.7-4.8-1.4-9.4-1.3-15.5c-0.1-18.8,12.1-42.3,27.6-53.6
		c6.4-4.5,12.6-6.8,20-7.4c1.6-0.1,3.3-0.2,4.9-0.2c3.8,0,7.7,0.3,11.6,0.7l2.5,0.2c4.9,0.5,10,0.9,15.1,0.9c4.2,0,8-0.3,11.3-0.9
		C385.7,303,391.7,300.9,396.9,298.9z M506.1,429.3c-0.3-1.4-0.6-2.8-1-4.2c-5.3-21.7-20.1-39.1-39-45.5c8.6-25.7,5.3-54.2-9-75.5
		c-11.4-17.5-27.2-27.9-43.6-28.5c5.2-2,10.5-3.5,16.1-4.5c9-1.8,17.9-2.7,26.3-2.7c26.3,0,47.6,8.7,61.8,25.1
		c0.5,0.7,1,1.3,1.5,1.8c7.4,9.2,12.6,20.5,15.4,33.5C540.6,362.3,523.9,400.3,506.1,429.3z M564.1,449.7
		c-0.7,5.5-1.4,10.7-2.8,15.8c-2.8,10.5-6.3,15.6-16,23.8c-15.8,12.6-38,20.5-58.1,20.5c-10.6,0-20.1-2.1-28.4-6.3
		c7.9-1.6,16.1-4.3,24.1-9.6c10.7-6.4,18.2-16,21.2-27.1c0.2-0.6,0.3-1.2,0.5-1.8c17.4-19.3,28.7-42.6,36.7-60.8
		c15.8-32.3,23.7-82.6-5.4-119.5c-0.1-2.4-0.5-4.8-0.8-7c-0.2-1-0.3-2.1-0.4-3.1c26,4.9,50.6,28.9,58.8,58.5
		c6.2,21.1,1.5,43.3-15.3,72.1c-5.8,10.8-9.6,20.7-11.6,30.3C565.4,440.3,564.7,445.1,564.1,449.7z M512.5,263.3
		c-15.4-9.5-34.7-14.5-56.5-14.5c-11.6,0-23.7,1.4-35.8,4.1c-14.7,3.4-27.9,10.4-40.6,17.1c-4.3,2.3-8.5,4.5-12.7,6.6l-4.2,2
		c-4.2,2-6.9,3.3-12.3,5.1c-3.5-0.3-7.3-0.6-11-0.6c-2,0-4.1,0.1-6,0.2c-9,0.6-18.3,3.7-27.1,8.9c-20.9,14-35.4,38.2-38.7,64.8
		c-0.3,2.7-0.4,5.3-0.4,7.8c0,0,0,0-0.1-0.1c-7.4-9.1-14.4-17.8-16-26.9c-2.4-12.9,0.3-32.5,15.6-45.3c11-9.8,34.7-14.6,55.7-18.9
		c3.9-0.8,7.6-1.6,11.5-2.4c12.5-3.3,25.1-8.9,37.7-16.6c7.1-4.8,13.8-9.8,20.4-14.6c21.9-16.2,40.8-30.1,60.1-30.1
		c11.3,0,22.4,4.9,34.1,15.1C499.2,235.5,508.2,248.6,512.5,263.3z M233.2,309.7c-9.7,34.7,7.4,54.7,22.4,72.3
		c8.6,10.6,12.4,18.2,12.7,25.9c-0.7,2.8-1.5,5.7-2.4,8.8c-2.9,10.3-6.3,21.9-5.2,33c0.7,3.6,2.2,7.1,4.6,10.6c0.9,3.6,2,7,3.2,10.1
		c8.5,21.8,20.8,37.7,36.5,47.6c-16.5-3.8-30-19.6-44.3-36.4c-6.8-8-13.8-16.2-21.4-23.3l-1.8-1.6c-23.7-21.4-48.3-43.6-64.8-67.7
		c-13.4-18.9-22.9-33.9-22.1-55.4c0.7-40.2,37.2-74.1,79.8-74.1c7.8,0,15.6,1.2,23.1,3.6c5.7,1.6,10.7,3.5,14.8,5.5
		C254.8,274.9,239.8,286.4,233.2,309.7z M218.6,466.1l7.4,6.8c6.7,6.5,12.9,13.8,19,20.8c8.9,10.3,18.2,21,29.1,30.1
		c10.7,8.7,20.8,13.3,30.7,14c1.7,0.1,3.4,0.2,5,0.2c13.3,0,25.7-4.5,34.2-8.2c2.3,0.1,4.7,0.2,7.2,0.2c3.8,0,7.7-0.2,11.6-0.6
		c15.6-1.3,29.7-7.2,43.4-12.9c4.5-1.9,9-3.7,13.7-5.5c3.3-1.3,6.8-2.3,10.9-3.2c14.9,14,34.5,21.4,57,21.4c25.6,0,52.6-10,72-26.7
		c4.5-3.5,8.4-7.6,11.6-12.4c-0.1,0.4-0.2,0.8-0.4,1.3c-9.4,26.3-30.5,67.2-46.2,89.2c-23.2,31.2-54.1,43.1-84.1,51.2
		c-13.6,3.8-26.3,4.5-42.3,4.5l-6.9,0c-28.4-0.4-49.6-5.3-70.9-16.4c-18.8-9.6-30.6-19.8-46.4-34.3c-27.4-24.9-48.1-52.9-58.2-79.1
		c-6.5-15.8-11-39.9-13.7-55.4C207.8,456.3,213.2,461.3,218.6,466.1z M663.6,367.2c-23.2-17.2-42.9-35.7-53.8-50.4
		c-0.6-1-1.4-1.9-2.4-2.6c-7.3-16.7-19.3-31.8-33.8-42.5c-11.7-9.3-24-14.9-36.2-16.5c-2.5-0.4-4.9-0.6-7.1-0.8
		c-8-23.6-26.9-45-51.1-57.7c-0.7-0.3-1.3-0.7-2-1c18.8-16.8,41.2-25.3,66.7-25.3c2.1,0,4.2,0.1,6.3,0.2c29.1,1.1,49.8,17,56.7,43.4
		c14,54.3,21.7,60.4,53.9,86.3c4.5,3.6,9.5,7.6,15.1,12.2c13.8,11.9,27,23.6,35.4,36.5c10.1,15.5,17,35.8,18.4,54.3
		c0.3,6.1-0.5,12.3-1.6,18.5c-4.2-7-9.6-13.7-15.9-19.7c-9.1-8.8-21.1-16.6-31.8-23.4C674.1,374.5,668.1,370.7,663.6,367.2z
		 M539.5,598.5c-1.3,0-2.5-0.1-3.6-0.2c9.6-11.3,18-24.2,25.5-39.3c5.7-10.3,10.8-21.1,15.8-31.6c1.7-3.6,3.4-7.2,5.1-10.7
		c10-19.7,12.8-37.9,8.3-53.9l-0.6-2.2c-0.8-3.1-1.6-6.2-2.1-9.5c-0.8-4.2-1.2-7.5-1.7-11.1l-0.2-1.6c2.7-10.3,7.6-19.8,12.7-29.9
		c7.8-15.4,15.9-31.4,16.8-51c0.1-1.6,0.1-3.3,0.1-4.9c0.2,0.1,0.3,0.3,0.5,0.4c15.2,14.6,31.5,27.8,48.8,39.3
		c30.1,18,57.4,39.2,53.9,72.7c-0.8,8.9-6.6,25.7-14.6,32.8c-4.1,3.3-11.7,7.4-19.7,11.7c-7.5,4-15.3,8.2-21.4,12.4
		c-8.2,5.4-15.3,12.2-22.2,18.7c-4,3.8-8.2,7.8-12.1,11.1c-3.1,2.2-6.7,4.8-10.7,7.7c-17,12.3-40.2,29.2-54.8,34.8
		C555.5,596.9,546.8,598.5,539.5,598.5z M315.2,148.8c2.1-0.1,4.1-0.2,6.1-0.2c14,0,26.5,2.6,43.2,8.9c2.7,1,6.2,2.6,10.1,4.3
		c11.5,5.1,25.8,11.4,37.8,13c3.3,0.6,6.7,0.9,10.5,1.2c0.7,0.2,1.4,0.3,2.1,0.3c0.5,0,0.9,0,1.4-0.1c1.3,0,2.6,0.1,3.9,0.1
		c15.7,0,32.3-2.6,46.1-5c-8.5,5.7-15.9,12.1-22,19.1c-0.6,0-1.2,0-1.8,0c-23.7,0-45.8,13.4-60.2,24.6c-19.2,15.1-38,29.1-56.1,34.9
		c-7.8,2.3-16.3,4.1-24.6,5.9c-6.8,1.4-13.7,2.9-20.5,4.7c-5.6-5.6-12.8-9.1-19.9-12.1c-7.3-3-14.7-5.2-22-6.7
		c0-10.6,0-22.3,1.4-29.1c2.5-15.5,9.5-30.2,15.3-37.9c7.5-9.8,14.3-14,25.3-20.5C298.6,150.4,307.9,149.3,315.2,148.8z M244,172.9
		c-6.9,13-11.3,26.2-13,39.3c-1.4,9.2-1.4,18.5-1.3,27.4c-0.1,0-0.3,0-0.4,0c-26.5,0-52.6,11.3-71.7,31
		c-18,18.6-27.5,42.3-26.8,66.5c-0.2,25.1,13.2,46.4,27.6,65.7c6,8.4,12.9,16.9,21.2,25.9c1.8,19,4.3,35.1,7.6,49.6
		c-3.9-1.7-7.9-3.4-12-5.2c-18.4-8.1-37.4-16.4-58.2-20.4c-3-0.4-6-0.7-9.1-1c-1.7-2.3-4.2-4-6.4-5.2c-2-1.2-3.3-2.2-5.1-3.8
		c-1.3-1.1-2.7-2.3-4.5-3.6c-17.7-15.2-28-28-31.6-51.8c-5-31.6,8-65.7,34-89.1c9-9,18.3-16.4,27.2-23.5
		c10.4-8.3,21.2-16.8,31.8-28.1c11.2-12.2,20.9-23.4,25.9-37.8c2.6-6.9,4.6-13.4,6.5-19.8c4.6-15.2,8.5-28.4,19.7-38.2
		c6.6-6.5,18.1-11.1,27.9-11.2l1.6,0c3,0,6,0.1,9,0.3c1.5,0.8,3.2,1.3,5,1.3c1,0,2.1-0.2,3-0.5c6.2,0.8,12.3,2,18.2,3.5
		C258.8,152,249.8,161.8,244,172.9z M591,703.1c7.6-20.5,15.5-44.8,17.2-70.3c0.2-2.2,0.4-4.5,0.6-6.7c1.1-11.7,2.3-23.7-1.1-35.2
		c3.4-2.4,6.7-4.9,9.9-7.3l5.1-3.5c9-6.1,18.4-12.3,26.4-20.2c2.4-2.2,4.7-4.4,6.8-6.4c6.9-6.5,12.3-11.6,19.9-16.4
		c5.4-3.7,11.1-6.7,17.3-9.9c9.2-4.7,18.6-9.6,26.9-17.4c11.3-13,18.1-30.6,18.8-48.6c1-1.6,1.6-3.4,1.8-5.4
		c1.3-5.5,2.6-11.1,3.9-16.6c3.8-16.1,7.1-33.3,3.3-50.4c-5.5-31.3-22.1-59.9-46.3-80.3c-8.2-8-17.2-15.1-26-21.9
		c-9.7-7.7-19.8-15.6-28.3-24.4c-5.1-5.9-10.4-16.5-14.2-28.4c-1-3.5-2-7-3-10.6c-3.1-11.5-6.4-23.4-12.2-34.4
		c-15-28.3-47.1-38.3-72.1-38.3l-2.6,0c-6.5,0-13.1,0.6-19.6,1.6c-1-0.3-1.9-0.6-2.7-0.8c-0.6-0.2-1.2-0.3-2.1-0.6
		c-5.9-1.6-12.3-2.3-18.9-2.3c-5.8,0-11.9,0.6-18.1,1.8l-2.3,0.4c-7,1.2-14.1,2.5-21.2,3.5c15.6-11.5,31.5-21.8,47.3-26.4
		c12.2-3.3,24.2-4.9,36.8-4.9c16.5,0,33.7,2.8,52.4,8.6c5.5,1.7,10.9,3.7,16.4,5.7c8.1,3,16.4,6,25.1,8.2c16,3.9,32.1,4.3,47.2,4.3
		c22,0.1,36.9,4.5,44.5,13.2c5,5.7,6.8,13.2,5.4,23.2c-0.5,4.7-1.1,9.8-1.8,15.2c-2,16.8-4.3,35.8-5,53.1c-2.2,27.5,6,52.2,22.5,68
		c11.4,10.6,24.7,18.6,37.5,26.3c23.2,14,43.3,26.1,48.1,49.7c2.9,13.3-0.7,27.8-10.2,41.7l-2.5,3c-11.9,14.3-29.9,35.8-38.8,54.9
		c-7.5,15.5-12.4,29.4-15,42.7c-1.8,10.8-2.4,21.8-3,32.4c-0.5,9.1-1,18.6-2.4,27.8c-4.8,42.1-28.3,73.9-64.8,87.3
		c-18.4,8.4-36.1,10.9-54.9,13.6c-11.1,1.6-22.5,3.2-34.7,6.2c-7.8,2.1-15.3,4.9-22.6,8.1C587.6,712.2,589.2,707.9,591,703.1z"/>
</g>
</svg>
