<?xml version="1.0" encoding="utf-8"?>
<!-- Generator: Adobe Illustrator 27.2.0, SVG Export Plug-In . SVG Version: 6.00 Build 0)  -->
<svg version="1.1" id="Layer_1" xmlns="http://www.w3.org/2000/svg" xmlns:xlink="http://www.w3.org/1999/xlink" x="0px" y="0px"
	 viewBox="0 0 864 864" style="enable-background:new 0 0 864 864;" xml:space="preserve">
<style type="text/css">
	.st0{fill:#FFE4DB;}
	.st1{fill:#CC99CC;}
	.st2{fill:#FFCC99;}
</style>
<g>
	<path class="st0" d="M795.2,308.9c-7.7-2.8-15.9-4.1-25.2-4.1c-15.4,0-30.6,3.7-45.3,7.2l-6.2,1.5c-38.9,10.2-74.1,27.9-112.7,51.4
		c0.5-0.7,1-1.5,1.5-2.2c10.1-15.4,26.8-24.9,41.5-33.3c5.2-2.9,10.6-5.6,16-8.4c23.1-11.8,47.1-24.1,63.2-46
		c16.4-22.4,27.5-57.7,5-83.6c-13.5-16.4-32.6-29.5-60.4-41.2c-23-8.7-47.2-10.4-67.7-11c-6.1-0.2-12.3-0.4-18.5-0.4
		c-12.7,0-28.9,0.7-44.9,5.8c12.3-38.4,25.2-85.7,1.5-104.8c-5-3.8-11.3-5.9-18.4-5.9c-4.7,0-9.6,0.9-14.2,2.5
		c-17,5.8-29.9,17.6-42.5,29.1c-3.2,2.9-6.4,5.9-9.7,8.7c-17.6,15.2-29.3,22.8-47.9,24.5c-6.5,0.4-12.9,0.6-19.2,0.7
		c-33.3,0.8-64.8,1.6-92.5,36.8c-10.1,12-16.9,27.1-20.6,46c-14.4-19.5-30.7-36.2-48.9-49.9c-23.2-16.2-53.2-34.9-79.7-34.9
		c-14.3,0-25.9,5.4-34.6,16c-11.6,14.1-11.1,32.6-10.7,47.4c0.1,4.1,0.2,7.9,0,11.8c0.1,2.9-3.3,9.1-4.5,10.3
		c-4.8,4.1-10,7.6-15.5,11.4c-10.5,7.2-21.4,14.7-29.4,26c-8,12.2-12,26.1-11.3,39.2c0.9,11.1,5.8,22.8,14.1,33
		c13.2,14.8,28.5,22.4,41.9,29.1c17.3,8.6,32.2,16,41,36.5c1.3,2.5,2.6,5.1,3.8,7.7c7.1,14.3,14.5,29.1,25.8,41.2
		c7.2,7.9,15,14.5,23.2,19.7c1,2.5,2.9,4.6,5.4,5.7c0.6,0.5,1.2,0.9,1.8,1.4c0.4,0.3,0.9,0.6,1.4,1.1c24.7,19.7,41.1,40.2,45,56.2
		c1.8,7.6,0.2,13.7-1.9,21.5c-1,4-2.2,8.5-3.1,14.5c-0.2,11,4.5,20.3,8.9,29.3c1.6,3.2,3.2,6.4,4.6,9.7c5.9,13.5,9.3,24.8,7.9,39.4
		c-1.4,15.1-3.9,24.1-9.3,39.8c-5.6,14.1-11.2,32.7-5.3,50.8c4.5,15.5,14.8,26.3,22.7,32.8c7.9,6.2,17,10,25.8,13.6l5.3,2.2
		c16,6.8,26.3,13.1,39.3,24c8.5,6.9,17,17.1,26,28c6.2,7.5,12.6,15.2,19.3,22.1c7.9,7.8,17.2,11.9,26.8,11.9
		c11.6,0,23.2-5.9,32.7-16.6c2.3-2.4,4.3-5,6.2-7.7c16.3,6.6,34.8,10.9,59.6,13.9c8.9,1.1,17.5,1.7,25.7,1.7
		c23.8,0,44.9-4.8,62.8-14.3c25.7-14.1,41.7-31.3,47.4-51.1c3-11.1,2-22.1,1-32.8c-0.2-2.1-0.4-4.3-0.6-6.8
		c-2.4-15.3,4.8-20.6,21.3-31.1c3.3-2.1,6.8-4.3,10.5-6.9c7.2-5.4,7.1-15.1,7.1-18.6c0.1-13.3-6-26.7-18.4-40.9
		c-13-14.9-28.1-25.1-46.6-31.1c15.2-7.3,28.6-16.2,39.3-23.8c5.5-4,10.7-8.3,15.7-12.5c7-5.8,13.6-11.3,21.1-16.1
		c6.5-4.4,15.5-8.1,25-12c17-7,36.2-14.9,48.1-29.6c24.6-27.1,41-65,46.2-106.8l0.5-5.3C820.8,357.4,824.2,322.9,795.2,308.9z"/>
	<path class="st1" d="M799.5,359.3c-0.7,31-5.3,53.7-15.8,78.4c-15.6,36.4-35.3,56.8-63.9,66.2c-11.3,4.2-25.9,10.3-39,19.9
		c-5.7,4.2-11.1,8.6-16.6,13.1c-9.8,8-20,16.3-31.2,22.8c-14.2,8.9-36.5,19.9-52.9,21.6l-0.5,0c-0.7,0-1.4,0.1-2.1,0.2
		c-1.7-0.1-3.4-0.1-4.7-0.1c-13.1-1.4-28.8-8.1-38.5-14.1c-15.5-9.7-29.7-22.1-43.4-34.1c-16.7-14.6-34-29.7-54.3-40.7
		c-1.9-1-3.9-1.9-5.8-2.8c7.9,0.4,16.1,0.7,24.9,0.7c8.5,0,17-0.2,25.5-0.5c21.8-0.7,39.3-2.9,55.1-7c9.2,6.7,19.3,12.8,31.2,12.8
		c0.7,0,1.4,0,1.9,0c12.6,0,22.8-4.7,28.1-13.1c4.3-7.2,4.7-15.8,1.2-24.2c-4.1-9.7-12.7-17.2-22.2-19.5c-3.8-1.1-7.7-1.6-11.7-1.6
		c-12.2,0-23.5,4.9-31,13.5c-2.3,2.8-5.9,7.8-7.3,13.7c-23.8,5.1-45.2,5.8-63.1,5.8c-8.7,0-17.4-0.2-26.5-0.4l-1.9,0
		c-4.1,0-8.3-0.3-12.4-0.8c28.5-4.2,51.9-10.3,72.9-18.7c36.1-15,69.5-35.9,101.8-56.2c11.6-7.3,22.9-14.4,34.1-21
		c40.4-23.7,98.8-47.6,138.2-47.6c6.1,0,11.6,0.6,16.2,1.6C798.4,330.6,799.8,348.8,799.5,359.3z M628.5,705.1
		c-0.4,8.9,0.1,16.7,0.6,23.6c1.2,16.7,2,27.8-12.1,42C598.2,791.5,571,802,536,802c-20,0-42-3.4-65.4-10.2c-3.3-1-6.5-2.1-9.6-3.4
		c7.1-25.4-1.7-53.9-8.9-77c-6.7-21.5-10.5-45.2-9.9-61.7l0.2-4.2c2.4-44.2,5-93.7-15.7-135.2c0.5,0.3,1.1,0.6,1.6,0.9
		c15.8,8.3,31.2,21.7,47.4,36c21.3,18.7,43.4,37.9,68.9,47.8c13.5,5.8,27.4,6.8,40.8,7.8c12.4,0.9,24.1,1.8,34.5,6.5
		c17.2,6.1,36.6,23.6,44.2,39.7c2.8,5.9,3.7,11.1,2.8,15c-1.7,1.3-4.4,3-7.2,4.7C648.1,675.9,630.3,686.9,628.5,705.1z M267.2,669.5
		c1.5-4.8,3.1-9.6,4.7-14.3c4.8-14.4,9.8-29.2,11.1-44.7c2.2-16.6-1.1-34.4-9.7-53c-1.4-3.1-2.9-6.2-4.4-9.3
		c-3.8-7.9-7.8-16.1-7.1-20.4c0.3-1.7,0.9-3.8,1.6-6.2c2.3-8.7,5.5-20.5,3.6-30.9c-3.8-24-22-42.5-36.7-57.5
		c-1.4-1.4-2.8-2.7-4.4-4.1c7.3-1,14.5-1.5,21.6-1.5c26.7,0,53.8,6.9,82.7,21c45.9,24.1,74.6,53.3,85.2,86.9
		c5.3,15.6,9.3,43.1,8.7,60.3c-0.1,8.8-0.5,17.8-1,26.5c-1.1,21.5-2.2,43.8,2.2,65.6c2,10.8,5.3,22.3,8.6,33.4
		c5,17.1,10.2,34.7,9.8,48.4c-0.9,18.2-10,33.2-24.1,39.9c-2.2,0.9-4.2,1.4-6,1.4c-3.8,0-7.7-2-12.5-6.2
		c-4.4-4.3-9.8-10.9-15.5-17.8c-7.7-9.4-16.4-20-24.7-27.6c-13.6-13.3-30.2-24.2-49.4-32.4c-22-8.3-35.2-15.9-42.4-32.4
		C265.8,688.5,265.8,674,267.2,669.5z M119.2,189.5c4.3-6.2,5.8-17.7,4.5-33.9c-0.1-14.3,1-22.5,7.4-30.2c4.1-4.9,10-7.4,17.8-7.4
		c23.7,0,60.5,22.7,84.6,45.1c22,20.7,41.9,48.1,53.1,73.4c12.1,25.8,23.3,51.5,27.6,81c3.1,28.2,3.2,52.1,0.1,79.9
		c-0.8,6.9-1.9,13.8-3.4,21.2c-21.2-7.4-42.8-11.1-64.4-11.1c-13.4,0-26.6,1.5-39.4,4.4c-1.4-1-2.9-1.9-4.5-2.9
		c-3.7-2.3-7.6-4.8-10.5-7.8c-10.3-8.8-20.1-22.9-28.4-40.5c-15.6-36.7-33.3-45.5-53.7-55.8c-8.9-4.5-18.2-9.1-28.5-16.5
		c-15-11.1-21.8-28.6-16.5-42.9c4.1-13.4,9.5-18.6,22.6-29c2.9-2.2,6.1-4.3,9.4-6.4C105.6,204.5,114.5,198.8,119.2,189.5z
		 M402.4,119.4l4.9-0.1c18.5-0.7,37-7.9,52.1-20.1c7.3-5.3,13.9-11.5,20.4-17.4c8.3-7.7,16.2-14.9,25.4-20.7
		c5.1-3.3,13.5-6.9,19.8-6.9c1.6,0,3.7,0.2,5,1.4c14.3,12.6-0.4,58.6-12.1,95.5c-5.3,16.6-10.3,32.3-12.7,44.4
		c-2,7.2-3.9,14.5-5.8,21.7c-6.8,25.7-13.9,52.3-22.4,77.8c-7.9,22.9-21.5,52.2-30.6,69.2c-11.2,19-22.6,35.5-34.8,50.1
		c11.6-36.7,20.9-84.9,12.9-116.9c7.3-5.5,12.5-14.8,13.3-24.6c0.5-7.2-1.9-14.3-6.7-19.5c-4.7-5-11.1-7.8-18-7.8
		c-1,0-2.1,0.1-3.4,0.2c-8.5,1.4-16.1,6.4-20.3,13.3c-4.8,7.4-6.3,17.3-4,25.7c1.9,6.9,6.3,12.4,12.4,15.5c2.2,1.1,4.8,1.7,7.4,1.8
		c6,33.8-1.9,68.7-10.9,99.6c-0.1-1.5-0.7-8.3-0.7-8.3c-1.8-25.1-6.7-45.7-14.8-63.1c-1.2-2.6-2.5-5.3-3.8-7.9
		c6.7-10.5,9.5-25.5,0.8-37.1c-4.1-4.5-10-6.9-16.7-6.9c-6.1,0-12.4,2.1-17.1,5.7c-4.9,3.5-8.4,8.6-10.4,14.3
		c-0.4-1.6-0.8-3.2-1.2-4.8c-8.8-31.4-20.7-60.1-35.5-85.4c0.2-1,0.2-1.8,0.3-2.6l0.1-1.2c1.7-17.5,3.4-29.3,11.3-44.5
		C330.9,120.6,354.8,120.2,402.4,119.4z M336.6,351c-0.1-7.9-0.4-16.4-1.1-25.3c4.3,5,10.6,7.9,18.1,7.9l0.9,0
		c1.1-0.1,2.1-0.2,3-0.3c13.7,25.3,16.6,61.7,17.6,90.7c0.1,1.9,0.1,4,0,6.1c-2.1-1.1-4.2-2-6.3-2.9c-12.3-4.8-25.1-6.9-37.5-8
		C335.5,398.8,337.2,376.4,336.6,351z M581.1,366.2c-4.5,7.5-8.7,14.6-12.7,18.7c-0.3,0.4-0.7,0.7-1.1,1c-1.4,1.2-3.5,3-4.3,5.8
		c-22.9,13.7-51.7,30.2-75.4,39.8c-15.9,6.3-31.4,10.8-49.3,14.2c41.4-21.2,73-45.8,95.9-74.6c3.2,0.6,6.4,1,9.3,1
		c4.1,0,7.9-0.6,11.3-1.8c14.4-4.9,26.8-22,27.6-38.1c0.6-12-5.3-21.6-16-26.5c-4.3-2-8.7-3-13.2-3c-21.6,0-38.3,22.1-38.9,42
		c0,4.6,0.5,10.6,2.7,15.6c-17.7,21.2-39.8,39.7-67,55.9c16.4-16.3,31.4-34.2,42.4-54.8l1.8-3.5c5.6-10.8,11.4-22,16-33.8
		c9.2-1,17.2-8.3,21.3-15.7c3.8-7,4.2-15.9,1.2-23c-2.5-5.9-7.1-10.1-13.1-11.8c-2.4-0.7-4.8-1.1-7.4-1.1c-2.5,0-5,0.4-7.5,1
		c6.5-21.5,12.2-43.4,17.8-64.7l4.6-17.5c1.2-6.2,3.7-14.6,6.3-23c0.9-0.3,1.5-0.5,1.5-0.5c1.7-0.5,3-0.9,3.5-1.1
		c2.5-0.3,4.9-1.3,7.1-2.1c1.1-0.4,2.2-0.9,3.1-1.1l0.7-0.2l0.4-0.2c2-0.8,15.3-3.5,21.6-3.7c5.4-0.2,11.4-0.4,17.8-0.4
		c16.4,0,47,0.9,67.6,7.3c12,3.4,22.6,9.2,31.4,14.3c13.8,8.2,22.9,15,31.7,27.6c10,13.8,4.8,39.2-12.1,59
		c-12.4,14.7-31.6,24.7-52,35.2c-18.5,9.6-37.6,19.5-53.3,33.9C594.3,344.2,587.3,355.9,581.1,366.2z"/>
	<path class="st2" d="M542.8,475.2c-2-2.7-2.6-6-0.7-10.1c3.4-7.1,14-13,21.8-13c11.2,0,24.9,11.2,20.5,23.5
		c-1.7,4.8-6.5,8-11.5,9.1c-5,1-10.2,0.2-15.1-1.1C552.7,482.3,546,479.5,542.8,475.2z M521.5,352.2c-1.2-10.4,8.9-25.2,16.3-31.6
		c6.7-5.8,16.8-8.6,24.6-4.3c1.9,1,3.6,2.5,4.7,4.4c1.4,2.6,1.3,5.7,0.9,8.7c-1.5,10-7.1,19.5-15.2,25.6c-6.8,5.1-20,8.6-27.5,3.4
		C522.8,356.7,521.7,354.6,521.5,352.2z M494.6,293.6c7.1-8.7,20.1-15.4,24.6-7.6c1,1.8,1.2,4,0.9,6.1c-0.6,5.7-3.6,11-8,14.6
		c-4.3,3.4-13.4,7-18.8,3.8C487.4,307,489.6,299.8,494.6,293.6z M416.9,286.4c-1.6,1.9-3.6,3.5-5.9,4.7
		c-10.6,5.5-19.1-2.5-19.1-13.4c0-7.6,3.9-16.7,12-21.9c10-6.4,16.9,2.5,18.2,9.6C423.4,272.5,421.7,280.7,416.9,286.4z
		 M348.1,318.3c-4.6-3.5-6.8-11-6.5-16.2c0.2-3.2,2.3-12.7,6.4-13.4c5.3-0.9,12.2,5.7,14,9.4c3.6,7.5-0.8,25.2-11.2,21.6
		C349.8,319.4,348.9,318.9,348.1,318.3z"/>
</g>
</svg>
