<?xml version="1.0" encoding="utf-8"?>
<!-- Generator: Adobe Illustrator 27.2.0, SVG Export Plug-In . SVG Version: 6.00 Build 0)  -->
<svg version="1.1" id="Layer_1" xmlns="http://www.w3.org/2000/svg" xmlns:xlink="http://www.w3.org/1999/xlink" x="0px" y="0px"
	 viewBox="0 0 864 864" style="enable-background:new 0 0 864 864;" xml:space="preserve">
<style type="text/css">
	.st0{fill:#CC99CC;}
	.st1{fill:#FFE4DB;}
	.st2{fill:#FF9966;}
</style>
<g>
	<path class="st0" d="M589.3,493c7,0.3,14.4,1.2,22.2,2.1c10.4,1.2,21.1,2.5,31.9,2.5c0,0,0,0,0,0c15.2,0,28-2.7,38.7-8
		c34.4-14.4,53.1-48.4,62.7-74.4c10.7-28.9,15.3-54.5,13.8-78.4c-1.5-19.7-5.2-36.5-11.1-51.5c-4.2-10.3-8.9-19.7-13.4-28.7
		c-7-14-13.7-27.3-17.7-42.9c-0.4-1.6-0.9-3.2-1.3-4.9c-3.8-14.4-8.1-30.7-21-41.3c-11.1-9.3-24.8-13.9-40.5-13.9
		c-20.1,0-43.3,8.2-62.1,22c-9.7,6.8-18.7,15.6-27.8,27.1c2.9-24.7,2.9-52-11.2-74.9c-13.3-25.3-38.7-32.2-61.1-38.2
		c-7.2-2-14-3.8-20-6.1c-11.3-4.6-20-14.1-29.1-24c-4.1-4.5-8.4-9.2-13.1-13.6c-12-11.3-26.3-18.7-41.3-21.6
		c-4-0.9-8.2-1.4-12.3-1.4c-29.1,0-56.1,22.8-61.6,51.7c-1.9,8.2-1.8,15.9,0.1,22.7c1.6,6.5,3.5,13,5.3,19.3
		c1.2,4.2,2.5,8.5,3.7,12.8c-4.8,0.6-9.5,1.5-13.8,2.8c-25.2,7.1-39,29.1-51.2,48.5c-8.5,13.6-16.6,26.5-27.5,33.3
		c-6.9,4.5-15.1,4.5-26.4,4.5l-2.7,0c-14.8,0.4-31.5,0.9-45.7,9c-15.7,9.4-23.2,27.1-27.4,39.6c-10.2,29.5-4.9,58.4,1.3,77.4
		c5,15.7,12.7,30.4,22.9,43.8c-34,1-59.6,9.7-76.2,25.8l-0.2,0.2c-27.3,30.7-13.1,75.6-5.7,93.6c2.5,5.8,5.1,11.6,7.7,17.5
		c10.4,23.3,21.2,47.5,23.7,69.9c0.5,8.2,0.5,16.6,0.4,24.7c-0.1,17.1-0.2,34.8,4.6,51.8c8.3,37.3,43,64.4,82.4,64.4
		c1.6,0,3.2,0,4.7-0.1c16.5-0.6,31.2-8.1,44.8-16.2c10.8-6.9,20.1-15.7,29.2-24.2c12.6-11.9,24.5-23.1,38.8-27.4
		c6.5-2.5,13.2-3.9,20.2-5.5c5.9-1.3,12.1-2.7,18.1-4.7c4.8-1.7,9.5-3.9,14.1-6.5c-11.6,13.9-26.7,25.9-46.8,37.4
		c-15.5,8.7-36.6,20.5-47.5,40.6c-6.6,12.2-7.7,24.7-3.3,35.2c4.6,10.7,14.7,18.8,28.6,22.7c7.7,2.2,15,2.5,21.2,2.5
		c2.2,0,4.4,0,6.5-0.1c2,0,4-0.1,6-0.1c8.8,0,15.9,0.9,22,5.3c5.5,3.6,11,7.5,16.2,11.3c8.1,5.9,16.5,11.9,25.5,16.9
		c16.3,9.1,33.9,15.9,52.4,20.1c18.7,4.5,38.1,5.8,56.9,7.1l1.8,0.1c6.7,0.4,13,0.6,19,0.6c21.4,0,39.9-2.6,56.6-8
		c32.3-11,41.7-30.4,53.4-60.9c11-26.2,24.1-46.3,42.3-65.4c44.7-47.3,59.1-93.3,42.7-136.6c-12.3-33.3-44.7-53.4-71.6-67.2
		c-11.6-5.5-24-11-37.4-13.2c-2.9-0.5-6-0.8-9.7-1.2c-1.8-0.8-3.7-1.3-5.5-1.7c-1-0.2-1.9-0.5-2.7-0.8c-2.7-0.9-5.4-1.7-8.1-2.4
		c3.4-0.6,6.8-0.9,10.3-0.9L589.3,493z"/>
	<path class="st1" d="M504,445.1c-3.2-32.2-21.8-53.6-44.7-73.3c5.1-9.8,2.2-17.5,15.7-10.7c23.3,22,35.1,56.3,37.3,86.7
		C509.5,448.3,504.6,449.2,504,445.1z M466.1,389.8c-4.5-4.3-9.5-8.8-14.1-13.1c-3.8,2.1-8.2,3.4-12.5,2c-15.3,2.3,3.9,17.6,9,21.3
		c3.4-2.1,7.4-3.9,11.2-3.8C464.1,397.6,470,394.5,466.1,389.8z M331.1,112c14,34.8,5.9,69.9,7,105.8c1.6,57.3,74.7,76,78.4,135
		c8.8,0.6,7.5-5.2,10.5-11.2c4.8-9.3,17.8-14.6,26.8-8.2c2.2,1.5,5.2,0.4,5.9-2.1c18.8-38.6,58.5,1.6,24.1,26.4
		c14.7,16.3,25.5,36.3,31.7,59.2c1.1,4.6,8.8,3.2,8-1.6c-4.5-30.9-8.7-62.7-1.6-93.9c8.1-37.8,24.5-73.1,28.7-111.8
		c5.1-33.9,2.1-59.5-8.8-76c-22.2-39.3-85.9-26.4-110.5-68.1C390.8,7.9,302.6,41.4,331.1,112z M533.2,309.7
		c-18.3,59,7.2,115.1,3.6,173.7c2.7,25.3,23.1-6.4,51.7-2.5c29.4,0.8,45.9,7.3,70.4,3.3c87.1-21.4,108.6-149.1,65.6-219.8
		c-24-33.9-15.8-100-70.7-98.5c-44.9,0.7-75.4,33.4-99.5,71.1C548.6,261.8,540.1,285.3,533.2,309.7z M491.3,446.8
		c9.5-0.4-4.1-40.3-11.1-33.6c-4.9,3.4-1.5,11.9-5.8,16.5C480.9,433.1,483.9,446.5,491.3,446.8z M391.5,581c2.7,1.1,7.1,3.3,8.7-0.5
		c2.2-10.3,15.5-19.7,12.5-29.2c-8.2-4.7-14.7,11.1-20.3,16.1C393.6,571.8,392.8,576.8,391.5,581z M173.4,392.5
		c37.9,4.3,164.1,17.3,175.1,56.8c4.3,3.7,7.4,8,9.7,13.6c25.2,0.4,48.4,12.1,71.4,21.4c1.8,0.7,3.9-0.1,4.9-1.8
		c3.5-7.7-41.7-36.3-48.9-44.5c-34.4,14.4-60.4-41.8-13.5-37.1c10.2,5.6,18.3,17.6,17.5,29.8c29,21.1,55.6,52.8,90.6,58.2
		c31.6-25.9-73.9-41.5-88.8-87.1c-29.5,7.7-54.2-50.7-17.2-53.7c20.9,2.4,32.2,30.5,24.2,48.9c13.7,31.5,48.7,41.6,76,57.9
		c10.3-6-1.7-15.2-6.7-20c-15.1,3.6-31.8-14-24.6-28.8c-33.7-20.7-33.2-71.3-54.1-98.6c-69.8-56.2-58.8-83-58.3-162.9
		c-0.3-2.1-2.2-3.6-4.3-3.4c-48.6,0.2-56,70.1-97.5,87.1c-20.7,5.5-47.1-1.3-65.4,9.2C117.1,273.6,132.6,353.7,173.4,392.5z
		 M611,514c-24.3-7-53.4-3-78,1.7c-5.5,6.9-15.3,9-22.1,14c1.6,5.7,4.1,11.3,7.4,16.5c18.4-9.1,30.6,20.7,13.9,29.7
		c-14.2,8.3-28.9-9.6-18.5-22.1c-5.6-7.1-9.4-15.6-11.3-24.2c-20.8-9.3-14.9,38.2-15.1,52.4c0,0,0.3,2.5,0.3,2.5
		c8,4.5,13.5,15.9,10.5,24.6c-14.7,34.7-48.9-12.6-19.1-25.5c-1.5-20.6-1.6-40.7,6.6-61c-15.2-11.5-32.2,49.5-33.6,63
		c-0.5,2.9-0.1,6.1-1.9,8.7c1.9,7.7,0.3,15.8-5.7,22.1c-29.7,23.7-30.8-37.6-0.5-31.7c2.1-19.9,8.8-39.5,20-57.5
		c1-1.6,0.7-3.6-0.6-4.9c-31.7,2.3-59.7,69.8-69.9,96.3c-26.1,74.9-96.1,75.2-119.6,122.4c-13.2,43.6,43,33.8,69.4,39.3
		c47.2,30,84.5,57.7,148.4,57.8c84.1,3.8,104.8-1.8,137-84.6c22.3-43.7,64-64.4,76.2-116.8C723.7,575,656.1,526,611,514z
		 M325.2,650.7c31.4-5.7,54-24.6,66.1-52.1c2.7-2.7,6.5-9.2,1.2-11.3c-8.5,0-14.7,19.1-29.3,17.5c-41.4-9-10.4-63.5,23.6-44.1
		c57.9-56-4.2-18.4-44.3-30.3c-6.4,14.2-27.8,14.6-36.4,2.3c-15.3-25.7,22.4-33,36.7-14.2l2.6-2.9l-2.3,3.1c1.9-1.8,6-4.4,4.3-7.6
		c-7.5-21.5,24.1-25.1,36.1-13.2c0,0,1.5,1.1,1.5,1.1c11-3,24.4-2.1,36.1-1c9.5-13.7-54-27.5-63-26.8c-15.7,37.8-73.3-11.3-34-27.7
		c3.3-0.8,4-5.3,1.1-7.1C233,394,2.2,355.8,92.9,528.1c39.5,62.8,2.5,125.3,44.4,174.3C219.9,771.2,250.6,662.8,325.2,650.7z
		 M403.5,505.3c-6.2,0-10.7,0.5-15.8,1.6c0.3,5.6-12.4,14.5-1.9,16.3c10.6-2.9,45.4-1.2,40.3-16.5
		C418.4,506,410.6,505.3,403.5,505.3z"/>
	<path class="st2" d="M338.3,476.6c-6.9-0.1-14.8-4.4-17.6-11c-2.3-5.5-0.9-11.7,5.1-13.7c1.5-0.5,3.1-0.8,4.7-0.8
		C345.2,450.9,359.8,477,338.3,476.6z M372.5,565.3c-6.4,0-13,2.9-16.8,7.4l-0.2,0.2l-0.2,0.3c-5.1,8.6-3.3,14.3-1.9,16.9
		c2,3.6,5.9,5.7,10.4,5.7c6.3,0,12.4-3.9,15.9-10.3c4.4-5.7,5.6-10.6,3.6-14.6C381.8,567.3,377.8,565.3,372.5,565.3z M375.6,432.9
		c1.9-0.4,3.7-1.4,5.1-3.3c8-10.7-23-31.5-26-13.9c-0.4,2.4,0.6,4.8,1.9,6.8C359.9,427.5,368.8,434.2,375.6,432.9z M333.9,521.8
		c-2.8-3.1-10.2-6-15.2-6c-3.9,0-5.8,1.7-6.7,3.2c-1.4,2.3-1.1,5.1,0.6,8.4l0.1,0.2l0.2,0.2c2.4,3.3,6.6,5.3,11.1,5.3
		c3.5,0,6.7-1.2,8.7-3.3c1.5-1.6,2.3-3.6,2.2-5.7l-0.1-1.4L333.9,521.8z M358.2,500.3l-0.4,0.2l-0.3,0.3c-3.4,2.8-2.9,5.8-2.5,7
		c1.7,4.9,9.6,6,12.2,6.1l0.2,0l0.2,0c2.6-0.2,10.3-0.7,10.1-6.5c-0.2-5.7-9.4-8.1-14-8.1C361.5,499.2,359.7,499.6,358.2,500.3z
		 M372.7,357.4c-13-0.4-8,17.5-4.5,24.5l0.1,0.3c0,0,0.2,0.2,0.2,0.2c3.8,5.4,17,18.3,23,9c1.2-1.9,1.6-4.3,1.7-6.5
		c0.4-8.8-3.6-17.7-10.4-23.3c-2.4-2-5.1-3.6-8.2-4C373.9,357.4,373.3,357.4,372.7,357.4z M482.2,592.2c-5.6-0.1-7.6,9.3-6,14.1
		c1.1,3.4,4.1,6.5,7.6,6.2c3.6-0.3,6.1-4.2,6.4-7.8c0.4-3.8-1-9.2-4.5-11.3C484.4,592.6,483.3,592.2,482.2,592.2z M488.6,333.9
		c-0.6-8.8-6.1-9.4-7.8-9.4c-0.2,0-0.5,0-0.7,0c-4.2,0.4-8.7,4.3-11,9.6c-2.3,5.5-1.8,11,1.5,15.1c0.4,0.5,1.7,2.1,3.9,2.5l0.5,0.1
		h0.3c2.4,0,4-1.6,4.7-2.3C483.2,346.5,489,340.7,488.6,333.9z M528.7,554.3c-4.3-2.9-11.2-0.2-9.3,8.8c1.5,7.4,10.1,8.9,12,0.7
		C532.6,559.1,531,555.9,528.7,554.3z M439.1,593.8c-1.6-0.7-3.7-0.1-5.9,2.5c-2.4,2.9-7.4,17.5,0,17.8c2,0.1,3.7-2.3,5-3.6
		c2.5-2.6,3.9-6,4.1-9.5C442.5,597.6,441.1,594.7,439.1,593.8z M458.4,404.5c-2,0-5.7,0.8-8.1,6.1l-0.1,0.2l-0.1,0.2
		c-1.1,3.2-0.4,6.6,1.7,9.6c2.7,3.7,7.3,6.2,11.4,6.2l1.5,0l1.1-0.9c3.4-3,4.4-7.9,2.6-12.8C466.9,408.7,463.1,404.5,458.4,404.5z
		 M453.4,365c2.5-5.1,2.1-12.7-0.1-17.4c-10.7-22.6-33.6,18.8-10.7,22.8C448,371.3,451.5,368.8,453.4,365z"/>
</g>
</svg>
