<?xml version="1.0" encoding="utf-8"?>
<!-- Generator: Adobe Illustrator 27.2.0, SVG Export Plug-In . SVG Version: 6.00 Build 0)  -->
<svg version="1.1" id="Layer_1" xmlns="http://www.w3.org/2000/svg" xmlns:xlink="http://www.w3.org/1999/xlink" x="0px" y="0px"
	 viewBox="0 0 864 864" style="enable-background:new 0 0 864 864;" xml:space="preserve">
<style type="text/css">
	.st0{fill:#FFCCCC;}
	.st1{fill:#FFE4DB;}
	.st2{fill:#FF9966;}
	.st3{fill:#AACC9B;}
	.st4{fill:#996699;}
	.st5{fill:#CC99CC;}
</style>
<g>
	<path class="st0" d="M616.7,166.5c-2.9-1.1-5.8-1.8-8.8-2.3c-0.1-0.2-0.2-0.5-0.2-0.7c-1.3-3.6-2.8-7.2-4.6-10.6
		c-7.5-14.3-23.8-23.8-40-22c-3.1,0.2-5.7,0.9-8.1,1.9c-1.1-9.8-4.6-20.6-16.1-21.2c-0.2,0-0.4,0-0.5,0c7.4-10.4,10.4-22.8,2.3-40.6
		c-17.2,3.1-33,9.7-46.9,19.1c-0.1-0.2-0.1-0.4-0.2-0.7c-3.4-8.4-7.8-14.7-10-23c-1.4-5-2.5-10.7-6.7-14.2
		c-9.1-7.6-22.6-3.7-31.3,2.6c-4.6,3.3-8.3,7.7-11.5,12.3c0.1-0.7,0.2-1.5,0.3-2.2c1.2-8.6,1.7-18.1-3.1-25.8
		C425.9,29,414,28.6,405.9,25.5c-5.6-2.3-9.1-7.8-13.9-12.3c-3.5-3.3-7.9-5.7-12.7-6.6c-10-2.3-20.3,5.3-22.2,15.2
		c-0.5,2.2-0.6,4.5,0,6.7c1,3.9,2.3,7.8,3.2,11.7c-0.2,0-0.5,0-0.7,0.1c-1.7,0.2-3.4,0.5-5,0.9c-13,3.6-15.9,20.5-24.9,26
		c-2.7,1.8-5.7,1.6-9.9,1.6c-4.7,0.1-9.8,0.3-14,2.7c-4.4,2.6-6.7,7.4-8.2,12c-2.7,7.8-2.1,16.3,0.4,24c1.7,5.2,4.3,10,7.6,14.3
		c0.4,0.5,0.8,0.9,1.2,1.3c-10-0.1-19.9,1.8-26.2,7.9c-7,7.9-5.3,19.6-1.6,28.6c3.9,9.2,9.1,19.1,10.1,28.4
		c0.5,8.1-0.7,16.4,1.6,24.3c1.5,6.7,5.8,12.3,11.5,15.7c-2.3-0.2-4.6,0.1-6.9,0.6c-0.6,0.1-1,0.4-1.3,0.9c0,0.1-0.1,0.1-0.1,0.2
		c-0.1,0.1-0.2,0.3-0.4,0.4c-0.5,1.8,0.7,3.8,1.3,5.5c3.5,7.2,9.4,10.3,12.8,16.7c0.9,2.1,2.7,8.4,5.1,11.6
		c3.4,5.4,8.1,9.8,12.7,14.2c-2.4-0.6-4.8-1-7.2-1.5c-6.3-1.5-12.6-2.4-19.1-2.5c-8.1,0.1-16.3-0.9-24.4,0.5
		c-4.7,0.2-10.2,0.4-13.7,4c-0.9,1.1-1.4,2.7-0.8,4.2c1.9,3.5,4.4,6.4,6.7,9.6c1.1,1.5,2.1,3.1,2.3,3.7c0,0.1,0,0.1,0,0.1
		c-0.4,0.1-0.8,0.3-1,0.3c-4.3,1.3-17.6,2.3-16.3,8.7c0.3,0.8,0.8,1.5,1.4,2.2c3.7,3.1,7.9,5.7,12.2,7.9c-0.2,0.1-0.4,0.3-0.6,0.3
		c-3.2,2-6.1,4.7-7.5,8.3c-3.9,9.3,4.7,17.4,12.5,20.9c15.2,6.8,32.3,7.9,48.7,5.6c7.7-1.2,15.6-2.2,22.7-5.5
		c7.7-3.6,14.9-8.2,21.2-13.8c-3,5.4-5.7,11-7.6,16.9c-1.1,3.5-2.2,7.3-1.4,11c0.2,0.6,0.5,1.2,0.8,1.7c-0.1,0.3-0.1,0.7,0.2,1
		c1.9,2.7,3.6-0.7,4.8-2c2.4-2.6,3.4-3.3,6-5.4c6.5-5.1,13.3-8.2,20.9-10.4c6.7,9.9,12,21.7,16.4,34.8c-2.9-0.5-6.2-1.1-11-2
		c-3.4-0.8-7-1.8-10.2,0.3c-2.3,1.3-3.5,3.4-4,5.7c-1,1.4-1.6,3.1-1.7,5.3c0.8,18.4-0.3,25.7-5.5,43.9c-5,15.3-7.6,22.5-17.2,37.9
		c-14.7,23-41.1,49.6-59.6,78c-61.8,95.3-28.4,164.8,39.1,243.5c8.6,10.2,17.6,20.2,26.5,30.2c0,0.2,0,0.4,0.1,0.6
		c2.5,5.8,8.1,10,13,13.7c10.2,7.3,22.4,11.6,34.9,12.5c24.3,1.9,49.8-0.5,71.9-11.1c3.8-1.9,7.6-4,11.1-6.4
		c0.6-0.1,1.2-0.1,1.8-0.3c4.4-1.3,6.1-5.6,8.7-9c5.8-8.2,11.5-16.5,17.1-24.9c19.5-30.4,38.9-61.3,52.9-94.8
		c14.9-33.3,19.3-72.4,5.1-106.7c-11.2-26.5-32-47.2-48.3-70.5c-9.6-13-18.6-26.5-28.1-39.6c-7.1-9.8-14.6-19.3-20.9-29.7
		c-10-16.8-15.1-35.2-16.6-54.3c-0.3-3.7-0.5-7.3-0.8-11c0-3-0.5-6.1-2.9-8.1c-0.9-0.9-1.9-1.5-2.9-1.9c-1.1-1.3-2.6-2.3-4.4-2.7
		c-3.3-0.8-6.4,0.6-9.5,1.7c2.3-21.9,5.6-42.4,10.5-60.5c26.7,60.6,79.2,95.5,136.7,90.3c5.6-34.8-19-43-41.4-54.5
		c4.5-0.5,9.1-1.7,13.8-3.7c8.6-3.3,16.9-7.5,23.9-13.5c0.9-0.9,2.3-1.7,3.1-2.8c36.1-7.3,58.1-45.6,59.7-80.7
		c0.1-1.9,0.2-3.7,0.1-5.6C657.8,217.6,649.8,178.3,616.7,166.5z M414.6,310.5c0.8-0.4,1.7-0.8,2.5-1.2c-0.1,2.5-0.2,5-0.2,7.6
		c-2.5-1.8-5.8-2.9-9.1-3.4C410.1,312.6,412.3,311.5,414.6,310.5z M408.7,337.6c3.1-1.5,5.9-3.4,8.2-5.8c0.2,11,0.8,22.3,1.7,34
		C415.7,355.6,412.4,346.2,408.7,337.6z M431.4,335.2c0.3-13.1,1.4-25.3,3.2-36.7c1.6-1.2,3.2-2.5,4.7-3.8c-0.8,3-1.5,6-2.2,9.1
		C434.8,313.8,433,324.3,431.4,335.2z M426.5,814.6c-3.3,0-6.6-0.1-10.2-0.2c-13.5-0.4-27.7-1.1-41-3.6c-1.4-0.3-2.1-1.1-1.6-2l0,0
		c0.4-0.8,1.8-1.2,3.2-1c12.8,2.4,26.6,3.1,39.7,3.5c17.8,0.5,32-0.3,44.5-2.5c5.1-0.9,21.6-4.5,20.9-12.6
		c-0.5-5.8-11.2-10.1-20.9-11.7c-10.4-1.7-23.6-1.7-38.5,0c-1.4,0.2-2.7-0.4-3-1.2l0,0c-0.3-0.8,0.6-1.7,2-1.8
		c15.8-1.8,29.5-1.8,40.8,0c11.8,1.9,23.9,7.1,24.6,14.5c1,10.4-18.5,14.7-24.5,15.7C451.9,813.6,440.3,814.6,426.5,814.6z"/>
	<path class="st1" d="M406.8,282c-0.4,1.1-1.2,2.2-1.5,3.2c-4.7,9.8-11.9,18-18.7,26.2c3.3-2.1,6.6-4.2,9.6-6.6
		c0.5-0.4,1-0.8,1.5-1.2c0.1-0.1,0.1-0.2,0.2-0.3c2.4-3.4,4.1-5.8,6.3-9.1c2.2-3.7,4.3-7.6,6-12.1c0.4-1.1,0.8-2.3,1.1-3.6
		C410.3,280.2,408.7,281.9,406.8,282z M399.5,267c0.4,10.3-5.6,19.6-10.2,28.5c-1.5,3.4-3,7.7-3.8,11.7c1.2-1.5,2.4-3,3.6-4.4
		c5.6-6.5,9.4-11.9,13.3-19.7c0.3-0.5,0.5-1.1,0.8-1.7c-0.2-0.2-0.4-0.4-0.6-0.5c-3.6-3.8-1.5-9.9,3.7-10.6c3.4-0.3,5.7,2.9,5.6,5.9
		c0.7-2.4,1.3-4.9,2-7.5C409.1,268.3,404.3,267.9,399.5,267z M323.1,326.4c1.2,1.2,2,3,1.9,4.7c0.2,0,0.3,0.1,0.4,0.1c0,0,0,0,0.1,0
		c0.1,0,0.1,0,0.2,0c0,0,0,0,0.1,0c15.7,1.2,30.5-2.8,41.9-11.7c-4.2,1.1-8.5,1.9-12.8,2.3c-8,0.6-16.5,0.4-24.2-2.2
		c-1,1.9-3.4,4-4.5,4.6c-3.1,1.7-7.2,0.2-8.4-3.1c-0.7-1.8-0.3-3.8,0.4-5.6c1.2-3.5,5.2-5.6,8.8-4.5c1.6,0.5,3.3,1.4,4.2,2.9
		c0.5,0.8,0.9,1.7,0.9,2.7c12.1,3.2,23.8,2.7,35.6-0.6c-4.2-0.4-8.5-1.1-12.6-2.2c-7.7-1.8-15.1-4.9-21.9-9
		c-0.1,0.2-0.3,0.5-0.5,0.7c-0.9,1.2-2.2,2-3.6,2.5c-6.3,2.6-10.7-4.7-7.7-10c2.2-3.6,7.4-5.1,10.9-2.6c2.2,1.4,3.4,4,3,6.5
		c10.3,6.1,21.8,9.5,33,10.6c-2.2-1.2-4.3-2.4-6.4-3.8c-6-4.1-11.6-8.8-16.5-14.1c-1.4,1.6-3.8,2.3-5.9,1.9
		c-2.4-0.5-3.5-2.9-3.9-5.1c-0.3-1.2-0.2-2.4,0.3-3.6c-0.3-0.1-0.5-0.2-0.8-0.4c-2-1.8-3-2.8-4.7-3.7c-3.1-1.7-7-2.3-11.4-3.3
		c-6.5-1.4-11.8-2.5-17.6-2.6c-8.6,0.1-17.2-1-25.7,0.4c-4.5,0.1-8.6,0.6-11,2.2c-1,0.7-1.1,1-1.1,1.3c2.2,3.7,4.9,6.9,7.3,10.4
		c1.4,2,3.2,5.3,0.6,7.1c-4.4,1.6-9.2,1.9-13.7,3.6c-1.2,0.6-0.7,0.2-2.1,1.1c0,0,0,0-0.1,0.1c-0.1,0.1-0.2,0.2-0.3,0.4
		c1.2,2.2,12,8.3,14,8.9c1.8-0.2,2.5,2.5,0.8,3.2c0,0-0.1,0-0.2,0.1c-0.1,0-0.1,0.1-0.1,0.1c-1.9,1.1-3.8,2.2-5.4,3.6
		c-1.8,1.6-4.2,4.3-4.4,7.8c-0.8,6.9,8.6,13.5,16.8,15.8c13.9,4.8,26.9,5.2,41.6,3.3c8.1-1.2,17.3-2.7,23.7-6.2
		c7.6-3.8,14.8-8.8,20.1-13.8c0,0,0.1,0,0.1-0.1c-1.2,0.6-2.5,1.2-3.7,1.8c-10.7,5.4-23.1,6.7-34.9,5.5c0,0.9-0.7,1.5-1.3,2.2
		c-1,1-2.1,1.7-3.5,1.9c-6.1,0.4-8.6-6.4-5.1-10.9C315.8,324.6,320.4,324,323.1,326.4z M395.9,266.3c-3.1-0.8-6.2-1.7-9.1-3
		c0.6,1.1,1,2.5,1,3.8c0,3.2-2.1,6.4-5.1,7.4c0,0,0,0,0,0c0.5,11.5-2.1,22.8-0.8,33.5c0.4-2.7,1.1-5.3,2-7.9c1.4-4.7,3.8-9,6.2-13.3
		C393.7,279.3,396.5,273.7,395.9,266.3z M380.9,260.5c-0.2-0.1-0.5-0.2-0.7-0.4c-4.7-2.6-8.8-6.1-13.3-9c-4.8-3.5-11.4-0.7-18.2-2.6
		c-8.2-2.3-11.4-9.2-7.3-16.7c0.5-1,1.2-1.9,1.8-2.7c-0.6,0-1.1,0-1.7,0.1c-4.3,0.2-8.7,0.2-13-0.5c-3.1,1.7-6.4,3-9.8,3.3
		c1,1.1,2.1,2.2,3.1,3.2c1.1,1.1,2.6,2.7,0.9,4c-0.4,0.2-0.9,0.4-1.3,0.2c-2-0.9-3.7-2.2-5.7-3.1c-6.3-3.6-12.5-5.5-18.3-4.4
		c1.9,7.3,9.3,11.1,13.6,18.9c2.2,5.3,2.9,8.8,6.2,13.2c5.3,7,13.1,14.4,21.1,20.5c0.4-0.3,0.8-0.5,1.3-0.7c3.2-1.6,7.7-0.6,9.5,2.6
		c1.5,2.4,0.4,4.7-0.8,6.2c7.3,7.6,14.6,13.3,23.6,17.9c-1.6-1.9-3.2-4-4.5-6.1c-5.2-8.4-9.1-17.6-11.3-27.2c-1,0.5-2.3,0.2-3.2-0.3
		c-5.5-3.4-2.2-11.5,3.1-13.1c3.5-1.1,6.9,1.3,7.1,4.9c0.2,2.9-1.4,5.7-3.8,7.3c0,0.1,0,0.2,0.1,0.2c1.8,8.2,5.1,16,8.5,22.3
		c2.5,4.4,4.8,7.9,7.8,11.1c-1.3-2.8-2.5-5.8-3.5-8.7c-1.9-6-2.6-12.3-2.8-18.5c-2.3-0.3-4.4-1.8-5.1-4c-1.1-3.8,1.6-8.1,5.4-9
		c1.8-0.5,3.7-0.3,5.2,0.5C374,265.6,376.3,261.4,380.9,260.5z M426.4,268.7c-3,0.2-6,0.2-9,0.1c-1.2,4.5-2.3,9.1-3.9,13.8
		c-0.7,2.1-1.6,4.1-2.6,6.1c0.1,0.6-0.1,1.2-0.4,1.6c-0.8,1.3-1.8,2.9-2.7,4.3c6-5.4,12-11.3,17.5-17.4c0,0,0.1-0.1,0.1-0.1
		c-0.2-0.3-0.4-0.7-0.6-1C424,273.5,424.8,270.8,426.4,268.7z M379.2,275.7c-0.6-0.1-1.2-0.4-1.7-0.8c0,0.2-0.1,0.4-0.1,0.6
		c-0.4,2.2-1.6,4.1-3.5,5.3c-0.5,0.2-1,0.6-1.5,0.7c0.4,9.8,2.1,18.6,6.1,26.7c-0.2-1.4-0.4-2.9-0.5-4.4
		C377.6,293.6,379.7,285.4,379.2,275.7z M408.3,333.9c-0.3,0.2-0.6,0.4-1,0.5c-5.9,3.1-15.3,4.7-22.9,6.8c-0.3,0.1-0.5,0.1-0.8,0.2
		c-5.7,1.8-11.1,4.4-16.2,7.6c-3.8,2.6-7.4,5.4-10.5,8.8c-0.3-1.9,0.3-5,1.4-8.3c1.9-6.3,6.1-14.7,10.3-21.4c0.5-0.8,1-1.6,1.5-2.4
		c0.2-0.3,0.3-0.5,0.5-0.7c0.2-0.1,0.4-0.2,0.5-0.4c0.2-0.3,0.4-0.5,0.6-0.8c0.5-0.5,1-0.9,1.6-1.2c1.6-1,3.6-1.5,6.2-2.9
		c2.6-1.2,5-2.7,7.3-4.3c0.1-0.1,0.2-0.1,0.2-0.2c2.3-1.3,4.5-2.8,6.6-4.3c1.4-1,2.8-2.1,4.2-3.1c1,0,1.5-0.9,2-1.6
		c4.9-4,9.6-8.3,14.1-12.7c4.8-4.6,9.8-9,14-14.1c0,0,0,0,0.1-0.1c3.8,0.7,7.9-2.1,9.3-5.7c0,0.3,0.1,0.6,0.2,0.9
		c0.8,4.4,3,9.2,5,12.5c-10.6,10.6-23.3,18.3-37.1,23.7c-1.6,0.6-3.2,1.2-4.9,1.6c-0.5-0.1-1-0.1-1.6,0.1c-0.3,0.2-2.4,0.5-3.9,0.5
		c0,0,0,0,0,0c-0.1,0.1-0.2,0.2-0.3,0.3c-0.2,0.2-0.4,0.2-0.7,0.4c-0.3,0.2-0.6,0.4-0.9,0.6c-0.6,0.5-1.2,1.1-1.7,1.7
		c0.2,0.5,0.6,0.8,1.1,1c1.7,0.3,3.5,0.3,5.2,0.2c2.2-0.1,4.4-0.3,6.6-0.2c2.3-0.1,6,0.8,7.8,1.6
		C421.3,321.8,417.2,329.2,408.3,333.9z"/>
	<path class="st2" d="M319.8,319.5c-0.5-6.3,7.5-8.7,9.7-3.2C328.9,320.7,321.2,325.9,319.8,319.5z M332.6,299.9c-1-3.2-7-5.1-8.9,0
		c-0.5,1.4-0.9,3.7,0,5.1c1.9,2.8,6.1,0.2,7.8-1.5C332.7,302.3,332.9,301,332.6,299.9z M346.9,287.7c-7.4-9.6-14.2,11.2-2.9,5.2
		C345.5,292.6,348,289.7,346.9,287.7z M321.4,328.2c-5.3-4.4-10.2,7.3-3.2,7.8C321.8,335.5,324.2,331.4,321.4,328.2z M407.2,272.6
		c-3.7-0.7-5.4,5.6-1.9,7.2C409.5,280,411.1,273.7,407.2,272.6z M432.6,267.7c-3.8,0.1-7.5,5.4-4.8,8.5
		C430,279.8,440.8,270.7,432.6,267.7z M381.9,262.8c-7.3-0.2-5.6,14.3,1.4,8.7c1-0.8,1.6-2.2,1.8-3.5
		C385.6,265.6,384.7,262.9,381.9,262.8z M374.9,273.2c-6.1-7.9-13.8,9.6-3.3,6.2C373.4,278.7,376,275.4,374.9,273.2z M360.4,268.7
		c-1.4-6.3-9.4-0.4-8.2,3.9C354.1,278.1,360.7,273.5,360.4,268.7z"/>
	<path class="st3" d="M442.6,157.7c-0.1,0-0.2,0-0.3-0.1c0.4-1.1,0.8-2.3,1.3-3.4c0.2,0,0.3,0,0.5,0c8.1,0.3,17.8,3.1,26.5,0.1
		c-1.7,4-3,8.1-3.9,12.4c-2.1-1.3-4.3-2.5-6.5-3.6c-3.7-1.8-7.6-3.4-11.6-4.1c-1.1-0.2-2.2-0.3-3.3-0.4
		C444.5,158.1,443.3,158,442.6,157.7z M497,105.6c0.4,7.1-0.9,14.2-3.1,20.9c7.8-5.1,16.4-9,25.4-11.6c6.2-1.8,12.5-3.8,19-3.3
		c7.4-10.4,10.4-22.8,2.3-40.6c-17.2,3.1-33,9.7-46.9,19.1C495.7,95.1,496.6,100.3,497,105.6z M547.5,354.4
		c-12.1,1.3-23.6-2.5-34.5-10.4c-2.4-1.9-4.8-4-7.1-6.1c-0.3,0.4-0.6,0.7-1,1.1c-3.1,3-7.4,4.8-11.7,5.3c-11.1,1.7-18.9-5-23.7-14.4
		c-3.6-7-7.8-18-11.7-22.6c-4.7-5.4-10.4-10.1-14.8-15.8c-1.2,1.1-2.4,2.2-3.7,3.3c-0.8,3-1.5,6-2.2,9.1c-2.3,10-4.1,20.5-5.6,31.4
		c0.3-13.1,1.4-25.3,3.2-36.7c-5.5,4.2-11.3,7.8-17.5,10.8c-0.1,2.5-0.2,5-0.2,7.6c3.4,2.4,5.2,6,3.1,10.8c-0.8,1.5-1.9,2.8-3,4
		c0.2,11,0.8,22.3,1.7,34c-2.8-10.2-6.1-19.6-9.8-28.2c-4.3,2.1-9.1,3.5-13.6,4.6c-3,0.6-5.9,1.3-8.6,2.1
		c7.1,10.6,12.8,23.2,17.3,37.5c3.3,0.5,6,0.8,9.7,1.2c8.3,1,23.9,0.6,24.5-0.2c1.2-0.1,2.3-0.4,3.5-0.8c2.3-23,5.7-44.3,10.8-63.2
		c26.7,60.6,79.2,95.5,136.7,90.3C594.5,374.2,569.9,365.9,547.5,354.4z"/>
	<path class="st4" d="M538,205.3c1.1,0.1,2.2,0.2,3.3,0.5c-4.3,4-7.3,9.6-9.2,15.1c-6,19.3,5.9,42.4,22,53.2c3.9,2.6,8,4,11.9,4.2
		c4.3,7,11.8,11.7,19.8,13.6c-1.1,0.8-1.9,1.8-2.3,1.9c-4.5,3-7.2,4.4-11.7,5.6c-10.2,2-22.3-0.6-33.8-5.1
		c-15.9-6.1-28.6-23.2-31.7-41.9c-2.3-18.2,2.7-38.5,20.3-44.8c3.5-1.3,6.5-2,9.3-2.2C536.7,205.6,537.4,205.7,538,205.3z
		 M583.8,226.9c-2.3-2.7-5.6-4.5-9-5.9c-5.4-1.8-11-0.4-14.5,2.6c-3.5,3.3-5.8,6.7-6.9,11.1c-1.8,8.1,2.6,18.7,10.2,21.1
		c4.7,1.2,5.1,1.2,6.9-1.4c1.6-2.7,1.3-6.9,2-12.1C573.4,235.5,577.6,229.7,583.8,226.9z M612.3,235.1c0.6-26.5-34.5-37.9-58.2-31.3
		c-2.7,0.7-5.1,1.8-7.2,3.1c-0.1,0.1-0.3,0.2-0.4,0.3c-0.6,0.4-1.2,0.9-1.8,1.3c-2.9,2.2-6.6,8.6-7.4,10.8
		c-8.2,18.2,4.6,42.9,21,52.4c7.8,4.2,17.3,3.5,21.2-5.6c0.8-1.5,1.7-4.7,1.1-6.2c-0.8-2.2-2.7-5.2-5-7.2c-0.8,3.6-2.4,6.8-6.5,8.1
		c-16.8,1.8-25.7-21-17.1-33.7c8.5-15,26.3-14.1,36.4-1.3c4.8,7.1,2.8,16.6-1,23.8c-1.1,1.9-2.4,3.7-3.8,5.3
		c-0.1,0.1-0.2,0.2-0.3,0.3c1,1.7,1.6,3.6,1.8,5.4C599.1,260.2,612,248.5,612.3,235.1z M635,250c12.4-26.3-4.4-63.9-36.4-67.7
		c-10.1-1.8-21.7-1.8-32.2,1.3c-7,2.3-14.7,6.9-20.4,12.5c-0.7,0.7-1.3,1.4-1.9,2.1c-0.1,0.2-0.3,0.3-0.4,0.5c-0.9,1-1.7,2-2.4,2.8
		c1.4,0.3,2.9,0.7,4.2,1.3c17.7-9.8,48.6-5.1,62.2,9.7c6.6,6.9,9.4,15.2,9,23c1.9,2.4,3.5,5.1,4.7,7.9c3.7,8.1,3.8,17.2,1.4,25.7
		C627.6,263.8,631.6,257.6,635,250z M548.5,143.3c-4.3,6.1-5.4,12.3-8.3,20c-1.3,3.7-3.7,7.8-7.9,8.4c-6.4,0-15.1-2.1-20.2-1.1
		c-7.5,1.2-12.3,5.1-14.2,10.9c-1.4,4.1-0.9,8.2-0.5,13.6c0.8,8.5,1.5,17,0.7,25.6c-1.4,12.6-3.4,25-0.1,36.2
		c3.1,11,10.5,23,19.8,28.4c-10.6-11.6-16.8-27.4-16.1-43.1c0.3-10,2.6-20.5,9.2-28.3c5.6-6.9,15.6-12.4,25.1-12.7
		c0.4-0.5,0.8-0.9,1.1-1.4c0.8-1.1,1.7-2.1,2.6-3.1c0.4-0.7,1.2-1.3,1.7-2c5.2-5.8,10.9-11.1,17-15.9c12.3-9.9,28.8-16,44.7-14.9
		c-0.3-0.8-0.6-1.7-0.9-2.5c-1.3-3.3-5.3-11.2-8.6-14.2C582.1,134.1,557.7,129.8,548.5,143.3z M586.8,233.9
		c-0.1-1.2-0.4-2.2-0.8-3.2c-0.7,0.3-1.4,0.5-1.9,0.9c-3.7,2-5.4,4.5-6.7,8.7c-0.7,1.9-0.9,4.6-1.1,7.5c1.6,1,3.1,2.4,4.5,3.9
		C584.8,246.7,587.5,238.7,586.8,233.9z M479.5,289.3c-0.3-7.4,0.7-15,2.8-22.1c2.3-7.3,7.3-15.2,9.3-20.5c0.1-0.3,0.2-0.6,0.4-0.8
		c-0.4-7.4,0.4-15.1,1.4-23.2c-2.7,2.5-6,4.5-9.9,4.3c-4.2-0.3-6.9-3.4-9.1-6.9c-1.7,2.2-3.5,4.4-5.4,6.4
		c-6,6.3-10.2,12.9-13.8,21.3c-3.5,9.3-6.3,15.4-16.3,18.8c0,0-0.1,0-0.1,0c0,2.7,0.3,5.4,0.8,7.5c1,5.4,4.3,11.7,6.5,14.7
		c3.8,5.3,9.2,9.1,13.5,14c5.1,5.8,8,13,11.1,19.9c3.5,7.4,6.3,12.9,12.4,16c4.1,2,11.9,2.1,16.9-1.4c1-0.6,0.7-0.5,2.1-1.8
		c0.3-0.2,0.7-0.9,0.4-0.5c0-0.1,0.1-0.1,0.1-0.2C490.5,322.4,481,306.7,479.5,289.3z M643.2,249.6c0.2-0.7,0.4-1.5,0.7-2.2
		c-0.2-2.8-0.6-5.4-1.3-7.8c-2.7,14.7-11.3,28.7-22.7,37.9c-0.2,0.1-0.5,0.2-0.7,0.3c-5.5,9.5-16.4,15.8-27.5,15.1
		c-0.6,0-1.1-0.1-1.7-0.2c0.1,0.4,0.1,0.9-0.1,1.3c-6.5,6.8-16.3,10.8-25.8,10.4c-14-0.6-28.4-4.7-39.8-13.2
		c0.9,2.6,1.6,4.8,2.9,7.2c6,12.7,14.6,21.3,27.6,27.2c35.6,18.1,73.1-10,84.1-46.4c2.4-8.2,4.8-18.2,5-27.4
		C643.3,251.3,642.9,250.5,643.2,249.6z M606.6,168.4c-0.5,0.1-0.9,0-1.3-0.2c-0.9-0.1-1.8-0.2-2.8-0.3
		c-14.2-0.5-27.9,4.3-39.1,12.4c13.6-4.9,29.1-4.1,43-0.6c22.2,5.8,36.8,28.5,37,50.8c0,0.3,0,0.7,0,1c0.9,0.7,1.3,1.9,1.9,2.9
		c0.4,0.9,0.8,1.9,1.1,2.8c0.6-3.4,1.1-6.6,1.3-10C649.3,198.1,633.9,172.7,606.6,168.4z M491.3,133.7c-3.2,7.2-7.8,13.9-14.5,17.9
		c-2.8,5.5-4.9,11.5-6.2,17.7c5.2,3.8,9.7,8.5,12,14.6c4.4,11.6,1,22.7-5.3,32.2c2.2,4,4.8,6.7,7.3,6.4c1.7-0.1,3.5-0.8,5.4-2.7
		c1.6-1.2,2.6-3.1,4.1-4.2c0.4-10.7-2.1-21.5-1.2-32.2c1.4-11.2,12.2-18,23-17.5c16.4,0,17.1,6.9,22.3-9.9c2.6-8.6,6.2-16.4,12.7-21
		c0-0.1,0-0.1,0-0.2c-0.5-7.7-3.1-15.8-7.8-17.9c-7-2.6-13.2-0.5-21.6,1.8c-10.6,3.1-18.9,6.8-28.4,13.5
		C492.4,132.8,491.8,133.2,491.3,133.7z M618.7,267.4c2.4-8.2,1.5-16.3-1.8-23.2c-0.4-1-0.9-1.8-1.3-2.6
		c-2.9,10.4-11.4,19.3-23.9,22.5c-2.3,0.5-4.7,0.7-7.1,0.8c-2.1,7.5-7.3,12-13.6,13.2c0.1,0.1,0.1,0.1,0.2,0.2
		c0.6,0.9,4.1,4,3.4,3.4C591.2,295.4,613.9,287.3,618.7,267.4z M562.9,333.4c-8-2.7-15.9-6.1-22.6-11.4c-9.8-7.8-17.2-19-20.6-31.1
		c0,0,0,0,0,0c-7.1-2.8-12.7-8.4-17.1-14.6c-5.4-7.5-8.3-14.8-9.7-22.3c-2.1,4-4.5,8.8-5.5,11.4c-3.7,9.8-4.5,20.2-3.1,28.9
		c3.8,18.4,17,35.4,30.9,46.1c21.3,15.5,38.8,11.4,60.8-1.7c2-1.3,3.1-2.1,4.4-3.2C574.7,335.7,568.6,335.3,562.9,333.4z"/>
	<path class="st2" d="M405.5,103.5c0.8-1.4,2-2.1,3.6-2.2c1.3,0,3,1.6,3,2.6c0.2,1.4-0.8,3-1.7,4.2c-0.5,0.6-1.2,1.6-1.9,2
		c-1.4,1-2.6-0.7-3.1-1.8C404.7,106.9,404.7,105,405.5,103.5z M401.3,110.6c0.1,2.7-0.7,5.1-3.6,5.8c-1.3,0.3-2.8-1.5-3.4-3
		c-1.4-3.8,0.7-7.2,3.7-7.2C399.3,106,401.2,108.5,401.3,110.6z M405.6,131.3c0,1.7-0.1,1.7-1.1,2.9c-0.2,0.1-0.3,0.1-0.9,0.1
		c-1.5-0.1-3-0.8-4-2.6c-1-1.7-0.2-3.9,2.3-4.5C403.4,126.7,405.5,128.8,405.6,131.3z M381,124.3c-0.2,0.2-0.4,0.4-0.7,0.5
		c-2,1-4.4-1.3-5.8-2.5c-1.4-1.3-2.5-2.9-3-4.7c-0.7-2.5-0.4-6.9,3.2-6.7c1,0.1,2,0.6,2.8,1.2c2.3,1.7,3.8,4.4,4,7.2
		C381.7,120.8,382.1,123.1,381,124.3z M377.6,135.5c0,0.1-0.1,0.1-0.1,0.2c0,0,0,0,0,0c-0.1,0-0.1,0.1-0.2,0.1
		c-1.3,0.4-2.5,0.3-4.6-0.4c-1.4-0.4-3.7-2.2-3.9-3.5c-0.5-1.5,0.5-2.8,2.1-3.4c1-0.2,0.7-0.2,2.3,0.2c1.6,0.7,1.6,0.8,2.9,2.1
		C377.6,132.7,377.4,133.4,377.6,135.5z M367.8,148c0,0.1,0,0.2-0.1,0.3c-1,3.2-5.8,3-7.9,1.3c-4.3-3.4-3.6-9.1,2.8-7.7
		C365.1,142.4,368.4,145,367.8,148z M377.5,160c0.5,4-7.5,2.8-9.1,0.7c-0.9-1.4-0.5-2.4,0.9-3.3c1.9-1.4,7.7-0.2,8.2,2.4
		C377.5,159.9,377.5,160,377.5,160z M363.5,165.2c0.5,1.7-1.4,3.2-3,3.7c-2.1,0.5-4.1-0.3-5.5-1.8c-1.9-2.2-0.6-5.8,3.7-4.7
		c1.5,0.4,3.6,0.8,4.5,2.2C363.3,164.8,363.4,165,363.5,165.2z M377.4,185.3c-1,1.4-2.3,2.6-3.8,3.3c-0.9,0.5-2,0.8-3,0.6
		c-0.9-0.2-1.7-0.9-2.2-1.7c-1-1.6-1.2-3.7-0.5-5.4c1.6-3.9,6.9-4.9,10.3-3.1c0.3,0.1,0.5,0.3,0.7,0.5c0.3,0.4,0.3,1,0.2,1.5
		C378.9,182.5,378.3,184,377.4,185.3z M398.1,187.9c0.5,2.4-1.9,6.4-3.7,7.1c-0.6,0.2-2.3,0.2-2.3-2.5c0-1.7,0.8-3.8,1.9-5.1
		c0.6-0.7,2.5-1.5,3.3-0.8C397.8,186.9,398,187.4,398.1,187.9z M411.5,186.7c2,1.7,2.3,5.3,0.8,7.3c-4.3,6-8.8-9.7-2.2-8
		C410.6,186.1,411.1,186.3,411.5,186.7z M422.7,174.1c1-0.7,2.1-0.7,3.2,0.9c1,1.6,0.8,4.1-0.6,5.3c-1.6,1.4-4.9,0.7-4.8-1.8
		C420.5,177,421.5,175,422.7,174.1z"/>
	<path class="st5" d="M407.8,113.3c1.1,1.2,1.5,1.7,2.2,2.7c5.5,7.4,8.6,15.8,9.2,24.2c0.2,2.8,0.2,5.6,0.3,8.4
		c-0.4,0.1-0.8,0.1-1.2,0.2c-0.3-1.2-0.6-2.4-0.8-3.7c-1.3-7-2-14.5-6.9-20.1c-2-2.5-4.4-4.6-6.7-6.8c-0.6-0.4-1.1-1-1.6-1.5
		c1-1.7,1.6-3.7,1.5-5.6c0.1,0.1,0.1,0.1,0.2,0.2C405,112.4,406.4,113.2,407.8,113.3z M359.4,25.8c0-6.5,3.8-12.6,10.2-15.6
		c2.8-1.3,7.6-1.7,11.6-0.3c3.5,1.1,6.6,3,9.6,5.9c5,5.1,9.5,11.3,16.7,13.2c9,2.4,17.4,3.8,21.4,11.5c4.4,6.7,4,16.5,2.8,24.3
		c-1.3,12.4-6.6,23.8-9.2,35.9c-2.8,12.1-0.2,24.4,1.5,36.5c0.6,3.9,0.9,8.6,0.7,12.4c-0.7-0.4-1.5-0.8-2.3-0.9c0,0,0,0,0,0
		c0-2.4,0-4.9-0.2-7.3c-0.6-10.5-4.6-21.3-11.8-29.1c0.2-0.2,0.4-0.3,0.5-0.6c1.5-1.5,2.9-3.2,3.6-5.2c1.8-4.2-2.7-8.8-7-7.5
		c-3.3,0.8-5.1,3.8-5.3,7c-1-1.3-2.4-2.3-4.1-2.4c-2.5-0.1-4.9,1.3-6.1,3.5c-1.6,3-1.2,6.9,0.9,9.6c1.3,1.9,3.8,3.1,6,2.1
		c0.3-0.1,0.7-0.3,1-0.5c1.6,1.5,3.3,3,4.9,4.6c5.5,5,8.1,10.3,9.2,18.2c0.5,2.6,0.9,5.2,1.5,7.8c-0.2,0.1-0.3,0.1-0.5,0.2
		c-2-4.9-3.7-10-7.7-13.6c-0.1-0.1-0.2-0.2-0.3-0.2c2-2.9,1.1-7.2-1.4-9.5c-2-1.8-4.7-1.5-6.7,0c-4.8-3.3-8.5-9.7-10.5-15.6
		c-1.6-5-2.3-10.5-5.7-14.6c-4.3-5.2-11-9.7-14.2-14.5c-3.3-4.6-4.7-8.5-4.9-13.6c-0.6-7.2,1-14.3,0.5-21.5
		C363.7,39.3,360.2,31,359.4,25.8z M300.7,83.1c1.1-3.1,3.6-7.8,6.8-9.4c3-1.7,6.9-2,11.3-2.2c3.2-0.1,6.6,0.2,9.7-0.8
		c5.4-1.8,8.8-6.8,11.6-11.4c6-9.7,10.1-15.8,20.8-16.6c1.5,8.8-1.3,19.2,0.4,28.8c0.9,5,3.6,9.5,6.8,13.4
		c3.5,4.1,7.9,7.2,11.6,11.2c3.1,3,4.3,8,5.7,13.3c1.2,4.2,3.1,8.2,5.5,11.8c1.7,2.5,3.7,4.7,6.2,6.4c-2.2,4.1,1.9,9.4,6.5,9.3
		c0.4,0,0.8,0,1.3-0.1c0.1,0,0.1,0.1,0.2,0.1c3,2.5,4.6,5.8,6,9.4c-1.5-1.3-3.1-2.5-4.7-3.6c-4.1-2.7-8.8-4.3-13-6.7
		c-2.7-1.5-6.3-4.9-7.9-7.1c-1.1-1.3-1.8-2.9-2.7-4.3c0.6-0.9,0.5-2.2,0.7-3.2c0.6-3.5-0.6-6.9-3-9.5c-1.4-1.5-3.2-2.8-5.3-3
		c-8.4-0.1-6.9,11.7-1.6,15.1c1.8,1.4,4.7,2.6,7,2.1c2.4,4.6,6.1,8.5,10.4,11.5c3.6,2.4,7.7,3.8,11.5,5.9c3.5,1.8,7,4.6,9.5,7.3
		c-1.1,0.9-2.1,2-2.9,3.3c-1.7-0.3-3.4-0.8-5.2-1.5c-7.1-2.5-14.1-9.4-21-15c-0.9-0.7-1.9-1.5-2.9-2.2c0-0.3,0-0.6,0-0.9
		c0-1.7-0.6-3.5-1.6-4.9c-2.8-4-8.7-5.7-11.6-1c-2.8,5.7,4.6,10.3,9.7,9.8c0.8,0,1.6-0.3,2.2-0.7c7.2,5.2,15.8,14.8,26,18
		c-10.9-0.7-22.1-9.9-34.7-10c-0.4-0.9-0.8-1.8-1.5-2.6c-0.5-0.7-1.1-1.3-1.9-1.9c0.3-0.2,0.5-0.6,0.5-1.1c0-0.6-0.5-1.1-1-1.4
		c-1.4-1.1-2.9-2.2-4.4-3.2c-9.8-6.6-22-7.7-33.3-10c-5.1-1-11.3-2-17.7-2.4c0,0,0,0,0,0C300.8,113.8,295.5,96.7,300.7,83.1z
		 M365.9,204.2c-2.4,1-8.7,2.1-12.4,3.3c-6.4,1.9-11.4,6.4-16,11c-5.4,5.4-12.4,10-19,10.8c-7.5,0.7-14.1-1.8-19.2-6.8
		c-1.5-1.3-4-5.5-4.6-6.8c-1-2.1-2.1-7.3-2.1-8.2c-1.3-8,0.6-16.3-1.5-24.2c-2.7-12.4-9.9-21.5-12.1-33.5
		c-3.6-21.3,15-24.9,34.9-23.6c7.6,0.6,16.6,2.7,25.2,4.3c5,1,11.7,2.7,15.3,4.2c3.1,1.4,5.9,3.2,8.3,4.9c-2.7-0.6-5.5,0-7.1,2.4
		c-1.9,3.3,0.1,7.4,3,9.4c2.1,1.5,4.9,1.9,7.3,1c1.8-0.6,3.5-2.1,4-3.9c9.8,0,18.5,6.2,28.7,9c-1.5,0-2.9,0-4.4-0.1
		c-5.2-0.2-10.6-1.3-15.7,0.1c-0.2-0.1-0.3-0.3-0.5-0.4c-1.6-1.2-3.6-2-5.6-2.2c-1.4-0.1-2.9,0-4.1,0.8c-1.7,1.1-2.7,3.3-2,5.2
		c1.7,4.2,7.9,5.1,11.2,2.4c0.9-0.8,1.7-2,1.8-3.3c4.9-1.2,11.2,0,17.3,0.2c-2.3,1.1-4.6,2.2-6.5,2.8c-7.6,2.3-16.4,3-23.9,2
		c-0.4-0.7-1.2-1.3-1.7-1.8c-1.8-1.5-3.8-2.7-6.2-3c-4.8-0.9-8.1,4.1-5.1,8c2.5,3.4,7.6,3.8,10.6,0.8c0.4-0.4,0.7-1,0.9-1.6
		c3.9,0.9,8.2,0.7,12.2,0.5c4.9-0.4,9.7-0.9,14.4-2.6c0.7-0.2,1.4-0.5,2-0.8c-3.8,2.4-7.4,5.1-10.6,8.3c-1.3,1.4-2.6,2.9-3.8,4.4
		c-1.4-0.9-3.9-1.3-4.9-1.2c-7.7,0.1-12.3,9.1-5.8,14.3c4.9,3.3,10.8-2.2,12.3-6.8c0.3-1.3,0.7-2.9,0.2-4.2c0.4-0.5,0.7-1,1.1-1.4
		c4-4.8,7.8-7.9,12.9-11c-4,3.9-7.3,8.5-9.9,13.4c-1.4,2.8-2.6,5.6-3.8,8.5c-0.2,0.1-0.5,0.3-0.6,0.6
		C377.6,196.2,372.9,200.9,365.9,204.2z M451,162.2c9,3,18.1,8,24.8,15.4c5.1,5.8,7.3,15.6,5.2,23.7c-1.4,6.9-5.4,12.9-9.6,18.2
		c-5.2,6.2-11.1,12-14.8,19.3c-3.2,5.5-4.9,11.8-8.1,17.4c-3.7,6-11.8,8.7-18.8,9.5c-5.6,0.7-11.3,0.5-16.9,0.1
		c-9.1-0.5-18.6-2.1-26.5-5.7c-4.5-2-8.7-4.7-12.7-7.6c-2.7-1.9-5.2-4.1-8.3-5.2c-4.7-1.7-10.6-0.1-14.4-1.1
		c-6.3-1.3-10.1-5.4-7.8-11.4c2.1-6.4,10-10.8,17.4-14.9c9.4-5.7,17-14.1,20.9-24.3c5.7-15.2,12.7-27.9,26.5-35c0,0.1,0,0.1,0,0.2
		c0,0,0,0,0,0c-0.2,0.2-0.4,0.5-0.6,0.7c-5.3,6.5-9,14.9-9.8,23.3c-2.1-0.5-4.2,0.2-5.6,2.1c-1.8,2.4-2.7,6.4-0.3,8.7
		c3.8,3.1,8.3-2.1,8.1-6c-0.1-0.6,0-1.3-0.3-1.9c0.2-0.2,0.4-0.5,0.4-0.9c0.2-0.6,0.1-1.2,0.2-1.8c0.9-7.1,3.9-15.4,9.2-21.7
		c0.5,0.6,1.1,1,1.7,1.5c-1,2.3-1.7,4.7-2,7.3c-0.6,3.6-0.4,7.2-0.3,10.8c0.1,0.5,0.1,1.1,0.1,1.6c-2.4,0.5-3.8,3.5-3.7,5.9
		c-0.1,2.9,1.9,5.9,5,6.1c2.4,0.4,4.2-1.8,4.9-3.9c0.6-2,0.1-4.3-1.2-5.9c-0.6-0.7-1.3-1.5-2.2-1.9c0-0.6-0.2-1.3-0.2-1.9
		c-0.3-4.7-0.3-8.4,0.6-12.4c0.3-1.4,0.8-2.9,1.4-4.3c0.9,0.4,1.9,0.8,3,1c0.5,2.5,1.6,4.9,3,7c0.2,0.3,0.4,0.6,0.6,0.9
		c-1.3,1.5-1.5,3.9-0.5,5.6c1.3,2,4.3,2.7,6.4,1.4c4.1-2.5,3.1-8.9-1.5-10c-0.8-0.2-2.1,0-2.8,0.6c-0.1-0.1-0.2-0.2-0.2-0.3
		c-1.1-1.6-1.8-3.3-2.2-5c1-1.1,3.3-1.7,5.1-2.9c0.2-0.1,0.4-0.2,0.6-0.4c0.3-0.3,0.7-0.5,0.9-0.8c0.1-0.1,0.3-0.3,0.3-0.4
		C434.3,161.2,442.8,160,451,162.2z M437.6,152.3c-3.5,1-6.8,2.7-10,4.5c0.3-1.1,0.3-2.3,0-3.4c-0.1-0.4-0.3-0.9-0.5-1.3
		c1.3-10.7-2-22.1-2.8-32.7c-0.9-8.3-0.1-14.9,1.8-22.7c2.2-7.8,5-15.4,6.8-23.3c0.2-0.1,0.4-0.3,0.6-0.5
		c4.2-6.6,8.6-12.6,14.9-16.7c8-5.7,19.6-7.6,26.3-2.4c4.3,3.3,5,8.3,6.7,14.3c2,7.4,7,15.3,9.4,21.2c2.5,6.2,3.5,11.6,3.8,17.7
		c0.2,12.9-4.9,28.2-13.2,37.5c-4.1,4.3-8.8,6.9-14.9,8.2c-3.4,0.7-9.2,0.3-13.8-0.3C449.3,151.8,442,151,437.6,152.3z"/>
</g>
</svg>
