<?xml version="1.0" encoding="utf-8"?>
<!-- Generator: Adobe Illustrator 27.4.0, SVG Export Plug-In . SVG Version: 6.00 Build 0)  -->
<svg version="1.1" id="Layer_1" xmlns="http://www.w3.org/2000/svg" xmlns:xlink="http://www.w3.org/1999/xlink" x="0px" y="0px"
	 viewBox="0 0 864 864" style="enable-background:new 0 0 864 864;" xml:space="preserve">
<style type="text/css">
	.st0{fill:#FFC300;}
</style>
<path class="st0" d="M659.57,453.6c-21.69-16.76-73.98-21.02-116.62-13.92c0.02-0.32,0.03-0.65,0.05-0.97
	c0.02-0.31,0.03-0.62,0.05-0.94c0.04-0.9,0.1-1.79,0.12-2.68c0.02-0.69,0-1.39,0.01-2.08c0-0.17,0.01-0.33,0.01-0.5
	c0-0.17-0.01-0.33-0.01-0.5c0-0.69,0.01-1.39-0.01-2.08c-0.02-0.89-0.07-1.79-0.12-2.68c-0.01-0.31-0.03-0.62-0.05-0.94
	c-0.04-0.79-0.07-1.59-0.13-2.38c42.56,7,94.38,2.76,115.91-13.89c12.98-10.03,18.71-29.41,13.64-46.08
	c-3.16-10.36-10.88-20.2-21.76-27.69c-7.91-5.46-16.6-9.27-24.8-12.58c-2.41-0.97-3.91-3.55-3.56-6.13
	c1.13-8.28,2.18-18.08,1.38-28.03c-1.06-13.17-5.71-24.78-13.11-32.69c-11.9-12.73-31.55-17.45-46.73-11.23
	c-25.36,10.4-55.2,53.55-70.37,94.04c-0.27-0.18-0.55-0.35-0.82-0.53c-0.26-0.17-0.52-0.34-0.78-0.51
	c-0.76-0.48-1.51-0.98-2.27-1.44c-0.59-0.36-1.2-0.69-1.79-1.04c-0.15-0.09-0.28-0.18-0.43-0.26c-0.15-0.08-0.3-0.16-0.44-0.24
	c-0.6-0.34-1.2-0.7-1.8-1.04c-0.78-0.43-1.59-0.83-2.38-1.24c-0.28-0.14-0.56-0.29-0.84-0.43c-0.71-0.36-1.41-0.73-2.12-1.08
	c27.34-33.36,49.58-80.35,45.93-107.33c-2.2-16.26-16.11-30.91-33.09-34.85c-10.55-2.45-22.93-0.68-34.86,4.99
	c-8.68,4.12-16.33,9.74-23.3,15.19c-2.05,1.6-5.03,1.61-7.09,0.02c-6.6-5.12-14.57-10.92-23.59-15.21
	c-11.94-5.67-24.32-7.44-34.86-4.99c-16.97,3.94-30.89,18.6-33.09,34.85c-3.67,27.16,18.78,74.58,46.26,107.96
	c-0.29,0.14-0.58,0.3-0.87,0.44c-0.28,0.14-0.56,0.29-0.84,0.43c-0.8,0.41-1.6,0.81-2.38,1.24c-0.61,0.33-1.2,0.69-1.8,1.04
	c-0.15,0.08-0.3,0.16-0.44,0.24c-0.15,0.08-0.29,0.18-0.43,0.26c-0.6,0.35-1.2,0.68-1.79,1.04c-0.77,0.47-1.52,0.96-2.27,1.44
	c-0.26,0.17-0.52,0.34-0.78,0.51c-0.67,0.43-1.34,0.85-2,1.3c-15.22-40.35-44.8-83.11-69.98-93.44
	c-15.18-6.22-34.83-1.5-46.73,11.23c-7.4,7.92-12.05,19.52-13.11,32.69c-0.77,9.58,0.27,19.01,1.51,27.77
	c0.37,2.57-1.12,5.16-3.53,6.15c-7.73,3.16-16.74,7.15-24.97,12.82c-10.88,7.5-18.6,17.34-21.76,27.7
	c-5.08,16.67,0.66,36.05,13.64,46.08c21.69,16.76,73.98,21.02,116.62,13.92c-0.02,0.32-0.03,0.65-0.05,0.97
	c-0.02,0.31-0.03,0.62-0.05,0.94c-0.04,0.89-0.1,1.79-0.12,2.68c-0.02,0.69,0,1.39-0.01,2.08c0,0.17-0.01,0.33-0.01,0.5
	c0,0.17,0.01,0.33,0.01,0.5c0,0.69-0.01,1.39,0.01,2.08c0.02,0.89,0.07,1.79,0.12,2.68c0.01,0.31,0.03,0.62,0.05,0.94
	c0.04,0.79,0.07,1.59,0.13,2.38c-42.56-7-94.38-2.76-115.91,13.89c-12.98,10.03-18.71,29.41-13.64,46.08
	c3.16,10.36,10.88,20.2,21.76,27.69c7.91,5.46,16.6,9.27,24.8,12.58c2.41,0.97,3.91,3.55,3.56,6.13
	c-1.13,8.28-2.18,18.08-1.38,28.03c1.06,13.17,5.71,24.78,13.11,32.69c11.9,12.73,31.55,17.45,46.73,11.23
	c25.36-10.4,55.2-53.55,70.37-94.04c0.27,0.18,0.55,0.35,0.82,0.53c0.26,0.17,0.52,0.34,0.78,0.51c0.76,0.48,1.5,0.98,2.27,1.44
	c0.59,0.36,1.2,0.7,1.8,1.05c0.14,0.08,0.28,0.18,0.43,0.26c0.15,0.08,0.29,0.16,0.44,0.24c0.6,0.34,1.2,0.7,1.81,1.04
	c0.79,0.43,1.59,0.83,2.39,1.24c0.28,0.14,0.55,0.28,0.83,0.42c0.71,0.36,1.41,0.74,2.13,1.08
	c-27.34,33.36-49.58,80.35-45.93,107.33c2.2,16.26,16.11,30.91,33.09,34.85c10.55,2.45,22.93,0.68,34.86-4.99
	c8.68-4.12,16.33-9.74,23.3-15.19c2.05-1.6,5.03-1.61,7.09-0.02c6.6,5.12,14.57,10.92,23.59,15.21c11.94,5.67,24.32,7.44,34.86,4.99
	c16.97-3.94,30.89-18.6,33.09-34.85c3.67-27.16-18.78-74.58-46.26-107.96c0.29-0.14,0.58-0.3,0.87-0.45
	c0.28-0.14,0.55-0.28,0.83-0.42c0.8-0.41,1.6-0.81,2.39-1.24c0.61-0.33,1.2-0.69,1.81-1.04c0.15-0.08,0.29-0.16,0.44-0.24
	c0.15-0.08,0.28-0.18,0.43-0.26c0.6-0.35,1.21-0.69,1.8-1.05c0.77-0.47,1.51-0.96,2.27-1.44c0.26-0.17,0.52-0.34,0.78-0.51
	c0.67-0.43,1.34-0.85,2-1.3c15.22,40.35,44.8,83.11,69.98,93.44c15.18,6.22,34.83,1.5,46.73-11.23c7.4-7.92,12.05-19.52,13.11-32.69
	c0.77-9.58-0.27-19.01-1.51-27.77c-0.37-2.57,1.12-5.16,3.53-6.15c7.73-3.16,16.74-7.15,24.96-12.82
	c10.88-7.5,18.6-17.34,21.76-27.7C678.29,483.01,672.55,463.63,659.57,453.6z M431.57,506.35c-38.42,0-69.56-31.15-69.56-69.56
	s31.15-69.56,69.56-69.56s69.56,31.15,69.56,69.56S469.99,506.35,431.57,506.35z"/>
</svg>
