<svg width="1038" height="998" viewBox="0 0 1038 998" fill="none" xmlns="http://www.w3.org/2000/svg">
<g clip-path="url(#clip0_210_187)">
<path d="M842.738 392.795C842.738 392.795 837.987 404.415 827.553 424.022C817.118 443.629 625.256 804.113 625.256 804.113C621.887 810.444 616.288 814.797 609.937 816.736C603.586 818.675 596.51 818.192 590.179 814.822C590.179 814.822 229.683 622.965 210.076 612.53C190.469 602.095 180.038 595.11 180.038 595.11C145.517 572.686 118.255 538.69 105.289 496.22C76.0084 400.316 130.017 298.834 225.922 269.553C273.874 254.913 323.216 261.083 364.234 282.934L364.312 282.788L440.047 323.084C452.692 329.814 468.395 325.019 475.124 312.375L515.437 236.648L515.582 236.726C537.401 195.691 574.883 163.012 622.835 148.372C718.739 119.092 820.221 173.101 849.501 269.005C862.467 311.475 858.844 354.901 842.738 392.795Z" fill="#F76D57"/>
<path d="M842.738 392.795C842.738 392.795 837.987 404.415 827.553 424.022C817.118 443.629 625.256 804.113 625.256 804.113C621.887 810.444 616.288 814.797 609.937 816.736C603.586 818.675 596.51 818.192 590.179 814.822C590.179 814.822 229.683 622.965 210.076 612.53C190.469 602.095 180.038 595.11 180.038 595.11C145.517 572.686 118.255 538.69 105.289 496.22C76.0084 400.316 130.017 298.834 225.922 269.553C273.874 254.913 323.216 261.083 364.234 282.934L364.312 282.788L440.047 323.084C452.692 329.814 468.395 325.019 475.124 312.375L515.437 236.648L515.582 236.726C537.401 195.691 574.883 163.012 622.835 148.372C718.739 119.092 820.221 173.101 849.501 269.005C862.467 311.475 858.844 354.901 842.738 392.795Z" fill="#F76D57"/>
<path d="M615.261 123.565C560.462 140.296 517.63 177.658 492.689 224.542L458.335 288.74C454.966 295.071 447.127 297.464 440.797 294.095C440.797 294.095 376.508 259.891 376.443 260.033C329.543 235.083 273.147 228.016 218.348 244.746C108.738 278.211 47.0168 394.183 80.4818 503.794C93.1225 545.197 117.556 579.745 148.959 604.924C148.959 604.924 162.471 616.582 176.521 624.049C190.57 631.516 577.995 837.716 577.995 837.716C590.64 844.445 604.822 845.417 617.511 841.543C630.2 837.669 641.42 828.941 648.15 816.297C648.15 816.297 854.346 428.859 861.816 414.822C869.287 400.785 873.995 383.564 873.995 383.564C885.98 345.138 886.949 302.834 874.308 261.431C840.843 151.821 724.871 90.0999 615.261 123.565ZM842.738 392.795C842.738 392.795 837.987 404.415 827.553 424.022C817.118 443.629 625.257 804.113 625.257 804.113C621.887 810.443 616.288 814.797 609.937 816.736C603.586 818.675 596.51 818.191 590.179 814.822C590.179 814.822 229.683 622.965 210.076 612.53C190.469 602.095 180.038 595.11 180.038 595.11C145.517 572.686 118.255 538.689 105.289 496.22C76.0084 400.316 130.017 298.834 225.922 269.553C273.874 254.913 323.216 261.083 364.234 282.934L364.312 282.788L440.047 323.084C452.692 329.814 468.395 325.019 475.124 312.375L515.437 236.648L515.582 236.726C537.401 195.69 574.883 163.012 622.835 148.372C718.739 119.092 820.221 173.101 849.501 269.005C862.468 311.474 858.844 354.901 842.738 392.795Z" fill="#394240"/>
<path d="M637.983 197.986C631.123 200.08 627.272 207.317 629.366 214.176C631.46 221.036 638.697 224.887 645.556 222.793C700.355 206.063 758.35 236.927 775.08 291.726C777.174 298.585 784.411 302.437 791.271 300.343C798.13 298.249 801.981 291.011 799.887 284.152C778.976 215.66 706.475 177.075 637.983 197.986Z" fill="#394240"/>
<path d="M292.701 488.243C289.996 489.683 286.521 491.357 282.273 493.267C278.005 495.107 274.524 496.515 271.831 497.49C272.542 500.571 274.916 509.353 278.956 523.838C282.995 538.324 286.028 549.014 288.057 555.909C291.823 554.682 296.728 552.916 302.771 550.611C307.876 548.746 310.744 547.717 311.375 547.524C312.637 547.139 313.845 547.077 314.998 547.338C316.222 547.578 317.015 548.294 317.379 549.486C317.679 550.468 317.718 551.223 317.496 551.751C317.344 552.258 316.742 552.671 315.69 552.993C315.269 553.121 314.079 553.369 312.122 553.737C310.633 553.885 309.398 554.108 308.416 554.408C305.12 555.415 298.591 557.638 288.83 561.078C288.629 561.676 288.315 562.155 287.889 562.516C287.554 562.925 287.211 563.183 286.86 563.29C286.439 563.418 285.986 563.441 285.501 563.36C285.016 563.278 284.674 563.037 284.476 562.638L279.902 564.609C274.645 566.981 270.684 568.573 268.019 569.387C265.705 570.094 263.801 570.138 262.309 569.52C261.507 569.152 260.881 568.231 260.431 566.758C260.302 566.337 260.352 565.747 260.58 564.987C260.879 564.206 261.273 563.741 261.764 563.591C261.904 563.548 262.495 563.598 263.535 563.74C264.624 563.791 265.589 563.688 266.431 563.431C269.026 562.639 272.806 561.332 277.77 559.509L282.513 557.716L278.423 542.058C278 540.424 277.631 538.964 277.316 537.68C276.979 536.326 276.672 535.194 276.393 534.282L266.942 499.558C259.798 502.276 256.401 503.582 256.752 503.475C249.769 506.22 245.646 507.785 244.384 508.171C243.191 508.535 241.952 508.492 240.664 508.041C239.376 507.591 238.55 506.77 238.186 505.577C237.929 504.736 237.936 504.005 238.207 503.386C238.548 502.745 239.105 502.307 239.876 502.071C240.437 501.9 241.009 501.764 241.592 501.662C242.174 501.561 242.757 501.46 243.339 501.359C245.2 501.174 246.937 500.836 248.55 500.343C250.093 499.872 253.006 498.867 257.291 497.329C261.553 495.721 264.411 494.657 265.862 494.137C265.654 493.204 265.745 492.371 266.134 491.639C266.503 490.836 267.143 490.296 268.055 490.018C268.476 489.889 268.912 490.063 269.364 490.538C269.816 491.013 270.149 491.602 270.363 492.303C274.388 490.921 281.439 487.771 291.516 482.855C292.314 482.457 293.108 481.793 293.898 480.862C294.757 479.91 295.257 479.412 295.397 479.369C296.098 479.155 296.85 479.232 297.653 479.601C298.455 479.969 298.985 480.574 299.242 481.416C299.649 482.748 299.272 483.899 298.111 484.867C296.949 485.835 295.146 486.96 292.701 488.243ZM406.294 517.049L388.617 523.942L376.418 528.816L370.056 531.333C369.495 531.505 368.862 531.315 368.157 530.763C367.522 530.19 367.108 529.588 366.915 528.957C366.765 528.466 366.799 528.073 367.015 527.776C367.28 527.389 367.577 527.106 367.906 526.929C368.284 526.661 368.533 526.47 368.652 526.357C367.565 522.548 364.902 513.7 360.662 499.813C357.536 489.573 354.696 481.776 352.141 476.422C349.635 470.976 348.318 468.043 348.189 467.622C347.889 466.64 348.004 465.761 348.534 464.986C349.135 464.19 349.821 463.674 350.592 463.438C351.083 463.288 351.533 463.381 351.942 463.716C352.33 463.981 352.722 464.513 353.119 465.312C354.549 467.482 356.413 471.705 358.712 477.981C361.082 484.235 363.327 490.833 365.447 497.777C367.245 503.669 368.88 509.15 370.352 514.221C371.824 519.293 372.827 522.705 373.363 524.458C374.253 524.11 375.974 523.469 378.527 522.537C381.057 521.534 383.658 520.51 386.329 519.464C390.248 517.731 394.617 515.592 399.437 513.047C403.339 511.012 405.712 509.866 406.553 509.609C407.325 509.374 407.923 509.575 408.347 510.212C408.772 510.849 409.134 511.658 409.434 512.64C409.712 513.552 409.516 514.417 408.846 515.235C408.246 516.032 407.395 516.636 406.294 517.049ZM433.202 514.7C428.503 516.134 424.635 515.897 421.599 513.987C418.562 512.077 416.455 509.193 415.277 505.336C414.249 501.969 413.571 497.614 413.243 492.27C412.985 486.905 413.379 481.916 414.424 477.303C414.479 476.98 414.729 475.791 415.176 473.738C415.671 471.593 416.411 469.872 417.395 468.575C418.358 467.208 419.54 466.31 420.943 465.882C421.574 465.689 422.189 465.693 422.787 465.894C423.434 466.003 423.832 466.303 423.982 466.794C424.025 466.934 423.922 467.349 423.672 468.039C423.471 468.637 423.308 469.108 423.184 469.453C421.677 473.057 420.615 476.486 419.999 479.741C419.127 483.918 418.666 487.931 418.614 491.781C418.633 495.609 419.274 499.592 420.537 503.73C422.229 509.271 426.441 511.013 433.175 508.957C436.331 507.994 438.963 506.193 441.071 503.556C443.25 500.897 444.75 498.024 445.571 494.937C446.37 491.779 446.438 489.113 445.774 486.939C445.025 484.484 443.565 482.591 441.395 481.26C439.225 479.929 436.427 478.675 433 477.497C430.77 476.721 429.105 476.041 428.007 475.456C426.908 474.872 426.273 474.299 426.102 473.738C425.845 472.896 426.238 472.048 427.28 471.193C428.301 470.268 429.618 469.559 431.231 469.066C432.143 468.788 432.761 468.676 433.084 468.731C433.386 468.715 433.58 468.848 433.666 469.128C433.708 469.268 433.643 469.557 433.47 469.993C433.345 470.338 433.315 470.616 433.379 470.826C433.443 471.036 434.359 471.524 436.125 472.288C439.638 473.746 442.705 475.378 445.326 477.184C447.948 478.991 449.751 481.507 450.736 484.734C451.572 487.469 451.518 490.936 450.576 495.134C449.634 499.332 447.701 503.296 444.776 507.026C441.83 510.685 437.972 513.243 433.202 514.7ZM498.961 438.612C496.578 443.863 494.985 450.828 494.185 459.507C493.384 468.186 493.442 477.292 494.36 486.827C494.47 487.943 494.762 490.154 495.235 493.46L495.833 497.303C495.965 498.49 495.742 499.516 495.163 500.383C494.654 501.228 493.488 501.929 491.665 502.486C491.314 502.593 489.479 500.853 486.161 497.266C482.82 493.608 479.279 489.668 475.535 485.443L467.992 476.935C463.437 471.808 459.733 467.84 456.882 465.03C454.03 462.221 452.184 460.944 451.342 461.201C451.062 461.287 450.87 461.537 450.766 461.952C450.733 462.346 450.611 462.574 450.401 462.639C450.05 462.746 449.692 462.702 449.326 462.507C449.008 462.22 448.796 461.902 448.689 461.551C448.41 460.639 448.537 459.297 449.069 457.525C449.672 455.73 450.464 454.683 451.446 454.384C452.147 454.17 452.716 454.149 453.152 454.323C453.589 454.496 454.001 454.715 454.388 454.98C454.776 455.246 455.072 455.462 455.277 455.629C457.602 457.22 462.205 461.872 469.084 469.586C471.52 472.292 477.683 479.42 487.573 490.969L491.696 495.806C491.139 493.982 490.59 490.93 490.049 486.647C489.066 477.9 488.875 468.987 489.477 459.909C490.079 450.831 491.614 442.925 494.082 436.191C494.581 434.812 495.012 433.837 495.374 433.266C495.785 432.604 496.412 432.144 497.253 431.887C497.604 431.78 498.336 432.17 499.451 433.057C500.543 433.873 501.143 434.457 501.25 434.808C501.357 435.158 501.016 435.799 500.227 436.73C499.508 437.64 499.086 438.267 498.961 438.612ZM554.976 449.113C555.362 450.375 555.261 453.435 554.673 458.291C554.156 463.126 552.56 467.946 549.886 472.749C547.282 477.531 543.245 480.757 537.774 482.428C533.286 483.798 529.105 483.541 525.233 481.656C521.36 479.772 518.535 475.919 516.758 470.097C515.088 464.627 514.701 458.84 515.599 452.739C516.475 446.568 518.433 441.178 521.473 436.569C524.492 431.89 528.175 428.887 532.524 427.56C535.119 426.767 537.475 426.7 539.593 427.357C541.759 427.922 543.174 429.292 543.838 431.466C544.587 433.921 543.913 436.734 541.814 439.905C539.785 443.055 536.829 446.181 532.946 449.283C529.062 452.386 524.889 455.04 520.425 457.246C520.569 460.73 521.111 464.014 522.054 467.1C523.296 471.168 525.206 474.035 527.785 475.702C530.434 477.346 533.547 477.623 537.124 476.531C542.525 474.882 546.319 471.615 548.508 466.729C550.697 461.844 552.175 456.639 552.942 451.114C552.996 450.791 553.081 450.19 553.196 449.311C553.29 448.362 553.477 447.845 553.758 447.76C554.249 447.61 554.655 448.061 554.976 449.113ZM532.578 432.258C529.913 433.072 527.621 434.73 525.701 437.233C523.782 439.736 522.355 442.472 521.421 445.441C520.558 448.388 520.17 450.884 520.257 452.927C523.376 451.592 526.499 449.641 529.627 447.076C532.754 444.511 535.242 441.988 537.092 439.507C539.011 437.004 539.799 435.191 539.457 434.069C539.114 432.947 538.25 432.252 536.865 431.985C535.55 431.696 534.121 431.787 532.578 432.258ZM623.29 392.602C623.075 394.661 622.896 397.591 622.753 401.392C622.429 411.382 623.131 422.094 624.858 433.528C625.205 435.416 625.594 437.444 626.026 439.612C626.458 441.78 626.899 443.601 627.348 445.074C627.605 445.916 628.097 446.647 628.824 447.269C629.62 447.869 630.051 448.274 630.115 448.485C630.243 448.906 630.023 449.816 629.454 451.217C628.863 452.547 628.146 453.84 627.302 455.094C626.458 456.348 625.686 457.083 624.984 457.297C623.582 457.725 622.698 457.343 622.334 456.151C621.863 454.608 621.134 449.08 620.146 439.567C619.137 429.984 618.49 422.591 618.205 417.387C617.1 419.795 616.042 421.728 615.03 423.187C614.019 424.646 612.531 425.675 610.568 426.275C607.762 427.131 604.247 425.789 600.022 422.248C595.776 418.638 591.262 414.15 586.481 408.786L584.787 407.003C583.184 405.269 581.666 403.815 580.235 402.642C578.803 401.469 578.055 400.777 577.991 400.567C577.884 400.216 578.054 399.896 578.503 399.605C578.999 399.224 579.563 398.936 580.195 398.744C582.509 398.037 585.253 399.615 588.425 403.477C592.792 408.737 596.877 413.203 600.681 416.872C604.534 420.449 607.792 421.831 610.458 421.018C612.211 420.482 613.572 419.415 614.541 417.816C615.509 416.217 616.168 414.482 616.517 412.612C616.839 410.903 617.108 408.521 617.325 405.464C617.612 402.386 617.769 399.885 617.795 397.96C617.983 390.542 618.022 386.274 617.911 385.158C617.812 383.578 617.818 382.465 617.927 381.818C618.015 381.101 618.374 380.646 619.005 380.454C619.777 380.218 620.599 380.274 621.472 380.621C622.323 380.898 622.856 381.387 623.07 382.088C623.434 383.28 623.609 384.607 623.595 386.068C623.581 387.529 623.479 389.707 623.29 392.602ZM664.676 444.029C659.977 445.463 656.109 445.226 653.072 443.316C650.035 441.406 647.928 438.522 646.751 434.665C645.723 431.298 645.045 426.943 644.717 421.599C644.459 416.234 644.852 411.245 645.898 406.632C645.952 406.309 646.203 405.12 646.65 403.067C647.145 400.922 647.885 399.201 648.869 397.904C649.831 396.537 651.014 395.639 652.417 395.211C653.048 395.018 653.663 395.022 654.261 395.223C654.907 395.332 655.306 395.632 655.456 396.123C655.498 396.263 655.395 396.678 655.146 397.368C654.945 397.966 654.782 398.437 654.657 398.782C653.151 402.386 652.089 405.815 651.473 409.07C650.601 413.247 650.139 417.26 650.088 421.109C650.106 424.938 650.747 428.921 652.011 433.059C653.702 438.6 657.915 440.342 664.648 438.286C667.804 437.323 670.437 435.522 672.545 432.885C674.724 430.226 676.223 427.353 677.044 424.266C677.844 421.108 677.911 418.442 677.248 416.268C676.498 413.813 675.038 411.92 672.869 410.589C670.699 409.258 667.9 408.004 664.474 406.826C662.244 406.05 660.579 405.37 659.48 404.785C658.382 404.201 657.747 403.628 657.576 403.067C657.319 402.225 657.711 401.377 658.754 400.522C659.775 399.597 661.092 398.888 662.705 398.395C663.617 398.117 664.234 398.005 664.558 398.06C664.86 398.044 665.054 398.177 665.139 398.457C665.182 398.597 665.117 398.886 664.943 399.322C664.818 399.667 664.788 399.944 664.852 400.155C664.917 400.365 665.832 400.853 667.599 401.617C671.111 403.075 674.178 404.707 676.8 406.513C679.422 408.32 681.225 410.836 682.21 414.063C683.045 416.798 682.992 420.265 682.05 424.463C681.108 428.661 679.175 432.625 676.25 436.355C673.303 440.014 669.445 442.572 664.676 444.029ZM738.193 422.733C736.79 423.162 735.043 422.085 732.951 419.503C730.929 416.9 729.296 414.063 728.052 410.993C726.851 408.062 724.778 402.025 721.832 392.88C721.312 391.428 720.828 389.966 720.378 388.493C719.907 386.95 719.476 385.663 719.084 384.633C718.528 390.093 717.438 396.445 715.816 403.687C714.193 410.93 712.268 417.307 710.04 422.818C707.882 428.307 705.681 431.394 703.437 432.079C701.122 432.786 699.205 432.03 697.684 429.811C696.233 427.57 694.694 423.784 693.066 418.454C691.546 413.474 690.453 407.635 689.789 400.938C689.194 394.218 689.235 388.954 689.912 385.143C690.164 383.456 690.46 382.292 690.801 381.651C691.121 380.94 691.596 380.489 692.227 380.296C693.981 379.76 694.965 379.843 695.179 380.545C695.286 380.896 695.181 381.809 694.865 383.286C694.042 387.371 693.679 392.082 693.775 397.42C693.871 402.758 695.183 409.565 697.71 417.841C699.401 423.382 701.019 425.917 702.562 425.446C704.385 424.889 706.23 422.141 708.095 417.201C710.01 412.169 711.653 406.377 713.026 399.824C714.399 393.27 715.26 387.679 715.61 383.048C715.743 381.474 715.71 379.107 715.512 375.947C715.359 374.69 715.312 373.785 715.373 373.229C715.412 372.604 715.572 372.248 715.852 372.163C716.624 371.927 717.562 371.986 718.666 372.339C719.771 372.692 720.43 373.219 720.644 373.92C721.672 377.287 723.544 383.041 726.26 391.183C729.024 399.233 731.064 404.783 732.378 407.832C733.494 410.482 734.638 412.471 735.81 413.8C737.053 415.107 738.164 416.11 739.144 416.807C740.102 417.435 740.613 417.854 740.678 418.064C741.02 419.186 740.972 420.16 740.534 420.983C740.095 421.807 739.315 422.391 738.193 422.733ZM740.244 354.48C742.34 365.111 744.962 375.582 748.11 385.892C748.795 388.136 749.631 390.373 750.618 392.602C751.605 394.831 752.163 396.156 752.292 396.576C752.806 398.26 752.361 399.315 750.958 399.744C750.468 399.894 749.77 399.493 748.866 398.542C747.941 397.521 746.99 396.163 746.012 394.468C745.084 392.681 744.309 390.771 743.688 388.737C741.975 383.126 738.829 371.819 734.251 354.814C733.7 352.759 733.472 350.758 733.568 348.812C733.734 346.844 734.659 345.604 736.342 345.09C736.903 344.918 737.35 345.127 737.683 345.715C738.065 346.212 738.513 347.302 739.027 348.986C739.091 349.196 739.497 351.027 740.244 354.48ZM759.914 417.022C758.581 417.429 757.366 417.34 756.267 416.755C755.19 416.24 754.326 415.546 753.676 414.671C753.004 413.726 752.582 412.973 752.411 412.412C752.175 411.64 752.301 410.797 752.788 409.881C753.346 408.944 754.01 408.358 754.782 408.122C755.273 407.973 755.723 408.065 756.132 408.4C756.541 408.736 757.038 409.235 757.625 409.9C758.571 410.991 759.389 411.661 760.079 411.911C760.768 412.16 761.396 412.582 761.96 413.177C762.504 413.701 762.818 414.103 762.904 414.384C763.225 415.436 762.229 416.315 759.914 417.022Z" fill="white"/>
</g>
<defs>
<clipPath id="clip0_210_187">
<rect width="830" height="830" fill="white" transform="translate(0.956543 243.319) rotate(-16.9779)"/>
</clipPath>
</defs>
</svg>
